<svg width="58" height="58" viewBox="0 0 58 58" fill="none" xmlns="http://www.w3.org/2000/svg">
<g clip-path="url(#clip0_196_566)">
<path d="M23.4444 57.4694C18.4063 56.4277 13.7052 54.104 10.0146 50.8311C0.539885 42.429 -2.38831 29.2298 2.61696 17.4854C3.84613 14.6013 5.84442 11.6743 8.32036 9.13144L10.5032 6.88962L10.6571 20.0109C10.8045 32.5704 10.8377 33.2031 11.4327 34.7857C12.6231 37.952 13.8992 39.9679 16.0961 42.1525C21.771 47.7955 30.0949 49.2038 37.171 45.7181C43.822 42.4418 48.0151 35.3179 47.5278 28.122C47.2005 23.2884 45.5725 19.7441 42.0577 16.2126C39.3999 13.5423 36.273 11.798 32.8687 11.0868C29.405 10.3632 29.5712 10.2574 29.5712 13.1848V15.712L31.4701 16.0613C38.8239 17.4143 43.6876 24.6246 42.1548 31.9014C41.6652 34.2255 40.5732 36.2778 38.8203 38.1682C36.1564 41.0412 32.4085 42.4144 29.136 42.4081C23.7248 42.3977 19.2064 39.3275 17.0165 34.7872C17.0165 34.7872 16.4428 33.4894 16.2584 32.6875C15.1742 27.9713 15.8672 18.0435 15.8672 18.0435L15.7833 3.52733L16.6415 3.08419C17.1136 2.84046 17.5663 2.64104 17.6476 2.64104C17.7288 2.64104 17.832 9.30832 17.8768 17.4572C17.8768 17.4572 16.8346 28.1393 18.1226 32.2328C18.3084 32.8234 18.6612 33.8336 18.6612 33.8336C19.7902 36.1303 21.5997 38.1506 23.9508 39.2626C25.7356 40.1067 26.6342 40.4887 29.2746 40.4887C30.9997 40.4887 32.528 39.9449 34.2866 39.1374C36.3596 38.1854 38.7376 35.6614 39.6164 33.3569C42.0376 27.0076 38.6663 20.1766 32.1715 18.2718C29.5171 17.4934 29.5712 17.4505 29.5712 20.3324V22.8498L30.8454 23.19C35.4381 24.4165 36.8395 30.5632 33.2341 33.7215C31.9602 34.8373 30.8124 35.3306 28.8045 35.3306C26.6589 35.3306 24.5994 34.0339 23.5407 32.0451C22.9047 30.8505 22.851 29.7173 22.851 29.1983C22.851 24.4042 22.747 15.7822 22.747 15.7822L22.6611 0.992427L23.3204 0.828905C23.6831 0.738966 25.1489 0.516423 26.5777 0.334363C31.4235 -0.28308 38.5926 1.30035 43.4089 4.05185C49.9751 7.8031 54.9436 14.2472 57.0123 21.6956C57.7238 24.2576 57.8031 25.0026 57.8031 29.124C57.8031 33.2271 57.722 33.9967 57.0255 36.5027C54.2119 46.626 47.0548 53.8627 36.8211 56.9319C34.6673 57.5778 33.6584 57.701 29.8579 57.7819C26.791 57.8472 24.8032 57.7504 23.4444 57.4694Z" fill="white"/>
</g>
<defs>
<clipPath id="clip0_196_566">
<rect width="57.6" height="57.6" fill="white" transform="translate(0.203125 0.201447)"/>
</clipPath>
</defs>
</svg>
