<svg width="125" height="17" viewBox="0 0 125 17" fill="none" xmlns="http://www.w3.org/2000/svg">
<path d="M0.28 12.852H1.33C1.50733 12.4973 1.65667 12.0587 1.778 11.536C1.89933 11.0133 1.99267 10.4533 2.058 9.856C2.12333 9.24933 2.17 8.62867 2.198 7.994C2.226 7.35 2.24 6.73867 2.24 6.16V4.2H8.61V12.852H9.8V15.82H8.54V14H1.54V15.82H0.28V12.852ZM7.294 12.852V5.348H3.528V6.44C3.528 7.85867 3.46267 9.086 3.332 10.122C3.21067 11.158 3.01 12.068 2.73 12.852H7.294ZM11.3466 6.58H12.5786V12.18L16.4146 6.58H17.6466V14H16.4146V8.4L12.5786 14H11.3466V6.58ZM22.4115 14.14C21.4782 14.14 20.7455 13.944 20.2135 13.552C19.6815 13.16 19.3875 12.6093 19.3315 11.9H20.5635C20.6288 12.264 20.8202 12.544 21.1375 12.74C21.4642 12.9267 21.8888 13.02 22.4115 13.02C23.0555 13.02 23.5222 12.9127 23.8115 12.698C24.1102 12.474 24.2595 12.208 24.2595 11.9C24.2595 11.536 24.1382 11.2513 23.8955 11.046C23.6528 10.8313 23.2328 10.724 22.6355 10.724H21.3615V9.716H22.5515C23.0648 9.716 23.4288 9.618 23.6435 9.422C23.8675 9.226 23.9795 8.95067 23.9795 8.596C23.9795 8.316 23.8488 8.07333 23.5875 7.868C23.3262 7.66267 22.9342 7.56 22.4115 7.56C21.8422 7.56 21.4268 7.65333 21.1655 7.84C20.9135 8.01733 20.7595 8.274 20.7035 8.61H19.4715C19.4995 8.302 19.5835 8.01733 19.7235 7.756C19.8728 7.48533 20.0735 7.252 20.3255 7.056C20.5775 6.86 20.8762 6.71067 21.2215 6.608C21.5762 6.496 21.9728 6.44 22.4115 6.44C22.8875 6.44 23.2982 6.496 23.6435 6.608C23.9982 6.71067 24.2922 6.86 24.5255 7.056C24.7588 7.24267 24.9315 7.46667 25.0435 7.728C25.1555 7.98933 25.2115 8.27867 25.2115 8.596C25.2115 8.95067 25.1228 9.26333 24.9455 9.534C24.7682 9.79533 24.4835 10.0007 24.0915 10.15C24.6142 10.29 24.9782 10.514 25.1835 10.822C25.3888 11.13 25.4915 11.4893 25.4915 11.9C25.4915 12.208 25.4262 12.4973 25.2955 12.768C25.1648 13.0387 24.9688 13.2767 24.7075 13.482C24.4555 13.678 24.1335 13.8367 23.7415 13.958C23.3588 14.0793 22.9155 14.14 22.4115 14.14ZM29.361 14.14C28.9503 14.14 28.5863 14.084 28.269 13.972C27.961 13.8507 27.6996 13.6873 27.485 13.482C27.2703 13.2767 27.107 13.034 26.995 12.754C26.883 12.474 26.827 12.166 26.827 11.83C26.827 11.0927 27.0416 10.5607 27.471 10.234C27.9096 9.90733 28.535 9.744 29.347 9.744H31.755V9.24C31.755 8.60533 31.6103 8.16667 31.321 7.924C31.041 7.68133 30.6163 7.56 30.047 7.56C29.515 7.56 29.1276 7.66267 28.885 7.868C28.6423 8.064 28.507 8.288 28.479 8.54H27.247C27.2656 8.24133 27.345 7.966 27.485 7.714C27.6343 7.45267 27.8303 7.22867 28.073 7.042C28.325 6.85533 28.6236 6.71067 28.969 6.608C29.3143 6.496 29.697 6.44 30.117 6.44C30.9943 6.44 31.6896 6.65 32.203 7.07C32.7256 7.48067 32.987 8.15733 32.987 9.1V12.11C32.987 12.502 32.987 12.8473 32.987 13.146C32.9963 13.4353 33.0196 13.72 33.057 14H31.979C31.951 13.7853 31.9323 13.5847 31.923 13.398C31.9136 13.202 31.909 12.9827 31.909 12.74C31.713 13.132 31.3956 13.4633 30.957 13.734C30.5183 14.0047 29.9863 14.14 29.361 14.14ZM29.627 13.02C29.9163 13.02 30.187 12.9827 30.439 12.908C30.7003 12.824 30.929 12.7073 31.125 12.558C31.321 12.3993 31.475 12.208 31.587 11.984C31.699 11.76 31.755 11.4987 31.755 11.2V10.696H29.557C29.0996 10.696 28.7403 10.7893 28.479 10.976C28.2176 11.1533 28.087 11.438 28.087 11.83C28.087 12.1753 28.2083 12.46 28.451 12.684C28.703 12.908 29.095 13.02 29.627 13.02ZM35.163 6.58H36.395V12.18L40.231 6.58H41.463V14H40.231V8.4L36.395 14H35.163V6.58ZM38.313 5.67C37.585 5.67 37.053 5.516 36.717 5.208C36.381 4.89067 36.213 4.438 36.213 3.85H37.417C37.417 4.48467 37.7156 4.802 38.313 4.802C38.929 4.802 39.237 4.48467 39.237 3.85H40.413C40.413 4.438 40.245 4.89067 39.909 5.208C39.573 5.516 39.041 5.67 38.313 5.67ZM43.7079 6.58H44.9399V9.674H48.7759V6.58H50.0079V14H48.7759V10.766H44.9399V14H43.7079V6.58ZM55.1928 9.506H61.4928V10.654H55.1928V9.506Z" fill="currentColor" fill-opacity="1"/>
<path d="M84.9515 9.60267V3.26172H87.2286V9.5233C87.2286 10.9946 88.0833 12.006 89.7123 12.006C91.3413 12.006 92.1787 10.9936 92.1787 9.5233V3.26172H94.4721V9.58741C94.4721 12.2125 92.9214 13.9992 89.7123 13.9992C86.5011 13.9992 84.9515 12.1962 84.9515 9.60267Z" fill="currentColor" fill-opacity="1"/>
<path d="M99.883 12.3224L101.1 10.6151C101.844 11.3904 102.998 12.0375 104.453 12.0375C105.687 12.0375 106.287 11.4688 106.287 10.8674C106.287 9.00137 100.215 10.2824 100.215 6.31318C100.215 4.55803 101.733 3.10303 104.215 3.10303C105.892 3.10303 107.283 3.60872 108.327 4.57431L107.078 6.21856C106.225 5.42797 105.085 5.06473 104.01 5.06473C103.045 5.06473 102.508 5.49106 102.508 6.12393C102.508 7.79973 108.564 6.67744 108.564 10.6151C108.564 12.5442 107.189 13.9992 104.343 13.9992C102.319 13.9992 100.864 13.3185 99.883 12.3224Z" fill="currentColor" fill-opacity="1"/>
<path d="M113.833 8.50051C113.833 5.29544 116.176 3 119.381 3C122.602 3 124.945 5.29544 124.945 8.50051C124.945 11.7046 122.602 14 119.381 14C116.176 14 113.833 11.7046 113.833 8.50051ZM122.617 8.50051C122.617 6.50828 121.342 5.00953 119.381 5.00953C117.421 5.00953 116.161 6.50828 116.161 8.50051C116.161 10.4775 117.421 11.9915 119.381 11.9915C121.342 11.9915 122.617 10.4775 122.617 8.50051Z" fill="currentColor" fill-opacity="1"/>
<path d="M77.168 9.79192C78.3065 9.52331 79.4777 8.52719 79.4777 6.66113C79.4777 4.70044 78.1336 3.26172 75.9348 3.26172H71V5.23767H73.2456H73.4125H75.6031C76.5046 5.23767 77.1843 5.7749 77.1843 6.66113C77.1843 7.54634 76.5036 8.08458 75.6031 8.08458H73.4125H73.2456H71.001V13.8089H73.2466V10.0616H74.8919L76.9624 13.81H79.5407L77.168 9.79192Z" fill="currentColor" fill-opacity="1"/>
</svg>
