<svg width="217" height="25" viewBox="0 0 217 25" fill="none" xmlns="http://www.w3.org/2000/svg">
<path d="M109.18 12.3739C107.6 10.7209 105.914 9.58577 103.697 9.58577L86.5831 9.55921C85.4546 9.55921 84.7708 9.11445 84.3725 8.22491C84.0207 7.43495 84.0008 6.46575 84.565 5.77536C85.0098 5.23102 85.7135 4.77297 86.5964 4.77297C86.6096 4.77297 104.168 4.79953 104.168 4.79953H104.719C106.233 4.79953 106.266 6.03424 106.956 6.6317C107.374 6.9968 107.919 7.2026 108.476 7.2026C109.758 7.2026 110.64 6.16038 110.64 4.87918C110.64 4.08922 110.023 3.02709 109.512 2.43628C108.357 1.09533 106.89 0.351831 105.131 0.219064H103.79L87.0942 0.192505C84.9501 0.192505 83.1909 0.736846 81.9031 1.83881C80.5422 3.00052 79.5 5.1779 79.5 6.97026C79.5 8.88874 80.1306 10.6147 81.1131 11.7366C82.6466 13.4957 84.5385 14.1861 86.7557 14.1861L103.285 14.2127C104.215 14.2127 104.799 14.5247 105.27 14.8832C106.12 15.5404 106.332 16.6423 106.259 17.6513C106.166 18.9458 105.111 20.3 103.591 20.3C103.272 20.3 97.2797 20.2912 85.6139 20.2735C84.1004 20.2735 84.0672 19.0454 83.3768 18.4413C82.9586 18.0762 82.4142 17.8704 81.8566 17.8704C80.5754 17.8704 79.6925 18.9126 79.6925 20.1938C79.6925 20.9838 80.3099 22.0459 80.8144 22.6367C81.9761 23.9777 83.4365 24.7212 85.1957 24.854L103.411 24.8805C105.25 24.8805 106.976 24.1636 108.237 23.1147C109.844 21.6476 110.707 19.8818 110.82 17.8306V16.6622C110.713 15.0757 110.169 13.6484 109.187 12.3739" fill="currentColor"/>
<path d="M31.1073 21.5215C31.1073 21.5215 31.1139 21.5215 31.1206 21.5149C31.0874 21.4418 31.0542 21.3622 31.0077 21.2892L17.9833 1.77907C17.9833 1.77907 17.6314 1.22146 17.6314 1.2281C17.18 0.531071 16.4896 0 15.6134 0C14.3455 0 13.3165 1.02894 13.3165 2.29686C13.3165 2.75491 13.4559 3.1864 13.6883 3.54487C13.6883 3.54487 13.6883 3.54488 13.6883 3.55152V3.56479C13.6883 3.56479 13.7082 3.58471 13.7148 3.59135L20.3332 13.5356L6.73791 13.5489C5.50982 13.5489 5.10489 13.8343 4.62693 14.7238L0.424843 21.4087C0.385013 21.4618 0.351833 21.5215 0.312003 21.5879L0.238971 21.7007C0.238971 21.7007 0.238977 21.7007 0.245615 21.7007C0.0929336 21.9995 0 22.3314 0 22.6898C0 23.9047 0.982473 24.8871 2.19729 24.8871C3.02708 24.8871 3.74401 24.4158 4.11576 23.7387C4.12904 23.7387 4.13569 23.7387 4.14896 23.7387L7.90627 18.043L23.3404 18.0629L27.2106 24.0308C27.2106 24.0308 27.2238 24.0175 27.2305 24.0109C27.6553 24.5486 28.3059 24.9071 29.0427 24.9071C30.3239 24.9071 31.3595 23.8715 31.3595 22.5903C31.3595 22.2053 31.26 21.8534 31.094 21.5348" fill="currentColor"/>
<path d="M64.9699 2.79472C63.3899 1.14177 61.5113 0.258885 59.3472 0.139395L37.4141 0.106201C37.3676 0.106201 37.3278 0.119477 37.288 0.126115C37.288 0.126115 37.288 0.132757 37.288 0.139395C36.1661 0.292077 35.2965 1.24135 35.2965 2.40306C35.2965 3.63116 36.2657 4.62691 37.4805 4.68665H37.5004C37.5336 4.68665 37.5602 4.6933 37.5867 4.6933C37.6133 4.6933 37.6465 4.68665 37.673 4.68665C39.8039 4.68665 59.4401 4.71984 59.4667 4.71984C60.8939 4.71984 62.1088 6.14709 62.0955 7.57434C62.0822 9.1609 61.3188 10.6014 59.5198 10.847L37.4738 10.8139V10.8271C36.2657 10.8935 35.3031 11.8826 35.3031 13.1107C35.3031 13.124 35.3031 13.1373 35.3031 13.1505C35.3031 13.1505 35.3031 13.1505 35.2965 13.1505L35.2832 22.6301C35.2832 23.8847 36.2922 24.8938 37.5402 24.8938C38.7882 24.8938 39.7508 23.9179 39.7906 22.7097C39.7906 22.7097 39.7973 22.7097 39.8039 22.7097L39.8172 15.4408L58.9091 15.474C60.9736 15.474 62.1685 15.1553 63.9608 13.7745C65.6404 12.3075 66.5365 10.5085 66.6494 8.39086V7.1893C66.5432 5.55627 65.9723 4.09584 64.95 2.80137" fill="currentColor"/>
<path d="M177.409 9.70524H177.362C177.349 9.70524 177.343 9.70524 177.336 9.70524C177.323 9.70524 177.316 9.70524 177.309 9.70524L153.332 9.67206C153.332 9.67206 153.312 9.67206 153.305 9.67206C153.298 9.67206 153.292 9.67206 153.279 9.67206H153.093C153.093 9.67206 153.093 9.68533 153.093 9.69197C151.924 9.79819 151.008 10.7674 151.008 11.9623L150.988 22.5969C150.988 22.5969 150.988 22.6301 150.988 22.6434C150.988 23.8914 151.997 24.907 153.245 24.907C154.493 24.907 155.489 23.9047 155.502 22.6699C155.502 22.6699 155.502 22.6699 155.509 22.6699L155.522 14.2923L177.289 14.3255C177.289 14.3255 177.289 14.3255 177.289 14.3189C177.303 14.3189 177.316 14.3189 177.329 14.3189C178.604 14.3189 179.639 13.2833 179.639 12.0087C179.639 10.7342 178.644 9.74507 177.402 9.70524" fill="currentColor"/>
<path d="M180.065 0.205784C180.065 0.205784 180.065 0.199143 180.065 0.192505L153.333 0.219064C153.333 0.219064 153.326 0.219064 153.32 0.219064C153.32 0.219064 153.313 0.219064 153.306 0.219064H153.18C153.18 0.219064 153.18 0.225705 153.18 0.232343C151.979 0.305365 151.029 1.29448 151.029 2.51593C151.029 3.78386 152.052 4.8128 153.32 4.8128C153.333 4.8128 153.353 4.8128 153.366 4.8128L167.585 4.79953C167.645 4.79953 167.705 4.81944 167.765 4.81944C167.824 4.81944 167.884 4.80616 167.944 4.79953L180.006 4.78624C180.006 4.78624 180.006 4.77961 180.006 4.77297C181.267 4.77297 182.289 3.75066 182.289 2.48938C182.289 1.24801 181.293 0.238983 180.065 0.212429" fill="currentColor"/>
<path d="M75.225 2.43627C75.225 2.43627 75.225 2.4097 75.225 2.39642C75.225 2.38314 75.225 2.36987 75.225 2.35659V2.33668C75.1918 1.11522 74.196 0.132751 72.968 0.132751C71.7399 0.132751 70.8171 1.05549 70.7242 2.22384H70.7109V2.3765C70.7109 2.3765 70.7109 2.39643 70.7109 2.40306C70.7109 2.4097 70.7109 2.41635 70.7109 2.42962L70.6777 22.5969C70.6777 22.5969 70.6777 22.5969 70.6777 22.6035C70.6777 23.8582 71.6934 24.8672 72.9414 24.8672C74.1894 24.8672 75.2051 23.8515 75.2051 22.6035C75.2051 22.577 75.1984 22.5571 75.1984 22.5372L75.2316 2.44954L75.225 2.43627Z" fill="currentColor"/>
<path d="M213.788 0.205788C213.788 0.205788 213.788 0.199147 213.788 0.192509L187.055 0.219068C187.055 0.219068 187.049 0.219068 187.042 0.219068C187.042 0.219068 187.035 0.219068 187.029 0.219068H186.903C186.903 0.219068 186.903 0.225709 186.903 0.232347C185.701 0.305369 184.752 1.29448 184.752 2.51594C184.752 3.73739 185.781 4.8128 187.049 4.8128C187.062 4.8128 187.075 4.8128 187.095 4.8128L198.135 4.79953L198.108 22.7297C198.108 22.7297 198.108 22.7297 198.108 22.7363C198.108 23.991 199.124 25 200.372 25C201.62 25 202.635 23.9843 202.635 22.7363C202.635 22.7098 202.635 22.6899 202.629 22.6699L202.655 4.79289L213.728 4.77962C213.728 4.77962 213.728 4.77296 213.728 4.76633C214.989 4.76633 216.012 3.74402 216.012 2.48273C216.012 1.24136 215.016 0.232342 213.788 0.205788Z" fill="currentColor"/>
<path d="M122.165 24.9137C120.074 24.9137 118.521 24.0175 117.047 22.5637C116.045 21.2892 115.182 19.8088 115.182 18.0696L115.195 6.99019C115.195 5.03852 115.945 3.65773 117.452 2.19066C118.707 0.975843 120.486 0.232361 122.172 0.232361L139.246 0.25891C141.33 0.25891 143.215 1.36088 144.736 2.94744C145.824 4.33485 146.535 5.6758 146.535 7.67394L146.521 17.5518C146.521 19.9018 145.519 21.6543 143.866 23.2409C142.571 24.2632 141.23 24.9403 139.445 24.9403L122.165 24.9137ZM141.011 19.6163C141.549 19.0587 141.901 18.4944 141.901 17.7841L141.914 7.54116C141.868 6.80431 141.576 6.14713 140.978 5.62934C140.494 5.20448 139.73 4.85929 139.12 4.85929L122.305 4.83273C121.654 4.83273 121.043 5.12483 120.618 5.56959C120.107 6.16705 119.716 6.80431 119.716 7.70712L119.702 17.4854C119.702 18.3418 119.961 19.0388 120.585 19.6893C121.01 20.0279 121.674 20.2934 122.205 20.3399C122.205 20.3399 138.781 20.393 139.418 20.393C140.055 20.393 140.474 20.1872 141.011 19.623" fill="currentColor"/>
</svg>
