<svg width="101" height="23" viewBox="0 0 101 23" fill="none" xmlns="http://www.w3.org/2000/svg">
<g clip-path="url(#clip0_196_602)">
<path fill-rule="evenodd" clip-rule="evenodd" d="M31.2905 2.76981H40.6913V0.956604H31.2905V2.76981ZM40.6913 5.94852H31.2905V4.13532H40.6913V5.94852ZM20.2172 19.5219C20.9625 19.7821 21.7622 19.9121 22.6162 19.9121C23.4703 19.9121 24.2622 19.7821 24.992 19.5219C25.7374 19.2465 26.3818 18.8487 26.9253 18.3285C27.4687 17.8083 27.8958 17.1657 28.2063 16.4007C28.5169 15.6204 28.6722 14.7177 28.6722 13.6926V13.2335C28.6722 12.2697 28.5169 11.4205 28.2063 10.6861C27.8958 9.9364 27.4687 9.30909 26.9253 8.8042C26.3818 8.284 25.7374 7.89384 24.992 7.63371C24.2622 7.37364 23.4703 7.2436 22.6162 7.2436C21.7622 7.2436 20.9625 7.37364 20.2172 7.63371C19.4874 7.89384 18.8507 8.284 18.3072 8.8042C17.7637 9.30909 17.3367 9.9364 17.0261 10.6861C16.7156 11.4205 16.5603 12.2697 16.5603 13.2335V13.6926C16.5603 14.7177 16.7156 15.6204 17.0261 16.4007C17.3367 17.1657 17.7637 17.8083 18.3072 18.3285C18.8507 18.8487 19.4874 19.2465 20.2172 19.5219ZM23.8973 17.4794C23.4936 17.6324 23.0665 17.7088 22.6162 17.7088C22.1659 17.7088 21.7312 17.6324 21.3118 17.4794C20.9081 17.3263 20.5432 17.0892 20.2172 16.7679C19.9066 16.4466 19.6504 16.0335 19.4485 15.5286C19.2622 15.0237 19.169 14.4117 19.169 13.6926V13.2335C19.169 12.5757 19.2622 12.0096 19.4485 11.5352C19.6504 11.0609 19.9066 10.6708 20.2172 10.3648C20.5432 10.0588 20.9081 9.82929 21.3118 9.67628C21.7312 9.52332 22.1659 9.44678 22.6162 9.44678C23.0665 9.44678 23.4936 9.52332 23.8973 9.67628C24.3165 9.82929 24.6815 10.0588 24.992 10.3648C25.3181 10.6708 25.5743 11.0609 25.7607 11.5352C25.9626 12.0096 26.0635 12.5757 26.0635 13.2335V13.6926C26.0635 14.4117 25.9626 15.0237 25.7607 15.5286C25.5743 16.0335 25.3181 16.4466 24.992 16.7679C24.6815 17.0892 24.3165 17.3263 23.8973 17.4794ZM3.84916 7.49601H0.960938V19.6596H3.52307V11.2828L6.78399 17.1351H8.64731L11.9083 11.2828V19.6596H14.4704V7.49601H11.7219L7.78553 14.6106L3.84916 7.49601ZM36.1166 19.9121C35.2936 19.9121 34.5172 19.7897 33.7874 19.5448C33.0575 19.2848 32.4131 18.9023 31.8541 18.3974C31.3106 17.8772 30.8758 17.2269 30.5497 16.4466C30.2237 15.6663 30.0606 14.7483 30.0606 13.6926V13.2335C30.0606 12.2238 30.2159 11.344 30.5264 10.5943C30.837 9.84461 31.2563 9.22495 31.7842 8.73533C32.3277 8.23045 32.9488 7.8556 33.6476 7.61079C34.3464 7.36598 35.0917 7.2436 35.8837 7.2436C37.7625 7.2436 39.1989 7.74082 40.1927 8.73533C41.202 9.72983 41.7066 11.1527 41.7066 13.0041V14.2893H32.6693C32.6848 14.9166 32.7858 15.4521 32.9721 15.8958C33.174 16.3242 33.4302 16.6761 33.7407 16.9515C34.0669 17.2116 34.4318 17.4029 34.8355 17.5253C35.2547 17.6476 35.6818 17.7088 36.1166 17.7088C37.0017 17.7088 37.6461 17.5712 38.0498 17.2958C38.469 17.0204 38.7563 16.6608 38.9116 16.2171H41.4737C41.2253 17.4258 40.612 18.3438 39.6337 18.9711C38.6709 19.5984 37.4986 19.9121 36.1166 19.9121ZM36.0001 9.44678C35.5653 9.44678 35.1461 9.50034 34.7423 9.60746C34.3541 9.71457 34.0047 9.89051 33.6942 10.1353C33.3992 10.3648 33.1585 10.6708 32.9721 11.0533C32.7858 11.4205 32.6848 11.8719 32.6693 12.4074H39.1445C39.129 11.8413 39.0359 11.367 38.865 10.9845C38.7098 10.602 38.4923 10.2959 38.2129 10.0664C37.9333 9.83695 37.5995 9.67628 37.2113 9.58448C36.8386 9.49268 36.4349 9.44678 36.0001 9.44678ZM49.1674 17.5023H47.7699V22.5284H50.1457V19.6596H58.6705V22.5284H61.0463V17.5023H59.4157V7.49601H50.2156V10.9386C50.2156 11.627 50.1923 12.3156 50.1457 13.0041C50.0991 13.6773 50.0292 14.3122 49.9361 14.9089C49.8429 15.4903 49.7265 16.0105 49.5867 16.4695C49.4625 16.9286 49.3227 17.2728 49.1674 17.5023ZM56.8538 9.65335V17.5023H51.7761C52.1022 16.7679 52.3351 15.8652 52.4749 14.7942C52.6147 13.7079 52.6845 12.5757 52.6845 11.3976V9.65335H56.8538ZM68.0421 19.9121C67.2194 19.9121 66.4428 19.7897 65.713 19.5448C64.9831 19.2848 64.3386 18.9023 63.7796 18.3974C63.2364 17.8772 62.8015 17.2269 62.4753 16.4466C62.149 15.6663 61.9862 14.7483 61.9862 13.6926V13.2335C61.9862 12.2238 62.1416 11.344 62.4519 10.5943C62.7628 9.84461 63.1818 9.22495 63.7101 8.73533C64.2532 8.23045 64.8744 7.8556 65.5735 7.61079C66.272 7.36598 67.0173 7.2436 67.8092 7.2436C69.688 7.2436 71.1243 7.74082 72.1184 8.73533C73.1278 9.72983 73.6322 11.1527 73.6322 13.0041V14.2893H64.5948C64.6108 14.9166 64.7115 15.4521 64.8977 15.8958C65.0998 16.3242 65.356 16.6761 65.6663 16.9515C65.9925 17.2116 66.3574 17.4029 66.7611 17.5253C67.1807 17.6476 67.6077 17.7088 68.0421 17.7088C68.9273 17.7088 69.5718 17.5712 69.9754 17.2958C70.3945 17.0204 70.682 16.6608 70.8374 16.2171H73.3993C73.1511 17.4258 72.5374 18.3438 71.5593 18.9711C70.5966 19.5984 69.4244 19.9121 68.0421 19.9121ZM67.9259 9.44678C67.491 9.44678 67.0719 9.50034 66.6677 9.60746C66.28 9.71457 65.9305 9.89051 65.6196 10.1353C65.3247 10.3648 65.0839 10.6708 64.8977 11.0533C64.7115 11.4205 64.6108 11.8719 64.5948 12.4074H71.0703C71.0549 11.8413 70.9615 11.367 70.7907 10.9845C70.6353 10.602 70.4178 10.2959 70.1383 10.0664C69.8587 9.83695 69.5251 9.67628 69.1368 9.58448C68.7645 9.49268 68.3603 9.44678 67.9259 9.44678ZM74.8511 19.8891C75.006 19.9044 75.146 19.9121 75.2701 19.9121C75.9066 19.9121 76.4657 19.7897 76.9473 19.5448C77.4284 19.2848 77.832 18.841 78.1583 18.2138C78.4845 17.5865 78.7253 16.7449 78.8802 15.6893C79.051 14.6182 79.1364 13.2642 79.1364 11.627V9.65335H83.4222V19.6596H85.9847V7.49601H76.6678V11.1681C76.6678 12.4074 76.6285 13.4325 76.5511 14.2434C76.4736 15.0543 76.3569 15.7045 76.2015 16.1941C76.062 16.6684 75.8759 17.0051 75.643 17.204C75.4096 17.3876 75.1301 17.4794 74.8044 17.4794C74.649 17.4794 74.5323 17.4717 74.4548 17.4564V19.8432C74.579 19.8738 74.711 19.8891 74.8511 19.8891ZM94.1328 19.9121C93.2788 19.9121 92.4795 19.7821 91.7342 19.5219C91.0044 19.2465 90.3673 18.8487 89.8242 18.3285C89.2805 17.8083 88.8535 17.1657 88.5432 16.4007C88.2323 15.6204 88.0769 14.7177 88.0769 13.6926V13.2335C88.0769 12.2697 88.2323 11.4205 88.5432 10.6861C88.8535 9.9364 89.2805 9.30909 89.8242 8.8042C90.3673 8.284 91.0044 7.89384 91.7342 7.63371C92.4795 7.37364 93.2788 7.2436 94.1328 7.2436C94.9873 7.2436 95.7792 7.37364 96.5091 7.63371C97.2543 7.89384 97.8988 8.284 98.4419 8.8042C98.9856 9.30909 99.4126 9.9364 99.7229 10.6861C100.034 11.4205 100.189 12.2697 100.189 13.2335V13.6926C100.189 14.7177 100.034 15.6204 99.7229 16.4007C99.4126 17.1657 98.9856 17.8083 98.4419 18.3285C97.8988 18.8487 97.2543 19.2465 96.5091 19.5219C95.7792 19.7821 94.9873 19.9121 94.1328 19.9121ZM94.1328 17.7088C94.5831 17.7088 95.0106 17.6324 95.4143 17.4794C95.8333 17.3263 96.1982 17.0892 96.5091 16.7679C96.8347 16.4466 97.0909 16.0335 97.2777 15.5286C97.4792 15.0237 97.5806 14.4117 97.5806 13.6926V13.2335C97.5806 12.5757 97.4792 12.0096 97.2777 11.5352C97.0909 11.0609 96.8347 10.6708 96.5091 10.3648C96.1982 10.0588 95.8333 9.82929 95.4143 9.67628C95.0106 9.52332 94.5831 9.44678 94.1328 9.44678C93.683 9.44678 93.248 9.52332 92.8285 9.67628C92.4248 9.82929 92.0599 10.0588 91.7342 10.3648C91.4234 10.6708 91.1672 11.0609 90.9651 11.5352C90.7789 12.0096 90.6855 12.5757 90.6855 13.2335V13.6926C90.6855 14.4117 90.7789 15.0237 90.9651 15.5286C91.1672 16.0335 91.4234 16.4466 91.7342 16.7679C92.0599 17.0892 92.4248 17.3263 92.8285 17.4794C93.248 17.6324 93.683 17.7088 94.1328 17.7088Z" fill="white"/>
</g>
<defs>
<clipPath id="clip0_196_602">
<rect width="100.2" height="22.2" fill="white" transform="translate(0.601562 0.605042)"/>
</clipPath>
</defs>
</svg>
