<svg width="100" height="16" viewBox="0 0 100 16" fill="none" xmlns="http://www.w3.org/2000/svg">
<g clip-path="url(#clip0_196_586)">
<path fill-rule="evenodd" clip-rule="evenodd" d="M95.391 11.916V8.69304H93.9067V8.81274C93.8806 10.1207 93.6636 11.0611 93.3945 11.916H95.391ZM98.0298 11.916H99.0106L98.95 15.4978H96.5194V14.0018H92.5439L92.5005 15.4978H90.0527V11.916H90.9033C91.3287 10.7106 91.5368 9.53942 91.5368 6.9918V6.63284H98.0298V11.916ZM48.7521 6.17972C46.9726 6.17972 46.1306 5.43596 45.9222 4.14507L47.9273 3.86304C48.023 4.35031 48.2659 4.65804 48.7521 4.65804C49.2382 4.65804 49.4812 4.35031 49.5766 3.86304L51.5818 4.14507C51.3736 5.43596 50.5228 6.17972 48.7521 6.17972ZM39.7332 11.9672C40.6881 11.9672 41.2957 11.2312 41.2957 10.3258C41.2957 9.43757 40.6273 8.68445 39.7071 8.68445C38.7524 8.68445 38.1449 9.42064 38.1449 10.3258C38.1449 11.2143 38.8045 11.9672 39.7332 11.9672ZM39.7332 6.47039C42.1202 6.47039 43.8477 8.20579 43.8477 10.3258C43.8477 12.4203 42.1115 14.1813 39.7071 14.1813C37.3114 14.1813 35.584 12.446 35.584 10.3258C35.584 8.23148 37.3289 6.47039 39.7332 6.47039ZM84.992 12.0015C85.834 12.0015 86.511 11.3089 86.511 10.3088C86.511 9.33428 85.834 8.63329 84.992 8.63329C84.1327 8.63329 83.4556 9.31705 83.4556 10.3344C83.4556 11.3089 84.1327 12.0015 84.992 12.0015ZM86.4591 6.63279H89.0805V14.0018H86.4591V13.0188C85.9468 13.6342 85.3132 14.1643 84.1935 14.1643C82.4053 14.1643 80.869 12.7109 80.869 10.3259C80.869 7.9323 82.4053 6.47032 84.1762 6.47032C85.3132 6.47032 85.9729 6.97482 86.4591 7.53042V6.63279ZM47.4934 10.343L49.9933 6.63279H52.4152V14.0018H49.8716V11.5996C49.8716 11.138 49.8716 10.7106 49.8804 10.2916L47.3806 14.0018H44.9587V6.63279H47.5021V9.00086C47.5021 9.36844 47.5021 9.89849 47.4934 10.343ZM73.3432 8.05188L73.3605 6.63282H79.8013V14.0018H77.1712V8.69302H75.6608V8.92396C75.5827 13.3778 74.5758 14.0958 72.9873 14.0958C72.7356 14.0958 72.2407 14.0531 71.9109 14.0018H68.7947L66.7289 10.8558V14.0018H64.1074V6.63282H66.7289V9.47094L68.734 6.63282H71.7632L69.0899 9.98391L71.8327 13.9163L71.9543 11.6508C72.2407 11.6852 72.3102 11.6852 72.3796 11.6852C72.8484 11.6852 73.3344 11.3517 73.3432 8.05188ZM59.2552 11.6937C60.1754 11.6937 60.809 11.3004 61.3383 10.5482L63.361 12.0014C62.3974 13.2837 61.1821 14.1813 59.0641 14.1813C56.2517 14.1813 54.0992 12.1211 54.0992 9.21453C54.0992 6.50458 56.2345 4.27344 59.1944 4.27344C61.0259 4.27344 62.3625 5.05983 63.3088 6.39349L61.321 7.82102C60.7915 7.09448 60.1579 6.75245 59.3158 6.75245C57.9011 6.75245 56.9202 7.84671 56.9202 9.21453C56.9202 10.7191 57.9444 11.6937 59.2552 11.6937ZM31.4696 4.43583H33.197L35.0546 14.0018H32.4245L31.5738 9.33415L29.2041 14.3182H28.9003L26.5219 9.37707L25.6713 14.0018H23.0586L24.9161 4.43583H26.6347C26.6347 4.43583 28.1277 7.59875 28.423 8.20573C28.7181 8.81271 29.0565 9.59063 29.0565 9.59063C29.0565 9.59063 29.4905 8.59053 29.7075 8.16311C29.9247 7.73568 31.4696 4.43583 31.4696 4.43583Z" fill="white"/>
<path fill-rule="evenodd" clip-rule="evenodd" d="M2.85156 14.7834C5.21972 14.7834 7.01017 11.7469 8.61528 8.43172C9.38782 6.82449 10.1082 5.14048 10.8286 3.71281C11.6197 2.1292 12.4311 1.01147 13.424 1.01147C14.2656 1.01147 15.0576 1.68083 15.8458 2.72964C17.48 4.90717 18.8926 8.59479 18.8926 11.0134C18.8926 13.0394 17.8337 14.7834 15.6635 14.7834H2.85156Z" fill="white"/>
<path fill-rule="evenodd" clip-rule="evenodd" d="M8.61244 8.43072C6.98588 5.2012 6.24943 2.83167 4.81075 2.83167C3.91672 2.83167 2.9099 3.75492 1.99853 5.26788C1.02218 6.87336 0.253906 9.13879 0.253906 11.5765C0.253906 13.5014 1.21051 14.782 2.84913 14.782C5.21652 14.782 7.00744 11.7456 8.61244 8.43072Z" fill="white"/>
</g>
<defs>
<clipPath id="clip0_196_586">
<rect width="99" height="15" fill="white" transform="translate(0.207031 0.605225)"/>
</clipPath>
</defs>
</svg>
