<svg width="32" height="32" viewBox="0 0 32 32" fill="none" xmlns="http://www.w3.org/2000/svg">
<path d="M4 13.889C4 9.62551 4 7.49379 4.50335 6.77663C5.00671 6.05947 7.0111 5.37336 11.0199 4.00114L11.7836 3.7397C13.8733 3.0244 14.9181 2.66675 16 2.66675C17.0819 2.66675 18.1267 3.0244 20.2164 3.7397L20.9801 4.00114C24.9889 5.37336 26.9933 6.05947 27.4966 6.77663C28 7.49379 28 9.62551 28 13.889C28 14.5329 28 15.2313 28 15.9886C28 23.506 22.348 27.1541 18.8019 28.7031C17.84 29.1233 17.359 29.3334 16 29.3334C14.641 29.3334 14.16 29.1233 13.1981 28.7031C9.65195 27.1541 4 23.506 4 15.9886C4 15.2313 4 14.5329 4 13.889Z" stroke="white" stroke-width="2"/>
<path d="M12.668 16.5333L14.5727 18.6666L19.3346 13.3333" stroke="white" stroke-width="2" stroke-linecap="round" stroke-linejoin="round"/>
</svg>
