<svg width="32" height="32" viewBox="0 0 32 32" fill="none" xmlns="http://www.w3.org/2000/svg">
<path d="M8.38225 24.0001C5.22634 24.0001 2.66797 21.4718 2.66797 18.353C2.66797 15.2342 5.22634 12.706 8.38225 12.706C8.76108 12.706 9.1313 12.7424 9.48951 12.8119M19.1759 9.3697C19.9703 9.09223 20.8251 8.94126 21.7156 8.94126C22.5885 8.94126 23.4271 9.08632 24.2081 9.35338M9.48951 12.8119C9.18405 11.9971 9.01717 11.1159 9.01717 10.1962C9.01717 6.03778 12.4283 2.66675 16.6362 2.66675C20.5558 2.66675 23.7841 5.59169 24.2081 9.35338M9.48951 12.8119C10.2421 12.9579 10.9417 13.25 11.5569 13.6569M24.2081 9.35338C27.1919 10.3737 29.3346 13.1749 29.3346 16.4707C29.3346 20.08 26.7648 23.0962 23.3346 23.8297" stroke="white" stroke-width="2" stroke-linecap="round"/>
<path d="M11.332 22.6667C11.332 20.7811 11.332 19.8383 11.9178 19.2525C12.5036 18.6667 13.4464 18.6667 15.332 18.6667H16.6654C18.551 18.6667 19.4938 18.6667 20.0796 19.2525C20.6654 19.8383 20.6654 20.7811 20.6654 22.6667V25.3334C20.6654 27.219 20.6654 28.1618 20.0796 28.7476C19.4938 29.3334 18.551 29.3334 16.6654 29.3334H15.332C13.4464 29.3334 12.5036 29.3334 11.9178 28.7476C11.332 28.1618 11.332 27.219 11.332 25.3334V22.6667Z" stroke="white" stroke-width="2"/>
<path d="M14.668 24H17.3346" stroke="white" stroke-width="2" stroke-linecap="round" stroke-linejoin="round"/>
</svg>
