<svg width="32" height="32" viewBox="0 0 32 32" fill="none" xmlns="http://www.w3.org/2000/svg">
<path d="M4 16C4 21.0283 4 26.2091 5.75736 27.7712C7.51472 29.3333 10.3431 29.3333 16 29.3333C21.6569 29.3333 24.4853 29.3333 26.2426 27.7712C28 26.2091 28 21.0283 28 16" stroke="white" stroke-width="2"/>
<path d="M19.5484 18.936L27.5581 16.533C28.3521 16.2948 28.7491 16.1757 29.001 15.8903C29.0501 15.8347 29.0944 15.7751 29.1336 15.7121C29.3346 15.3888 29.3346 14.9743 29.3346 14.1453C29.3346 10.8784 29.3346 9.24501 28.4373 8.14221C28.2649 7.93025 28.0711 7.73652 27.8592 7.56406C26.7564 6.66675 25.1229 6.66675 21.8561 6.66675H10.1465C6.87967 6.66675 5.24623 6.66675 4.14343 7.56406C3.93147 7.73652 3.73774 7.93025 3.56528 8.14221C2.66797 9.24501 2.66797 10.8784 2.66797 14.1453C2.66797 14.9743 2.66797 15.3888 2.869 15.7121C2.90817 15.7751 2.95251 15.8347 3.00159 15.8903C3.2535 16.1757 3.6505 16.2948 4.44451 16.533L12.4542 18.936" stroke="white" stroke-width="2"/>
<path d="M8.66797 6.66675C9.76589 6.63892 10.8803 5.93996 11.2539 4.90717C11.2654 4.87541 11.2772 4.84006 11.3007 4.76938L11.3349 4.66675C11.3912 4.49801 11.4193 4.4136 11.4494 4.33875C11.8337 3.38291 12.7341 2.7339 13.7624 2.67163C13.843 2.66675 13.9319 2.66675 14.1098 2.66675H17.8934C18.0713 2.66675 18.1603 2.66675 18.2408 2.67163C19.2691 2.7339 20.1695 3.38291 20.5538 4.33875C20.5839 4.4136 20.612 4.49799 20.6683 4.66675L20.7025 4.76938C20.7259 4.83965 20.7379 4.8755 20.7493 4.90717C21.1229 5.93996 22.2367 6.63892 23.3346 6.66675" stroke="white" stroke-width="2"/>
<path d="M18.668 16.6667H13.3346C12.9664 16.6667 12.668 16.9652 12.668 17.3334V20.2154C12.668 20.488 12.8339 20.7331 13.087 20.8344L14.0206 21.2078C15.2921 21.7164 16.7105 21.7164 17.9821 21.2078L18.9156 20.8344C19.1687 20.7331 19.3346 20.488 19.3346 20.2154V17.3334C19.3346 16.9652 19.0362 16.6667 18.668 16.6667Z" stroke="white" stroke-width="2" stroke-linecap="round"/>
</svg>
