<svg width="33" height="32" viewBox="0 0 33 32" fill="none" xmlns="http://www.w3.org/2000/svg">
<path fill-rule="evenodd" clip-rule="evenodd" d="M31.5805 31.5659H19.4922C18.8022 31.5659 18.2422 31.0059 18.2422 30.3159C18.2422 29.6259 18.8022 29.0659 19.4922 29.0659H31.5805C32.2705 29.0659 32.8305 29.6259 32.8305 30.3159C32.8305 31.0059 32.2705 31.5659 31.5805 31.5659Z" fill="white"/>
<mask id="mask0_832_1160" style="mask-type:luminance" maskUnits="userSpaceOnUse" x="0" y="0" width="29" height="32">
<path fill-rule="evenodd" clip-rule="evenodd" d="M0.328125 0H28.9624V31.5659H0.328125V0Z" fill="white"/>
</mask>
<g mask="url(#mask0_832_1160)">
<path fill-rule="evenodd" clip-rule="evenodd" d="M18.8446 3.36102L3.15298 22.986C2.86798 23.3427 2.76298 23.8027 2.86798 24.2444L4.00298 29.0527L9.06798 28.9894C9.54965 28.9844 9.99465 28.7694 10.2896 28.4027C15.6513 21.6944 25.873 8.90435 26.163 8.52935C26.4363 8.08602 26.543 7.45935 26.3996 6.85602C26.253 6.23769 25.868 5.71269 25.313 5.37769C25.1946 5.29602 22.3863 3.11602 22.2996 3.04768C21.243 2.20102 19.7013 2.34768 18.8446 3.36102ZM3.01692 31.5661C2.43858 31.5661 1.93525 31.1694 1.80025 30.6044L0.435249 24.8194C0.153582 23.6211 0.433582 22.3844 1.20192 21.4244L16.9019 1.78774C16.9086 1.78107 16.9136 1.77274 16.9202 1.76607C18.6419 -0.292262 21.7552 -0.595596 23.8552 1.0894C23.9386 1.1544 26.7269 3.32107 26.7269 3.32107C27.7402 3.9244 28.5319 5.00274 28.8319 6.2794C29.1302 7.54274 28.9136 8.84607 28.2186 9.94774C28.1669 10.0294 28.1219 10.0994 12.2419 29.9661C11.4769 30.9194 10.3302 31.4744 9.09858 31.4894L3.03358 31.5661H3.01692Z" fill="white"/>
</g>
<path fill-rule="evenodd" clip-rule="evenodd" d="M24.0319 14.4745C23.7652 14.4745 23.4985 14.3895 23.2702 14.2161L14.1835 7.23612C13.6369 6.81612 13.5335 6.03279 13.9535 5.48279C14.3752 4.93612 15.1585 4.83445 15.7069 5.25445L24.7952 12.2328C25.3419 12.6528 25.4452 13.4378 25.0235 13.9861C24.7785 14.3061 24.4069 14.4745 24.0319 14.4745Z" fill="white"/>
</svg>
