<svg width="40" height="40" viewBox="0 0 40 40" fill="none" xmlns="http://www.w3.org/2000/svg">
<path fill-rule="evenodd" clip-rule="evenodd" d="M34.5844 36.5659H22.4961C21.8061 36.5659 21.2461 36.0059 21.2461 35.3159C21.2461 34.6259 21.8061 34.0659 22.4961 34.0659H34.5844C35.2744 34.0659 35.8344 34.6259 35.8344 35.3159C35.8344 36.0059 35.2744 36.5659 34.5844 36.5659Z" fill="white"/>
<mask id="mask0_566_16" style="mask-type:luminance" maskUnits="userSpaceOnUse" x="3" y="5" width="29" height="32">
<path fill-rule="evenodd" clip-rule="evenodd" d="M3.33203 5H31.9663V36.5659H3.33203V5Z" fill="white"/>
</mask>
<g mask="url(#mask0_566_16)">
<path fill-rule="evenodd" clip-rule="evenodd" d="M21.8486 8.36102L6.15689 27.986C5.87189 28.3427 5.76689 28.8027 5.87189 29.2444L7.00689 34.0527L12.0719 33.9894C12.5536 33.9844 12.9986 33.7694 13.2936 33.4027C18.6552 26.6944 28.8769 13.9044 29.1669 13.5294C29.4402 13.086 29.5469 12.4594 29.4036 11.856C29.2569 11.2377 28.8719 10.7127 28.3169 10.3777C28.1986 10.296 25.3902 8.11602 25.3036 8.04768C24.2469 7.20102 22.7052 7.34768 21.8486 8.36102ZM6.02082 36.5661C5.44249 36.5661 4.93916 36.1694 4.80416 35.6044L3.43916 29.8194C3.15749 28.6211 3.43749 27.3844 4.20582 26.4244L19.9058 6.78774C19.9125 6.78107 19.9175 6.77274 19.9242 6.76607C21.6458 4.70774 24.7592 4.4044 26.8592 6.0894C26.9425 6.1544 29.7308 8.32107 29.7308 8.32107C30.7442 8.9244 31.5358 10.0027 31.8358 11.2794C32.1342 12.5427 31.9175 13.8461 31.2225 14.9477C31.1708 15.0294 31.1258 15.0994 15.2458 34.9661C14.4808 35.9194 13.3342 36.4744 12.1025 36.4894L6.03749 36.5661H6.02082Z" fill="white"/>
</g>
<path fill-rule="evenodd" clip-rule="evenodd" d="M27.0358 19.4745C26.7691 19.4745 26.5024 19.3895 26.2741 19.2161L17.1874 12.2361C16.6408 11.8161 16.5374 11.0328 16.9574 10.4828C17.3791 9.93612 18.1624 9.83445 18.7108 10.2545L27.7991 17.2328C28.3458 17.6528 28.4491 18.4378 28.0274 18.9861C27.7824 19.3061 27.4108 19.4745 27.0358 19.4745Z" fill="white"/>
</svg>
