<svg width="33" height="32" viewBox="0 0 33 32" fill="none" xmlns="http://www.w3.org/2000/svg">
<path fill-rule="evenodd" clip-rule="evenodd" d="M31.5844 31.5662H19.4961C18.8061 31.5662 18.2461 31.0062 18.2461 30.3162C18.2461 29.6262 18.8061 29.0662 19.4961 29.0662H31.5844C32.2744 29.0662 32.8344 29.6262 32.8344 30.3162C32.8344 31.0062 32.2744 31.5662 31.5844 31.5662Z" fill="white"/>
<mask id="mask0_593_241" style="mask-type:luminance" maskUnits="userSpaceOnUse" x="0" y="0" width="29" height="32">
<path fill-rule="evenodd" clip-rule="evenodd" d="M0.332031 0.000244141H28.9663V31.5661H0.332031V0.000244141Z" fill="white"/>
</mask>
<g mask="url(#mask0_593_241)">
<path fill-rule="evenodd" clip-rule="evenodd" d="M18.8486 3.36126L3.15689 22.9863C2.87189 23.3429 2.76689 23.8029 2.87189 24.2446L4.00689 29.0529L9.07189 28.9896C9.55355 28.9846 9.99855 28.7696 10.2936 28.4029C15.6552 21.6946 25.8769 8.9046 26.1669 8.5296C26.4402 8.08626 26.5469 7.4596 26.4036 6.85626C26.2569 6.23793 25.8719 5.71293 25.3169 5.37793C25.1986 5.29626 22.3902 3.11626 22.3036 3.04793C21.2469 2.20126 19.7052 2.34793 18.8486 3.36126ZM3.02082 31.5663C2.44249 31.5663 1.93916 31.1696 1.80416 30.6046L0.439155 24.8196C0.157488 23.6213 0.437488 22.3846 1.20582 21.4246L16.9058 1.78798C16.9125 1.78132 16.9175 1.77298 16.9242 1.76632C18.6458 -0.292018 21.7592 -0.595351 23.8592 1.08965C23.9425 1.15465 26.7308 3.32132 26.7308 3.32132C27.7442 3.92465 28.5358 5.00298 28.8358 6.27965C29.1342 7.54298 28.9175 8.84632 28.2225 9.94798C28.1708 10.0296 28.1258 10.0996 12.2458 29.9663C11.4808 30.9196 10.3342 31.4746 9.10249 31.4896L3.03749 31.5663H3.02082Z" fill="white"/>
</g>
<path fill-rule="evenodd" clip-rule="evenodd" d="M24.0358 14.4747C23.7691 14.4747 23.5024 14.3897 23.2741 14.2164L14.1874 7.23636C13.6408 6.81636 13.5374 6.03303 13.9574 5.48303C14.3791 4.93636 15.1624 4.8347 15.7108 5.2547L24.7991 12.233C25.3458 12.653 25.4491 13.438 25.0274 13.9864C24.7824 14.3064 24.4108 14.4747 24.0358 14.4747Z" fill="white"/>
</svg>
