<svg width="25" height="25" viewBox="0 0 25 25" fill="none" xmlns="http://www.w3.org/2000/svg">
<mask id="path-1-inside-1_263_3386" fill="white">
<path d="M0.5 10.25C0.5 8.59315 1.84315 7.25 3.50001 7.25H9.50002C11.1569 7.25 12.5 8.59315 12.5 10.25V12.5C12.5 12.9142 12.1642 13.25 11.75 13.25H1.25C0.835787 13.25 0.5 12.9142 0.5 12.5V10.25Z"/>
</mask>
<path d="M0.5 10.25C0.5 8.59315 1.84315 7.25 3.50001 7.25H9.50002C11.1569 7.25 12.5 8.59315 12.5 10.25V12.5C12.5 12.9142 12.1642 13.25 11.75 13.25H1.25C0.835787 13.25 0.5 12.9142 0.5 12.5V10.25Z" stroke="white" stroke-width="3.00001" mask="url(#path-1-inside-1_263_3386)"/>
<mask id="path-2-inside-2_263_3386" fill="white">
<path d="M12.5 21.5C12.5 19.8431 13.8431 18.5 15.5 18.5H21.5C23.1569 18.5 24.5 19.8431 24.5 21.5V23.75C24.5 24.1642 24.1642 24.5 23.75 24.5H13.25C12.8358 24.5 12.5 24.1642 12.5 23.75V21.5Z"/>
</mask>
<path d="M12.5 21.5C12.5 19.8431 13.8431 18.5 15.5 18.5H21.5C23.1569 18.5 24.5 19.8431 24.5 21.5V23.75C24.5 24.1642 24.1642 24.5 23.75 24.5H13.25C12.8358 24.5 12.5 24.1642 12.5 23.75V21.5Z" stroke="white" stroke-width="3.00001" mask="url(#path-2-inside-2_263_3386)"/>
<circle cx="6.50001" cy="3.50001" r="2.25001" stroke="white" stroke-width="1.5"/>
<circle cx="18.5" cy="14.75" r="2.25001" stroke="white" stroke-width="1.5"/>
</svg>
