<svg width="25" height="25" viewBox="0 0 25 25" fill="none" xmlns="http://www.w3.org/2000/svg">
<path d="M2.0874 12.5002C2.0874 7.5897 2.0874 5.13447 3.61289 3.60898C5.13837 2.0835 7.59361 2.0835 12.5041 2.0835C17.4145 2.0835 19.8698 2.0835 21.3952 3.60898C22.9207 5.13447 22.9207 7.5897 22.9207 12.5002C22.9207 17.4106 22.9207 19.8659 21.3952 21.3913C19.8698 22.9168 17.4145 22.9168 12.5041 22.9168C7.59361 22.9168 5.13837 22.9168 3.61289 21.3913C2.0874 19.8659 2.0874 17.4106 2.0874 12.5002Z" stroke="white" stroke-width="2"/>
<path d="M6.25 16.4583L7.44048 17.7083L10.4167 14.5833" stroke="white" stroke-width="2" stroke-linecap="round" stroke-linejoin="round"/>
<path d="M6.25 9.16675L7.44048 10.4167L10.4167 7.29175" stroke="white" stroke-width="2" stroke-linecap="round" stroke-linejoin="round"/>
<path d="M13.5376 9.375L18.7459 9.375" stroke="white" stroke-width="2" stroke-linecap="round"/>
<path d="M13.5376 16.6665H18.7459" stroke="white" stroke-width="2" stroke-linecap="round"/>
</svg>
