<svg width="90" height="17" viewBox="0 0 90 17" fill="none" xmlns="http://www.w3.org/2000/svg">
<g clip-path="url(#clip0_196_612)">
<path d="M18.791 13.7659C19.7708 13.7659 20.5779 13.399 21.0893 12.8653C21.1503 12.8042 21.2294 12.7651 21.3144 12.7538C21.3994 12.7426 21.4858 12.7599 21.5602 12.803L23.3431 13.8401C23.3763 13.8589 23.405 13.8849 23.4273 13.9161C23.4496 13.9473 23.4649 13.9831 23.4721 14.021C23.4793 14.0588 23.4783 14.0978 23.4692 14.1352C23.46 14.1725 23.4428 14.2075 23.419 14.2375C22.3725 15.6163 20.7662 16.4004 18.7492 16.4004C15.0134 16.4004 12.6562 13.811 12.6562 10.456C12.6562 7.10097 15.0356 4.51154 18.5294 4.51154C21.8205 4.51154 24.1541 7.146 24.1541 10.456C24.1534 10.7797 24.1285 11.1029 24.0795 11.4229C24.0704 11.4863 24.0388 11.5442 23.9907 11.5858C23.9426 11.6275 23.8812 11.65 23.8179 11.6494H15.8388C15.8176 11.6492 15.7968 11.6541 15.778 11.6639C15.7592 11.6736 15.743 11.6878 15.7308 11.7052C15.7186 11.7226 15.7107 11.7428 15.7079 11.764C15.705 11.7852 15.7073 11.8067 15.7145 11.8268C16.1579 13.1858 17.343 13.7659 18.791 13.7659ZM21.1142 9.39503C21.1343 9.39563 21.1544 9.3915 21.1727 9.38295C21.191 9.37441 21.2072 9.36169 21.2198 9.34578C21.2325 9.32988 21.2414 9.31122 21.2457 9.29127C21.2501 9.27133 21.2498 9.25062 21.245 9.23079C20.8526 7.73011 19.6871 7.12084 18.5268 7.12084C17.0526 7.12084 16.0297 7.89038 15.6556 9.22947C15.6505 9.24939 15.6501 9.27024 15.6544 9.29036C15.6586 9.31048 15.6674 9.32932 15.6801 9.34539C15.6928 9.36146 15.709 9.37431 15.7275 9.38293C15.7459 9.39154 15.7661 9.39569 15.7864 9.39503H21.1142Z" fill="white"/>
<path d="M29.0067 7.61571V12.5168C29.0067 13.6639 29.7772 13.7487 31.2449 13.6798C31.2804 13.678 31.3158 13.6835 31.3491 13.696C31.3823 13.7085 31.4127 13.7278 31.4384 13.7525C31.4641 13.7773 31.4846 13.8071 31.4985 13.8402C31.5125 13.8732 31.5197 13.9088 31.5196 13.9447V16.0641C31.5199 16.13 31.496 16.1937 31.4525 16.2426C31.4089 16.2916 31.3489 16.3224 31.2842 16.329C27.4408 16.7065 26.1379 15.5011 26.1379 12.5208V7.61571H24.4648C24.3954 7.61571 24.3288 7.5878 24.2798 7.53812C24.2307 7.48844 24.2031 7.42105 24.2031 7.35079V5.09895C24.2031 5.02869 24.2307 4.96131 24.2798 4.91162C24.3288 4.86194 24.3954 4.83403 24.4648 4.83403H26.1379V2.84711C26.1379 2.76186 26.165 2.67889 26.2152 2.61043C26.2654 2.54197 26.3359 2.49167 26.4165 2.46695L28.6692 1.77683C28.7082 1.76484 28.7495 1.76228 28.7897 1.76933C28.8299 1.77638 28.8679 1.79286 28.9007 1.81744C28.9335 1.84202 28.9602 1.87403 28.9786 1.91091C28.997 1.94779 29.0066 1.98851 29.0067 2.02983V4.83403H31.258C31.3274 4.83403 31.3939 4.86194 31.443 4.91162C31.4921 4.96131 31.5196 5.02869 31.5196 5.09895V7.35079C31.5196 7.42105 31.4921 7.48844 31.443 7.53812C31.3939 7.5878 31.3274 7.61571 31.258 7.61571H29.0067Z" fill="white"/>
<path d="M43.4632 5.0983V15.8269C43.4632 15.8971 43.4356 15.9645 43.3866 16.0142C43.3375 16.0639 43.271 16.0918 43.2016 16.0918H40.8562C40.7869 16.0918 40.7203 16.0639 40.6713 16.0142C40.6222 15.9645 40.5946 15.8971 40.5946 15.8269V14.7673C39.7941 15.7805 38.5933 16.411 36.97 16.411C34.0125 16.411 31.5664 13.8216 31.5664 10.4666C31.5664 7.11156 34.0125 4.51154 36.9726 4.51154C38.5959 4.51154 39.7967 5.14201 40.5972 6.15526V5.0983C40.5972 5.02804 40.6248 4.96066 40.6739 4.91098C40.7229 4.8613 40.7895 4.83339 40.8589 4.83339H43.2042C43.2731 4.83409 43.339 4.86231 43.3875 4.91191C43.436 4.96152 43.4632 5.0285 43.4632 5.0983ZM40.5946 10.4626C40.5946 8.57118 39.2866 7.28375 37.5037 7.28375C35.747 7.28375 34.435 8.56721 34.435 10.4626C34.435 12.358 35.743 13.6414 37.5037 13.6414C39.2826 13.6308 40.5946 12.3474 40.5946 10.456V10.4626Z" fill="white"/>
<path d="M44.4616 2.0264C44.4551 1.7837 44.4967 1.54215 44.584 1.316C44.6712 1.08986 44.8024 0.883711 44.9696 0.709732C45.1368 0.535752 45.3368 0.397468 45.5577 0.303044C45.7786 0.208621 46.0159 0.159973 46.2557 0.159973C46.4955 0.159973 46.7328 0.208621 46.9537 0.303044C47.1746 0.397468 47.3746 0.535752 47.5418 0.709732C47.7091 0.883711 47.8402 1.08986 47.9275 1.316C48.0147 1.54215 48.0563 1.7837 48.0499 2.0264C48.0372 2.49973 47.8427 2.94938 47.5076 3.27964C47.1725 3.60991 46.7233 3.79471 46.2557 3.79471C45.7881 3.79471 45.339 3.60991 45.0039 3.27964C44.6688 2.94938 44.4742 2.49973 44.4616 2.0264ZM45.083 4.83458H47.4298C47.4992 4.83458 47.5657 4.86249 47.6148 4.91217C47.6639 4.96185 47.6914 5.02924 47.6914 5.0995V15.8289C47.6914 15.8991 47.6639 15.9665 47.6148 16.0162C47.5657 16.0659 47.4992 16.0938 47.4298 16.0938H45.083C45.0136 16.0938 44.947 16.0659 44.898 16.0162C44.8489 15.9665 44.8213 15.8991 44.8213 15.8289V5.0995C44.8213 5.02924 44.8489 4.96185 44.898 4.91217C44.947 4.86249 45.0136 4.83458 45.083 4.83458Z" fill="white"/>
<path d="M49.2851 0.199036H51.6293C51.6973 0.199005 51.7627 0.225822 51.8116 0.273799C51.8604 0.321775 51.8889 0.387135 51.8909 0.45601V15.8294C51.8889 15.8983 51.8604 15.9637 51.8116 16.0117C51.7627 16.0596 51.6973 16.0865 51.6293 16.0864H49.2851C49.217 16.0865 49.1516 16.0596 49.1028 16.0117C49.0539 15.9637 49.0255 15.8983 49.0234 15.8294V0.45601C49.0255 0.387135 49.0539 0.321775 49.1028 0.273799C49.1516 0.225822 49.217 0.199005 49.2851 0.199036Z" fill="white"/>
<path d="M53.2227 10.456C53.2227 7.10097 55.708 4.51154 59.0932 4.51154C61.1717 4.51154 62.9886 5.57115 63.9422 7.18044C63.9605 7.21057 63.9727 7.24412 63.9781 7.2791C63.9834 7.31409 63.9817 7.3498 63.9732 7.38412C63.9647 7.41844 63.9494 7.45069 63.9284 7.47895C63.9073 7.50721 63.8809 7.53091 63.8506 7.54865L61.9435 8.67449C61.8578 8.72569 61.756 8.74199 61.6589 8.7201C61.5618 8.69822 61.4765 8.63978 61.4203 8.55661C60.9245 7.82018 60.0651 7.36455 59.0658 7.36455C57.3535 7.36455 56.086 8.648 56.086 10.4493C56.086 12.2282 57.3535 13.5116 59.0658 13.5116C60.0847 13.5116 60.9481 13.0745 61.4425 12.3394C61.4983 12.2578 61.5823 12.2002 61.678 12.1782C61.7736 12.1561 61.8739 12.1711 61.9592 12.2202L63.8833 13.3341C63.9141 13.3519 63.941 13.3758 63.9624 13.4043C63.9838 13.4329 63.9993 13.4656 64.0079 13.5004C64.0164 13.5352 64.0179 13.5714 64.0123 13.6068C64.0066 13.6422 63.9939 13.6761 63.9749 13.7063C63.454 14.5393 62.7315 15.2235 61.876 15.6941C61.0204 16.1647 60.0603 16.406 59.0867 16.3951C55.7132 16.4004 53.2227 13.811 53.2227 10.456Z" fill="white"/>
<path d="M71.5689 4.87973V7.56055C71.569 7.5966 71.5618 7.63228 71.5477 7.66541C71.5337 7.69853 71.5131 7.72841 71.4873 7.75321C71.4614 7.77801 71.4309 7.79721 71.3975 7.80963C71.364 7.82205 71.3285 7.82744 71.2929 7.82545C69.854 7.75658 68.1889 8.48771 68.1889 10.7076V15.8308C68.1889 15.9011 68.1613 15.9685 68.1123 16.0182C68.0632 16.0678 67.9967 16.0957 67.9273 16.0957H65.5819C65.5125 16.0957 65.446 16.0678 65.3969 16.0182C65.3479 15.9685 65.3203 15.9011 65.3203 15.8308V5.10225C65.3203 5.03199 65.3479 4.96461 65.3969 4.91493C65.446 4.86525 65.5125 4.83734 65.5819 4.83734H67.9273C67.9967 4.83734 68.0632 4.86525 68.1123 4.91493C68.1613 4.96461 68.1889 5.03199 68.1889 5.10225V6.76716C68.7291 5.33669 69.9875 4.69297 71.2929 4.6135C71.3286 4.61151 71.3643 4.61693 71.3978 4.62944C71.4313 4.64194 71.4619 4.66125 71.4877 4.6862C71.5136 4.71114 71.5341 4.74118 71.5481 4.77446C71.5621 4.80774 71.5691 4.84357 71.5689 4.87973Z" fill="white"/>
<path d="M89.4073 9.15285V15.8302C89.4073 15.9005 89.3797 15.9679 89.3307 16.0175C89.2816 16.0672 89.215 16.0951 89.1457 16.0951H86.8001C86.7308 16.0951 86.6642 16.0672 86.6151 16.0175C86.5661 15.9679 86.5385 15.9005 86.5385 15.8302V9.35552C86.5385 8.03091 85.8713 7.21627 84.6705 7.21627C83.4029 7.21627 82.6023 8.07197 82.6023 9.76085V15.8302C82.6023 15.9005 82.5747 15.9679 82.5256 16.0175C82.4766 16.0672 82.41 16.0951 82.3406 16.0951H79.9951C79.9257 16.0951 79.8592 16.0672 79.8101 16.0175C79.7611 15.9679 79.7335 15.9005 79.7335 15.8302V9.35552C79.7335 8.03091 79.0663 7.21627 77.8655 7.21627C76.6423 7.21627 75.7724 8.07197 75.7724 9.76085V15.8302C75.7724 15.9005 75.7448 15.9679 75.6958 16.0175C75.6467 16.0672 75.5802 16.0951 75.5108 16.0951H73.1679C73.0985 16.0951 73.0319 16.0672 72.9829 16.0175C72.9338 15.9679 72.9062 15.9005 72.9062 15.8302V5.10086C72.9062 5.0306 72.9338 4.96322 72.9829 4.91354C73.0319 4.86385 73.0985 4.83594 73.1679 4.83594H75.5134C75.5828 4.83594 75.6493 4.86385 75.6984 4.91354C75.7475 4.96322 75.775 5.0306 75.775 5.10086V6.02809C76.3977 5.08232 77.4429 4.51936 78.8662 4.51936C80.245 4.51936 81.268 5.10484 81.8906 6.14068C82.58 5.12736 83.692 4.51936 85.2042 4.51936C87.7394 4.51406 89.4073 6.33805 89.4073 9.15285Z" fill="white"/>
<path d="M12.1282 4.492H2.64212C2.1016 4.49306 1.58358 4.71121 1.20175 5.0986C0.819917 5.48598 0.605468 6.01094 0.605469 6.55825L0.605469 16.1623C0.605469 16.2326 0.633031 16.3 0.682093 16.3496C0.731155 16.3993 0.797697 16.4272 0.867081 16.4272H3.23205C3.30144 16.4272 3.36798 16.3993 3.41704 16.3496C3.4661 16.3 3.49366 16.2326 3.49366 16.1623V10.9292C3.49337 10.3811 3.32518 9.84658 3.0123 9.39934L2.05349 8.02714L9.91755 15.9888C9.94189 16.0138 9.9709 16.0337 10.0029 16.0473C10.0349 16.0609 10.0693 16.0678 10.1039 16.0678C10.1386 16.0678 10.173 16.0609 10.205 16.0473C10.237 16.0337 10.266 16.0138 10.2903 15.9888L11.9594 14.2974C11.9841 14.2728 12.0038 14.2434 12.0172 14.211C12.0306 14.1786 12.0375 14.1438 12.0375 14.1087C12.0375 14.0735 12.0306 14.0388 12.0172 14.0064C12.0038 13.9739 11.9841 13.9446 11.9594 13.9199L4.10322 5.96619L5.44529 6.92912C5.88697 7.24594 6.41482 7.41624 6.9561 7.41654H12.1282C12.1975 7.41654 12.2641 7.38863 12.3132 7.33895C12.3622 7.28927 12.3898 7.22189 12.3898 7.15163V4.75691C12.3898 4.68665 12.3622 4.61927 12.3132 4.56959C12.2641 4.51991 12.1975 4.492 12.1282 4.492Z" fill="white"/>
<path d="M12.1229 0.199036H0.867081C0.722596 0.199036 0.605469 0.317637 0.605469 0.463939V2.87456C0.605469 3.02086 0.722596 3.13946 0.867081 3.13946H12.1229C12.2674 3.13946 12.3845 3.02086 12.3845 2.87456V0.463939C12.3845 0.317637 12.2674 0.199036 12.1229 0.199036Z" fill="white"/>
</g>
<defs>
<clipPath id="clip0_196_612">
<rect width="88.8" height="16.2" fill="white" transform="translate(0.605469 0.199036)"/>
</clipPath>
</defs>
</svg>
