<svg xmlns="http://www.w3.org/2000/svg" xmlns:xlink="http://www.w3.org/1999/xlink"><defs>
<clipPath id="clip0_196_566">
<rect width="57.6" height="57.6" fill="white" transform="translate(0.203125 0.201447)"/>
</clipPath>

<clipPath id="clip0_196_546">
<rect width="95.4" height="17.4" fill="white" transform="translate(0.601562 0.605225)"/>
</clipPath>

<clipPath id="clip0_681_1648">
<rect width="32" height="25" fill="white" transform="translate(7 10)"/>
</clipPath>

<clipPath id="clip0_196_602">
<rect width="100.2" height="22.2" fill="white" transform="translate(0.601562 0.605042)"/>
</clipPath>

<clipPath id="clip0_196_586">
<rect width="99" height="15" fill="white" transform="translate(0.207031 0.605225)"/>
</clipPath>

<clipPath id="clip0_196_612">
<rect width="88.8" height="16.2" fill="white" transform="translate(0.605469 0.199036)"/>
</clipPath>
</defs><symbol id="1c" viewBox="0 0 58 58"><g fill="none">
<g clip-path="url(#clip0_196_566)">
<path d="M23.4444 57.4694C18.4063 56.4277 13.7052 54.104 10.0146 50.8311C0.539885 42.429 -2.38831 29.2298 2.61696 17.4854C3.84613 14.6013 5.84442 11.6743 8.32036 9.13144L10.5032 6.88962L10.6571 20.0109C10.8045 32.5704 10.8377 33.2031 11.4327 34.7857C12.6231 37.952 13.8992 39.9679 16.0961 42.1525C21.771 47.7955 30.0949 49.2038 37.171 45.7181C43.822 42.4418 48.0151 35.3179 47.5278 28.122C47.2005 23.2884 45.5725 19.7441 42.0577 16.2126C39.3999 13.5423 36.273 11.798 32.8687 11.0868C29.405 10.3632 29.5712 10.2574 29.5712 13.1848V15.712L31.4701 16.0613C38.8239 17.4143 43.6876 24.6246 42.1548 31.9014C41.6652 34.2255 40.5732 36.2778 38.8203 38.1682C36.1564 41.0412 32.4085 42.4144 29.136 42.4081C23.7248 42.3977 19.2064 39.3275 17.0165 34.7872C17.0165 34.7872 16.4428 33.4894 16.2584 32.6875C15.1742 27.9713 15.8672 18.0435 15.8672 18.0435L15.7833 3.52733L16.6415 3.08419C17.1136 2.84046 17.5663 2.64104 17.6476 2.64104C17.7288 2.64104 17.832 9.30832 17.8768 17.4572C17.8768 17.4572 16.8346 28.1393 18.1226 32.2328C18.3084 32.8234 18.6612 33.8336 18.6612 33.8336C19.7902 36.1303 21.5997 38.1506 23.9508 39.2626C25.7356 40.1067 26.6342 40.4887 29.2746 40.4887C30.9997 40.4887 32.528 39.9449 34.2866 39.1374C36.3596 38.1854 38.7376 35.6614 39.6164 33.3569C42.0376 27.0076 38.6663 20.1766 32.1715 18.2718C29.5171 17.4934 29.5712 17.4505 29.5712 20.3324V22.8498L30.8454 23.19C35.4381 24.4165 36.8395 30.5632 33.2341 33.7215C31.9602 34.8373 30.8124 35.3306 28.8045 35.3306C26.6589 35.3306 24.5994 34.0339 23.5407 32.0451C22.9047 30.8505 22.851 29.7173 22.851 29.1983C22.851 24.4042 22.747 15.7822 22.747 15.7822L22.6611 0.992427L23.3204 0.828905C23.6831 0.738966 25.1489 0.516423 26.5777 0.334363C31.4235 -0.28308 38.5926 1.30035 43.4089 4.05185C49.9751 7.8031 54.9436 14.2472 57.0123 21.6956C57.7238 24.2576 57.8031 25.0026 57.8031 29.124C57.8031 33.2271 57.722 33.9967 57.0255 36.5027C54.2119 46.626 47.0548 53.8627 36.8211 56.9319C34.6673 57.5778 33.6584 57.701 29.8579 57.7819C26.791 57.8472 24.8032 57.7504 23.4444 57.4694Z" fill="white"/>
</g>

</g></symbol><symbol id="accordion-arrow" viewBox="0 0 20 20"><g fill="none">
<path d="M10 4L10 16M10 16L15 11.5556M10 16L5 11.5556" stroke="black" stroke-width="2"/>
</g></symbol><symbol id="arrow-rotate" viewBox="0 0 50 30"><g fill="none">
<rect width="50" height="30" rx="15" fill="white"/>
<path d="M20.2574 18.7426L28.7426 10.2573M28.7426 10.2573L22.0644 9.86445M28.7426 10.2573L29.1355 16.9355" stroke="#2D69C3" stroke-width="2"/>
</g></symbol><symbol id="arrow" viewBox="0 0 14 13"><g fill="none">
<path d="M0 6.5H12M12 6.5L7.55556 1.5M12 6.5L7.55556 11.5" stroke="currentColor" stroke-width="2"/>
</g></symbol><symbol id="bitrix24" viewBox="0 0 96 18"><g fill="none">
<g clip-path="url(#clip0_196_546)">
<path d="M65.4219 13.2327H74.0323V11.2938H68.3573C69.14 8.11208 73.9345 7.41608 73.9345 3.88637C73.9345 1.99722 72.6625 0.605225 69.9717 0.605225C68.3083 0.605225 66.8406 1.10237 65.8622 1.59951L66.4493 3.38922C67.3299 2.9418 68.3573 2.54408 69.6293 2.54408C70.6077 2.54408 71.5373 2.99151 71.5373 4.13494C71.5373 6.72008 65.9111 6.91894 65.4219 13.2327ZM74.277 10.1504H79.8053V13.2327H82.0068V10.1504H83.8659V8.26122H82.0068V0.605225H80.3923L74.277 8.65894V10.1504ZM76.772 8.36065L79.9031 4.08522C79.9031 4.43322 79.8053 5.52694 79.8053 6.52122V8.31094H78.3376C77.8973 8.31094 77.0656 8.36065 76.772 8.36065Z" fill="white"/>
<path d="M2.90095 11.3446V7.41715H3.83049C4.66218 7.41715 5.3471 7.51658 5.83633 7.81486C6.32556 8.11315 6.6191 8.61029 6.6191 9.40572C6.6191 10.748 5.83633 11.3446 3.97726 11.3446H2.90095ZM0.650486 13.2337H3.92833C7.59756 13.2337 8.91849 11.5931 8.91849 9.30629C8.91849 7.76515 8.28249 6.72115 7.15726 6.12458C6.27664 5.62743 5.15141 5.47829 3.78156 5.47829H2.90095V2.49543H7.84218L8.42926 0.656006H0.601562V13.2337H0.650486ZM10.4351 13.2337H12.5877L15.3763 9.15715C15.9145 8.41143 16.3059 7.66572 16.5505 7.26801H16.5994C16.5505 7.81486 16.5016 8.51086 16.5016 9.20686V13.184H18.7031V4.23543H16.5505L13.7619 8.31201C13.2726 9.05772 12.8323 9.80343 12.5877 10.2011H12.5388C12.5877 9.65429 12.6366 8.95829 12.6366 8.26229V4.28515H10.4351V13.2337ZM22.4702 13.2337H24.7206V6.12458H27.3625L27.9496 4.23543H19.7794V6.12458H22.4702V13.2337ZM28.7323 17.7577H30.9339V13.2337C31.3742 13.3829 31.8145 13.4326 32.3037 13.4326C35.0923 13.4326 36.9025 11.4937 36.9025 8.70972C36.9025 5.82629 35.2391 3.98686 32.0591 3.98686C30.836 3.98686 29.6619 4.23543 28.6834 4.53372V17.7577H28.7323ZM30.9339 11.2949V6.02515C31.2763 5.92572 31.5699 5.87601 31.9613 5.87601C33.5757 5.87601 34.6031 6.77086 34.6031 8.70972C34.6031 10.4497 33.7714 11.5434 32.108 11.5434C31.6677 11.5434 31.3253 11.444 30.9339 11.2949ZM38.2234 13.2337H40.376L43.1646 9.15715C43.7028 8.41143 44.0942 7.66572 44.3388 7.26801H44.3877C44.3388 7.81486 44.2899 8.51086 44.2899 9.20686V13.184H46.4914V4.23543H44.3388L41.5502 8.31201C41.061 9.05772 40.6206 9.80343 40.376 10.2011H40.3271C40.376 9.65429 40.425 8.95829 40.425 8.26229V4.28515H38.2234V13.2337ZM48.2527 13.2337H50.5031V9.50515H51.824C52.0686 9.50515 52.3133 9.75372 52.6068 10.3503L53.732 13.2337H56.1293L54.5148 9.80343C54.2213 9.20686 53.9277 8.85886 53.4874 8.70972V8.66001C54.2213 8.21258 54.3191 6.92001 54.7594 6.27372C54.9062 6.07486 55.1019 5.97543 55.3954 5.97543C55.5422 5.97543 55.7379 5.97543 55.8847 6.07486V4.13601C55.64 4.03658 55.1997 3.98686 54.9551 3.98686C54.1723 3.98686 53.6831 4.28515 53.3407 4.78229C52.6068 5.87601 52.6068 7.76515 51.5305 7.76515H50.5031V4.23543H48.2527V13.2337ZM61.1194 13.4326C62.3425 13.4326 63.4677 13.0349 64.1526 12.5377L63.5167 10.9966C62.8807 11.3446 62.2936 11.5931 61.4619 11.5931C59.9453 11.5931 58.9668 10.5989 58.9668 8.75943C58.9668 7.11886 59.9453 5.82629 61.6087 5.82629C62.4893 5.82629 63.1253 6.07486 63.7613 6.52229V4.58343C63.272 4.28515 62.4893 3.98686 61.364 3.98686C58.7222 3.98686 56.6674 5.97543 56.6674 8.80915C56.6674 11.3943 58.233 13.4326 61.1194 13.4326Z" fill="white"/>
<path d="M91.1585 10.149C93.5556 10.149 95.5124 8.16062 95.5124 5.72479C95.5124 3.28897 93.5556 1.30054 91.1585 1.30054C88.7615 1.30054 86.8047 3.28897 86.8047 5.72479C86.8536 8.16062 88.7615 10.149 91.1585 10.149Z" stroke="white" stroke-width="1.7688"/>
<path d="M93.8963 5.72464H91.4992V3.28882H90.8633V6.37088H93.8963V5.72464Z" fill="white"/>
</g>

</g></symbol><symbol id="designer" viewBox="0 0 54 11"><g fill="none">
<path d="M13.9514 6.60267V0.261719H16.2285V6.5233C16.2285 7.99458 17.0832 9.00596 18.7122 9.00596C20.3412 9.00596 21.1786 7.99357 21.1786 6.5233V0.261719H23.472V6.58741C23.472 9.21251 21.9214 10.9992 18.7122 10.9992C15.501 10.9992 13.9514 9.19623 13.9514 6.60267Z" fill="currentColor" fill-opacity="0.5"/>
<path d="M28.8831 9.32243L30.1 7.6151C30.8437 8.39042 31.9976 9.03754 33.4526 9.03754C34.6868 9.03754 35.2871 8.46877 35.2871 7.86743C35.2871 6.00137 29.2148 7.28238 29.2148 3.31318C29.2148 1.55803 30.7328 0.103027 33.2155 0.103027C34.8923 0.103027 36.2832 0.608716 37.3271 1.57431L36.0777 3.21856C35.225 2.42797 34.0854 2.06473 33.01 2.06473C32.0454 2.06473 31.5082 2.49106 31.5082 3.12393C31.5082 4.79973 37.5642 3.67744 37.5642 7.6151C37.5642 9.54424 36.1886 10.9992 33.3427 10.9992C31.3189 10.9992 29.8639 10.3185 28.8831 9.32243Z" fill="currentColor" fill-opacity="0.5"/>
<path d="M42.833 5.50051C42.833 2.29544 45.1763 0 48.3813 0C51.6017 0 53.9449 2.29544 53.9449 5.50051C53.9449 8.70456 51.6017 11 48.3813 11C45.1763 11 42.833 8.70456 42.833 5.50051ZM51.6169 5.50051C51.6169 3.50828 50.342 2.00953 48.3813 2.00953C46.4207 2.00953 45.161 3.50828 45.161 5.50051C45.161 7.47748 46.4207 8.99149 48.3813 8.99149C50.342 8.99149 51.6169 7.47748 51.6169 5.50051Z" fill="currentColor" fill-opacity="0.5"/>
<path d="M6.16798 6.79192C7.30654 6.52331 8.47766 5.52719 8.47766 3.66113C8.47766 1.70044 7.13357 0.261719 4.93479 0.261719H0V2.23767H2.24558H2.41245H4.60309C5.50458 2.23767 6.18426 2.7749 6.18426 3.66113C6.18426 4.54634 5.50356 5.08458 4.60309 5.08458H2.41245H2.24558H0.00101731V10.8089H2.2466V7.06155H3.89187L5.96245 10.81H8.54075L6.16798 6.79192Z" fill="currentColor" fill-opacity="0.5"/>
</g></symbol><symbol id="icon-close" viewBox="0 0 40 40"><g fill="none">
<circle cx="20" cy="20" r="19.5" stroke="white"/>
<path d="M10 10L30 30" stroke="white" stroke-width="2" stroke-linecap="round"/>
<path d="M30 10L10 30" stroke="white" stroke-width="2" stroke-linecap="round"/>
</g></symbol><symbol id="insales" viewBox="0 0 156 45"><g fill="none">
<path fill-rule="evenodd" clip-rule="evenodd" d="M52.6066 0.0420316C44.8683 0.605415 38.5281 4.63731 35.9863 10.6112C35.0668 12.7723 34.7476 14.4888 34.8274 16.8443C34.8811 18.4282 35.0202 19.3507 35.3982 20.6285L35.5848 21.2591L35.6479 19.6824C35.7134 18.0485 35.8383 17.3686 36.3011 16.1236C36.9863 14.2802 38.1001 12.717 39.7695 11.2554C42.5719 8.80182 46.1178 7.42566 50.7986 6.97499C52.2177 6.83831 55.7595 6.91382 57.123 7.10978C57.6311 7.18276 58.1413 7.24393 58.2567 7.24574C58.3793 7.24754 59.1875 6.72173 60.2026 5.97941C61.1576 5.28115 62.0752 4.61613 62.242 4.50153L62.5453 4.29322L61.2807 2.52306C60.5852 1.54955 59.9425 0.718669 59.8526 0.676683C59.6071 0.562078 57.8559 0.249798 56.8664 0.144203C55.5339 0.00193822 53.7456 -0.0409487 52.6066 0.0420316ZM50.1944 13.3451C46.526 13.6601 44.0404 14.5899 42.1488 16.3548C40.7687 17.6425 39.9368 19.0808 39.5637 20.8243C39.3195 21.966 39.4005 24.0726 39.7226 24.9532C40.2259 26.3291 41.0555 27.4485 42.3435 28.4903C44.2715 30.0497 47.048 30.9736 51.4774 31.5299C55.9184 32.0876 57.9642 32.8781 58.7869 34.354C59.3665 35.3937 59.0577 36.7334 58.0662 37.481C57.0278 38.2643 55.2614 38.7555 53.1649 38.8444C50.0382 38.9769 46.7511 38.0738 43.6376 36.2269L42.5188 35.5632L39.9915 37.783L37.4641 40.0027L38.4146 40.6694C42.5596 43.5769 46.9903 45 51.8974 45C55.871 45 59.236 44.207 61.844 42.6562C63.336 41.7689 64.265 40.848 64.9782 39.5491C66.5173 36.7462 66.2131 32.7522 64.2692 30.2398C62.6644 28.1654 59.8665 26.599 56.3018 25.7792C54.876 25.4512 53.9154 25.3027 51.8506 25.0906C47.6076 24.6548 46.1982 23.9358 46.1943 22.2052C46.1915 20.9247 47.2759 20.0038 49.2253 19.6311C50.3356 19.4188 52.8088 19.4174 53.941 19.6282C55.6727 19.9508 57.2048 20.4955 58.4306 21.2243C58.7546 21.4169 59.0551 21.5745 59.0987 21.5745C59.1421 21.5745 60.2766 20.6091 61.6201 19.4292L64.0626 17.2838L63.4669 16.8736C61.1774 15.2966 58.2853 14.1409 55.4146 13.6558C53.598 13.3487 51.5628 13.2276 50.1944 13.3451ZM99.9525 14.8223L96.4881 16.3493V30.4044V44.4594H99.9781H103.468V28.8724C103.468 20.2996 103.457 13.2876 103.442 13.2903C103.428 13.293 101.858 13.9824 99.9525 14.8223ZM0 29.0977V44.4594H3.49H6.97999V29.0977V13.736H3.49H0V29.0977ZM22.0691 21.7441C20.9487 21.9584 19.851 22.371 18.9096 22.9315C18.4986 23.1763 18.1407 23.3765 18.1141 23.3765C18.0876 23.3765 18.0659 23.0926 18.0659 22.7458V22.1151H14.5759H11.0859V33.2872V44.4594H14.5759H18.0659L18.0676 37.7696C18.0696 30.4871 18.0816 30.3142 18.6453 29.4049C18.7999 29.1558 19.2363 28.6951 19.6154 28.3812C20.3576 27.7668 21 27.4937 22.1102 27.321C23.746 27.0663 25.7508 27.9146 26.6582 29.2454C27.3126 30.2053 27.3041 30.095 27.3041 37.6309V44.4594H30.7476H34.1912L34.1538 36.8686C34.1174 29.4641 34.111 29.2584 33.8957 28.485C32.99 25.2326 30.3781 22.6841 27.0812 21.836C25.9929 21.556 23.3091 21.5068 22.0691 21.7441ZM78.4149 21.7123C77.2671 21.8694 76.1337 22.1264 74.8228 22.5269C73.5516 22.9153 71.237 23.8214 71.237 23.9306C71.237 23.9734 71.8379 25.0626 72.5722 26.3511L73.9074 28.6938L74.6384 28.3707C78.2099 26.792 82.9866 26.6252 84.8664 28.0136C85.2754 28.3157 85.6076 28.9266 85.6076 29.3768V29.7341L84.2475 29.5324C81.2396 29.0863 78.3755 29.0878 76.3599 29.5366C72.9075 30.3053 70.232 32.5199 69.3795 35.3144C69.0933 36.2526 69.0667 38.1488 69.3264 39.0986C69.5657 39.9734 70.2967 41.2434 70.9473 41.9144C72.0794 43.082 73.8874 44.0751 75.5672 44.4522C77.9822 44.9942 81.4053 44.8701 84.2218 44.1383C84.7299 44.0063 85.2265 43.8779 85.3253 43.8531C85.4728 43.8158 85.5049 43.866 85.5049 44.1335V44.4594H88.845H92.1852L92.1534 36.3281L92.1215 28.1967L91.8479 27.3206C90.8774 24.2135 88.086 22.2905 83.7048 21.7108C82.4452 21.5442 79.6378 21.545 78.4149 21.7123ZM117.257 21.7029C115.085 22.0637 112.968 23.0079 111.381 24.3225C109.52 25.8641 108.298 27.895 107.665 30.4942C107.362 31.738 107.33 34.4897 107.603 35.7851C108.115 38.215 109.314 40.2964 111.117 41.8867C113.073 43.6125 115.379 44.5563 118.301 44.8265C121.988 45.1677 125.075 44.1866 127.596 41.8718C128.107 41.4027 128.507 40.9721 128.485 40.9147C128.45 40.8218 126.727 39.5993 124.641 38.1878L123.898 37.6854L123.366 38.0945C122.694 38.6102 121.742 39.0241 120.845 39.1911C117.906 39.7376 115.182 38.2817 114.308 35.6974L114.164 35.2694H122.533H130.902L130.83 33.9405C130.706 31.6557 130.442 30.1161 129.929 28.6922C128.752 25.4203 125.819 22.8369 122.201 21.8834C121.398 21.6719 121.063 21.6361 119.635 21.6103C118.545 21.5906 117.745 21.6217 117.257 21.7029ZM141.949 21.6652C139.361 22.0243 137.331 22.9037 135.826 24.3182C134.471 25.5924 133.839 27.0383 133.838 28.8724C133.837 30.6024 134.213 31.4441 135.492 32.5713C137.001 33.9018 139.825 35.0248 143.295 35.6742C146.709 36.3132 148.004 36.6517 148.535 37.0441C149.206 37.5394 149.288 38.0635 148.785 38.6428C148.38 39.1077 147.785 39.2672 145.887 39.4192C143.097 39.6426 139.858 38.957 136.639 37.4619C136.055 37.1906 135.563 36.9816 135.547 36.9975C135.424 37.1153 132.516 42.3261 132.554 42.3596C132.581 42.3832 133.278 42.6421 134.103 42.935C138.097 44.3529 141.997 45.0183 145.451 44.871C149.869 44.6827 152.518 43.7785 154.392 41.8201C155.589 40.5696 156.086 39.2585 155.988 37.612C155.778 34.0887 153.368 32.4593 145.81 30.7304C141.379 29.7167 140.832 29.4959 140.832 28.7204C140.832 27.6794 143.069 27.1217 145.861 27.4668C147.709 27.6952 150.167 28.3007 151.802 28.9304C152.105 29.0471 152.406 29.1427 152.471 29.1427C152.594 29.1427 155.485 24.1356 155.404 24.0638C155.377 24.0408 154.727 23.7774 153.958 23.4784C152.087 22.751 150.393 22.2642 148.559 21.9274C147.183 21.6747 146.831 21.6457 144.784 21.6169C143.541 21.5994 142.266 21.6213 141.949 21.6652ZM120.395 27.1191C121.819 27.4137 123.037 28.2276 123.591 29.2545C124.113 30.2237 124.549 30.1338 119.325 30.1338H114.755L114.822 29.886C114.951 29.4047 115.511 28.5996 115.992 28.2049C116.817 27.5273 118.249 27.0054 119.327 26.9892C119.553 26.9858 120.034 27.0443 120.395 27.1191ZM83.3493 34.6812C83.9421 34.7565 84.6706 34.862 84.9683 34.9154L85.5094 35.0127L85.4815 36.6952L85.4536 38.3778L84.7511 38.6746C83.1513 39.3506 80.5693 39.6856 79.0206 39.4181C77.218 39.1068 75.7633 38.0258 75.7557 36.9917C75.7478 35.9169 76.7457 34.9876 78.3304 34.5944C79.0138 34.4248 81.6982 34.4712 83.3493 34.6812Z" fill="white"/>
</g></symbol><symbol id="item-1" viewBox="0 0 55 55"><g fill="none">
<rect width="55" height="55" rx="27.5" fill="#0068FF"/>
<path d="M35.6448 22H22.7652C22.0314 22.0015 21.328 22.3122 20.8096 22.864C20.2912 23.4158 20 24.1635 20 24.9431V38.6227C20 38.7228 20.0374 38.8187 20.104 38.8895C20.1706 38.9602 20.261 39 20.3552 39H23.5662C23.6604 39 23.7508 38.9602 23.8174 38.8895C23.884 38.8187 23.9214 38.7228 23.9214 38.6227V31.1688C23.921 30.3881 23.6927 29.6268 23.2678 28.9898L21.966 27.0353L32.6434 38.3755C32.6764 38.4112 32.7158 38.4395 32.7593 38.4588C32.8027 38.4782 32.8493 38.4881 32.8964 38.4881C32.9435 38.4881 32.9902 38.4782 33.0336 38.4588C33.0771 38.4395 33.1165 38.4112 33.1495 38.3755L35.4157 35.9664C35.4493 35.9313 35.4759 35.8894 35.4941 35.8433C35.5123 35.7971 35.5217 35.7476 35.5217 35.6975C35.5217 35.6475 35.5123 35.598 35.4941 35.5518C35.4759 35.5057 35.4493 35.4638 35.4157 35.4287L24.749 24.0998L26.5712 25.4713C27.1709 25.9226 27.8876 26.1651 28.6225 26.1656H35.6448C35.739 26.1656 35.8294 26.1258 35.896 26.0551C35.9626 25.9843 36 25.8883 36 25.7883V22.3773C36 22.2772 35.9626 22.1813 35.896 22.1105C35.8294 22.0398 35.739 22 35.6448 22Z" fill="white"/>
<path d="M35.6446 16H20.3554C20.1591 16 20 16.1613 20 16.3604V19.6396C20 19.8387 20.1591 20 20.3554 20H35.6446C35.8409 20 36 19.8387 36 19.6396V16.3604C36 16.1613 35.8409 16 35.6446 16Z" fill="white"/>
</g></symbol><symbol id="item-2" viewBox="0 0 45 45"><g fill="none">
<path fill-rule="evenodd" clip-rule="evenodd" d="M12.1953 34.2281C16.0175 34.2281 18.9073 29.3271 21.498 23.9764C22.7449 21.3823 23.9076 18.6643 25.0703 16.36C26.3471 13.804 27.6568 12 29.2593 12C30.6177 12 31.896 13.0803 33.1682 14.7731C35.8058 18.2877 38.0857 24.2396 38.0857 28.1432C38.0857 31.4132 36.3766 34.2281 32.8739 34.2281H12.1953Z" fill="#00CEFF"/>
<path fill-rule="evenodd" clip-rule="evenodd" d="M21.4908 23.9748C18.8655 18.7623 17.6768 14.9378 15.3548 14.9378C13.9118 14.9378 12.2868 16.4279 10.8159 18.8699C9.24 21.4611 8 25.1176 8 29.0521C8 32.1589 9.54397 34.2257 12.1887 34.2257C16.0097 34.2257 18.9003 29.3251 21.4908 23.9748Z" fill="#0054B7"/>
</g></symbol><symbol id="item-3" viewBox="0 0 45 45"><g fill="none">
<g clip-path="url(#clip0_681_1648)">
<path d="M7.08594 34.9527H16.0599V33.0209H10.112C10.9279 29.8177 15.9205 29.1117 15.9205 25.5309C15.9205 23.601 14.5766 22.1873 11.7923 22.1873C10.29 22.1991 8.81107 22.5538 7.47255 23.2234L8.09337 25.0165C9.05248 24.5933 10.1082 24.1701 11.4056 24.1701C12.4614 24.1701 13.4205 24.5933 13.4205 25.7717C13.4688 28.4058 7.61382 28.5937 7.08594 34.9527ZM34.0116 32.2675C33.0242 32.2672 32.0592 31.9795 31.2384 31.4409C30.4176 30.9023 29.778 30.1369 29.4004 29.2416C29.0228 28.3463 28.9242 27.3612 29.117 26.4109C29.3099 25.4605 29.7855 24.5877 30.4838 23.9026C31.1821 23.2176 32.0717 22.7511 33.0401 22.5622C34.0085 22.3733 35.0123 22.4704 35.9244 22.8413C36.8366 23.2122 37.6162 23.8402 38.1647 24.6459C38.7133 25.4516 39.006 26.3989 39.006 27.3679C38.9992 28.6656 38.4707 29.9082 37.5355 30.8257C36.6003 31.7431 35.3339 32.2613 34.0116 32.2675ZM34.0116 23.3657C33.2045 23.3653 32.4154 23.5999 31.7442 24.0397C31.073 24.4795 30.5498 25.1048 30.2407 25.8366C29.9317 26.5683 29.8507 27.3735 30.0081 28.1504C30.1655 28.9272 30.5541 29.6409 31.1248 30.2009C31.6955 30.761 32.4226 31.1424 33.2142 31.2968C34.0058 31.4513 34.8263 31.3718 35.5719 31.0685C36.3175 30.7653 36.9547 30.2518 37.4028 29.593C37.851 28.9343 38.09 28.1599 38.0897 27.3679C38.0877 26.3078 37.6571 25.2919 36.8925 24.5432C36.1279 23.7945 35.0917 23.3743 34.0116 23.3748V23.3657Z" fill="#00639B"/>
<path d="M36.8392 27.3677H34.3429V24.9197H33.6719V28.0207H36.8317V27.3604L36.8392 27.3677Z" fill="#00639B"/>
<path d="M7 10.4852H9.77695C11.8216 10.4852 12.7398 11.6345 12.7398 12.8457C12.75 13.2407 12.6488 13.6308 12.4474 13.973C12.246 14.3151 11.9523 14.5961 11.5985 14.7848V14.814C12.1152 14.9263 12.576 15.2113 12.9022 15.6203C13.2283 16.0292 13.3996 16.5367 13.3866 17.0558C13.3866 18.5152 12.2714 19.8103 10.0558 19.8103H7V10.4852ZM9.56134 14.3908C10.5186 14.3908 11.0483 13.8763 11.0483 13.1485C11.0483 12.4535 10.5855 11.9081 9.56134 11.9081H8.76022V14.3908H9.56134ZM9.84015 18.4185C10.9814 18.4185 11.6283 17.9935 11.6283 17.0558C11.6283 16.2678 11.0112 15.7789 10.0558 15.7789H8.75465V18.4148L9.84015 18.4185ZM14.684 11.0288C14.6747 10.8197 14.7296 10.6127 14.8416 10.4345C14.9536 10.2564 15.1175 10.1153 15.3122 10.0297C15.5068 9.94399 15.7231 9.91764 15.9332 9.95402C16.1432 9.99039 16.3373 10.0878 16.4903 10.2337C16.6432 10.3796 16.7481 10.5672 16.7912 10.7722C16.8342 10.9772 16.8136 11.1902 16.732 11.3835C16.6503 11.5769 16.5114 11.7418 16.3331 11.8567C16.1549 11.9717 15.9456 12.0316 15.7323 12.0285C15.5953 12.0355 15.4582 12.0148 15.3298 11.9674C15.2013 11.9201 15.0842 11.8472 14.9857 11.7533C14.8873 11.6595 14.8097 11.5467 14.7578 11.422C14.7059 11.2973 14.6808 11.1635 14.684 11.0288ZM14.8699 13.1193H16.5985V19.8103H14.8699V13.1193ZM18.9126 18.1759V14.4509H17.6784V13.1193H18.9126V11.5743L20.6394 11.0909V13.1193H22.7045L22.2732 14.4509H20.6375V17.7508C20.6375 18.3875 20.855 18.5991 21.316 18.5991C21.6914 18.5903 22.0561 18.4749 22.3662 18.2671L22.8903 19.4163C22.3959 19.7501 21.5632 19.9325 20.8848 19.9325C19.6506 19.9617 18.9108 19.2959 18.9108 18.1759H18.9126ZM23.8178 13.1193H25.2677L25.4535 13.8763C26.0706 13.2707 26.6264 12.9643 27.3346 12.9643C27.6732 12.9656 28.0048 13.0597 28.2918 13.2361L27.6747 14.6589C27.4424 14.5198 27.1754 14.4466 26.9033 14.4473C26.4405 14.4473 26.0706 14.6297 25.5149 15.1131V19.8377H23.7862V13.1193H23.8178ZM28.9684 11.0288C28.9622 10.8225 29.0192 10.619 29.1322 10.4449C29.2451 10.2707 29.4088 10.1339 29.6019 10.052C29.795 9.97022 30.0087 9.9472 30.2154 9.98598C30.422 10.0248 30.612 10.1235 30.7607 10.2695C30.9095 10.4155 31.0101 10.6019 31.0496 10.8047C31.0891 11.0075 31.0657 11.2172 30.9823 11.4068C30.8989 11.5963 30.7595 11.7569 30.582 11.8678C30.4046 11.9786 30.1973 12.0346 29.987 12.0285C29.8515 12.035 29.7161 12.0136 29.5895 11.9657C29.4629 11.9178 29.3479 11.8443 29.252 11.7502C29.156 11.656 29.0812 11.5432 29.0324 11.419C28.9835 11.2947 28.9618 11.1618 28.9684 11.0288ZM29.1543 13.1193H30.881V19.8103H29.1543V13.1193ZM34.368 16.4429L31.8996 13.112H33.6896L35.2881 15.2992L36.9238 13.1193H38.7119L36.2175 16.4429L38.7472 19.803H36.961L35.3271 17.563L33.6543 19.803H31.868L34.368 16.4429Z" fill="#41C0F0"/>
<path d="M24.4069 30.0056V22.1873H22.7341L16.3438 30.3357V31.8899H22.1058V35.0001H24.4088V31.8899H26.3289V30.0056H24.4069ZM22.104 28.1687V29.96H20.5687C20.0872 29.96 19.2248 30.0056 18.9367 30.0056L22.1988 25.6732C22.1988 26.049 22.104 27.18 22.104 28.1687Z" fill="#00639B"/>
</g>

</g></symbol><symbol id="link" viewBox="0 0 32 32"><g fill="none">
<path d="M16.0385 18.7803L12.9136 21.9052C12.5353 22.2704 12.03 22.4744 11.5042 22.4744C10.9784 22.4744 10.4731 22.2704 10.0948 21.9052C9.90921 21.7204 9.76197 21.5008 9.66151 21.2589C9.56104 21.017 9.50933 20.7577 9.50933 20.4958C9.50933 20.2339 9.56104 19.9746 9.66151 19.7327C9.76197 19.4908 9.90921 19.2712 10.0948 19.0864L13.2197 15.9615C13.3713 15.8098 13.4565 15.6041 13.4565 15.3896C13.4565 15.1752 13.3713 14.9695 13.2197 14.8178C13.068 14.6661 12.8623 14.5809 12.6479 14.5809C12.4334 14.5809 12.2277 14.6661 12.076 14.8178L8.95111 17.9508C8.32158 18.636 7.98111 19.5379 8.00081 20.4682C8.0205 21.3985 8.39884 22.2852 9.0568 22.9432C9.71477 23.6012 10.6015 23.9795 11.5318 23.9992C12.4621 24.0189 13.364 23.6784 14.0492 23.0489L17.1822 19.924C17.3339 19.7723 17.4191 19.5666 17.4191 19.3521C17.4191 19.1377 17.3339 18.932 17.1822 18.7803C17.0305 18.6287 16.8249 18.5435 16.6104 18.5435C16.3959 18.5435 16.1902 18.6287 16.0385 18.7803ZM22.9488 9.05121C22.2713 8.3779 21.3549 8 20.3997 8C19.4446 8 18.5282 8.3779 17.8507 9.05121L14.7177 12.1761C14.6426 12.2512 14.583 12.3404 14.5424 12.4385C14.5018 12.5366 14.4808 12.6417 14.4808 12.7479C14.4808 12.8541 14.5018 12.9593 14.5424 13.0574C14.583 13.1555 14.6426 13.2447 14.7177 13.3198C14.7928 13.3949 14.8819 13.4544 14.9801 13.4951C15.0782 13.5357 15.1833 13.5566 15.2895 13.5566C15.3957 13.5566 15.5009 13.5357 15.599 13.4951C15.6971 13.4544 15.7863 13.3949 15.8614 13.3198L18.9863 10.1949C19.3646 9.82972 19.8699 9.62566 20.3957 9.62566C20.9215 9.62566 21.4268 9.82972 21.8051 10.1949C21.9907 10.3797 22.1379 10.5993 22.2384 10.8412C22.3389 11.0831 22.3906 11.3424 22.3906 11.6043C22.3906 11.8662 22.3389 12.1255 22.2384 12.3674C22.1379 12.6093 21.9907 12.8289 21.8051 13.0137L18.6802 16.1386C18.6047 16.2135 18.5448 16.3026 18.5039 16.4007C18.463 16.4989 18.442 16.6041 18.442 16.7105C18.442 16.8168 18.463 16.9221 18.5039 17.0202C18.5448 17.1183 18.6047 17.2074 18.6802 17.2823C18.7551 17.3578 18.8442 17.4177 18.9423 17.4586C19.0405 17.4995 19.1457 17.5205 19.2521 17.5205C19.3584 17.5205 19.4636 17.4995 19.5618 17.4586C19.6599 17.4177 19.749 17.3578 19.8239 17.2823L22.9488 14.1493C23.6221 13.4718 24 12.5554 24 11.6003C24 10.6451 23.6221 9.72872 22.9488 9.05121ZM13.3969 18.6031C13.4721 18.6778 13.5614 18.7368 13.6595 18.7769C13.7576 18.817 13.8627 18.8373 13.9687 18.8367C14.0747 18.8373 14.1798 18.817 14.2779 18.7769C14.376 18.7368 14.4653 18.6778 14.5405 18.6031L18.503 14.6406C18.6547 14.489 18.7399 14.2833 18.7399 14.0688C18.7399 13.8543 18.6547 13.6486 18.503 13.497C18.3514 13.3453 18.1457 13.2601 17.9312 13.2601C17.7167 13.2601 17.511 13.3453 17.3594 13.497L13.3969 17.4595C13.3214 17.5344 13.2615 17.6234 13.2206 17.7216C13.1797 17.8197 13.1586 17.925 13.1586 18.0313C13.1586 18.1376 13.1797 18.2429 13.2206 18.341C13.2615 18.4392 13.3214 18.5283 13.3969 18.6031Z" fill="white"/>
</g></symbol><symbol id="logo-insales" viewBox="0 0 120 120"><g fill="none">
<path fill-rule="evenodd" clip-rule="evenodd" d="M46.5289 42.0241C42.3324 42.3471 38.8941 44.6587 37.5156 48.0837C37.017 49.3228 36.8439 50.3069 36.8872 51.6574C36.9163 52.5655 36.9917 53.0944 37.1967 53.827L37.2979 54.1886L37.3322 53.2846C37.3677 52.3478 37.4354 51.958 37.6864 51.2442C38.0579 50.1873 38.662 49.2911 39.5673 48.4531C41.0871 47.0464 43.0101 46.2574 45.5485 45.999C46.3181 45.9206 48.2388 45.9639 48.9783 46.0763C49.2538 46.1181 49.5305 46.1532 49.593 46.1542C49.6596 46.1553 50.0978 45.8538 50.6484 45.4282C51.1662 45.0279 51.6639 44.6466 51.7543 44.5809L51.9188 44.4614L51.233 43.4466C50.8558 42.8884 50.5073 42.412 50.4585 42.388C50.3254 42.3223 49.3757 42.1432 48.8391 42.0827C48.1165 42.0011 47.1467 41.9765 46.5289 42.0241ZM45.2208 49.6512C43.2314 49.8318 41.8834 50.3649 40.8576 51.3768C40.1092 52.115 39.6581 52.9397 39.4557 53.9393C39.3233 54.5938 39.3672 55.8016 39.5419 56.3065C39.8148 57.0953 40.2647 57.7372 40.9632 58.3345C42.0088 59.2285 43.5145 59.7582 45.9166 60.0771C48.325 60.3969 49.4344 60.8501 49.8806 61.6963C50.1949 62.2924 50.0275 63.0605 49.4898 63.4891C48.9266 63.9382 47.9687 64.2198 46.8317 64.2708C45.1361 64.3467 43.3535 63.829 41.665 62.7701L41.0583 62.3896L39.6877 63.6622L38.3171 64.9349L38.8325 65.3171C41.0804 66.9841 43.4832 67.8 46.1443 67.8C48.2993 67.8 50.1241 67.3454 51.5385 66.4562C52.3476 65.9475 52.8514 65.4195 53.2382 64.6748C54.0728 63.0678 53.9079 60.778 52.8537 59.3375C51.9834 58.1482 50.466 57.2501 48.5329 56.7801C47.7597 56.592 47.2387 56.5069 46.119 56.3853C43.8179 56.1354 43.0536 55.7232 43.0515 54.731C43.05 53.9968 43.6381 53.4689 44.6952 53.2551C45.2974 53.1334 46.6386 53.1326 47.2526 53.2535C48.1917 53.4385 49.0226 53.7507 49.6874 54.1686C49.8631 54.279 50.0261 54.3694 50.0497 54.3694C50.0732 54.3694 50.6885 53.8159 51.417 53.1394L52.7416 51.9094L52.4186 51.6742C51.177 50.7701 49.6086 50.1075 48.0518 49.8293C47.0666 49.6533 45.9629 49.5838 45.2208 49.6512ZM72.205 50.4981L70.3263 51.3736V59.4318V67.4901H72.2189H74.1116V58.5535C74.1116 53.6384 74.1053 49.6182 74.0976 49.6198C74.09 49.6213 73.2383 50.0166 72.205 50.4981ZM18 58.6827V67.4901H19.8927H21.7853V58.6827V49.8753H19.8927H18V58.6827ZM29.9682 54.4666C29.3606 54.5895 28.7653 54.826 28.2548 55.1474C28.0319 55.2877 27.8378 55.4025 27.8234 55.4025C27.8091 55.4025 27.7973 55.2398 27.7973 55.0409V54.6793H25.9046H24.012V61.0847V67.4901H25.9046H27.7973L27.7982 63.6546C27.7993 59.4793 27.8058 59.3801 28.1115 58.8588C28.1953 58.716 28.432 58.4519 28.6376 58.2719C29.0401 57.9196 29.3885 57.763 29.9905 57.664C30.8777 57.518 31.9649 58.0044 32.457 58.7674C32.8118 59.3177 32.8072 59.2545 32.8072 63.575V67.4901H34.6747H36.5421L36.5219 63.138C36.5021 58.8928 36.4987 58.7748 36.3819 58.3314C35.8907 56.4667 34.4743 55.0056 32.6864 54.5193C32.0961 54.3588 30.6407 54.3306 29.9682 54.4666ZM60.525 54.4484C59.9025 54.5384 59.2879 54.6858 58.577 54.9154C57.8876 55.1381 56.6324 55.6576 56.6324 55.7202C56.6324 55.7448 56.9582 56.3692 57.3565 57.108L58.0806 58.4511L58.477 58.2659C60.4138 57.3607 63.0043 57.2651 64.0237 58.0611C64.2455 58.2343 64.4256 58.5846 64.4256 58.8427V59.0476L63.6881 58.9319C62.0569 58.6762 60.5036 58.677 59.4106 58.9343C57.5383 59.375 56.0873 60.6447 55.625 62.247C55.4698 62.7848 55.4554 63.872 55.5963 64.4165C55.726 64.9181 56.1225 65.6462 56.4753 66.0309C57.0892 66.7003 58.0697 67.2697 58.9807 67.4859C60.2904 67.7967 62.1467 67.7255 63.6741 67.306C63.9497 67.2303 64.219 67.1567 64.2726 67.1424C64.3525 67.1211 64.37 67.1499 64.37 67.3032V67.4901H66.1813H67.9927L67.9755 62.8281L67.9582 58.1661L67.8098 57.6638C67.2835 55.8824 65.7697 54.7799 63.3938 54.4475C62.7107 54.352 61.1882 54.3525 60.525 54.4484ZM81.5892 54.443C80.4116 54.6499 79.2632 55.1912 78.4028 55.9449C77.3938 56.8287 76.7306 57.9931 76.3875 59.4833C76.2234 60.1965 76.206 61.7741 76.354 62.5168C76.6318 63.9099 77.2818 65.1033 78.2595 66.0151C79.3204 67.0045 80.5711 67.5456 82.1553 67.7005C84.1552 67.8961 85.829 67.3337 87.1962 66.0065C87.4733 65.7376 87.6903 65.4907 87.6785 65.4578C87.6594 65.4045 86.7248 64.7036 85.5937 63.8943L85.1911 63.6063L84.9021 63.8409C84.5378 64.1365 84.0218 64.3738 83.5351 64.4696C81.9416 64.7829 80.4642 63.9482 79.9902 62.4665L79.9118 62.2211H84.4506H88.9894L88.9503 61.4592C88.8831 60.1492 88.7398 59.2665 88.4618 58.4502C87.8229 56.5743 86.2327 55.0931 84.2706 54.5465C83.8352 54.4252 83.6531 54.4047 82.879 54.3899C82.288 54.3786 81.854 54.3964 81.5892 54.443ZM94.9798 54.4214C93.5764 54.6272 92.4758 55.1315 91.6596 55.9425C90.9244 56.673 90.5821 57.502 90.5815 58.5535C90.5809 59.5454 90.785 60.028 91.4783 60.6742C92.2967 61.437 93.8282 62.0809 95.7101 62.4532C97.5615 62.8196 98.2638 63.0136 98.5519 63.2386C98.9157 63.5226 98.9599 63.8231 98.687 64.1552C98.4679 64.4217 98.1448 64.5132 97.1155 64.6004C95.6025 64.7284 93.8459 64.3354 92.1003 63.4782C91.7835 63.3226 91.517 63.2028 91.5081 63.2119C91.4416 63.2795 89.8645 66.2669 89.8852 66.2862C89.8997 66.2997 90.2778 66.4482 90.7253 66.6161C92.8913 67.429 95.0062 67.8105 96.8791 67.726C99.2749 67.6181 100.712 67.0997 101.728 65.9768C102.377 65.2599 102.647 64.5082 102.593 63.5642C102.48 61.5442 101.173 60.61 97.0739 59.6187C94.6707 59.0376 94.3741 58.911 94.3741 58.4663C94.3741 57.8696 95.5876 57.5497 97.1017 57.7476C98.1036 57.8786 99.4365 58.2257 100.323 58.5867C100.488 58.6537 100.651 58.7085 100.686 58.7085C100.753 58.7085 102.321 55.8378 102.277 55.7966C102.262 55.7834 101.91 55.6324 101.493 55.4609C100.478 55.0439 99.5591 54.7648 98.5647 54.5717C97.8187 54.4268 97.6275 54.4102 96.5172 54.3937C95.8437 54.3837 95.1518 54.3962 94.9798 54.4214ZM83.2913 57.5483C84.0636 57.7172 84.7241 58.1838 85.0242 58.7726C85.3075 59.3283 85.5441 59.2767 82.7109 59.2767H80.2327L80.2687 59.1347C80.3386 58.8587 80.6425 58.3971 80.9032 58.1708C81.3507 57.7823 82.1272 57.4831 82.712 57.4738C82.8345 57.4719 83.0951 57.5054 83.2913 57.5483ZM63.201 61.8839C63.5225 61.927 63.9175 61.9875 64.0789 62.0182L64.3724 62.074L64.3573 63.0386L64.3421 64.0033L63.9612 64.1734C63.0936 64.561 61.6934 64.7531 60.8535 64.5997C59.8759 64.4212 59.087 63.8014 59.0829 63.2086C59.0786 62.5923 59.6198 62.0595 60.4792 61.8341C60.8498 61.7369 62.3056 61.7635 63.201 61.8839Z" fill="white"/>
</g></symbol><symbol id="logo" viewBox="0 0 217 25"><g fill="none">
<path d="M109.18 12.3739C107.6 10.7209 105.914 9.58577 103.697 9.58577L86.5831 9.55921C85.4546 9.55921 84.7708 9.11445 84.3725 8.22491C84.0207 7.43495 84.0008 6.46575 84.565 5.77536C85.0098 5.23102 85.7135 4.77297 86.5964 4.77297C86.6096 4.77297 104.168 4.79953 104.168 4.79953H104.719C106.233 4.79953 106.266 6.03424 106.956 6.6317C107.374 6.9968 107.919 7.2026 108.476 7.2026C109.758 7.2026 110.64 6.16038 110.64 4.87918C110.64 4.08922 110.023 3.02709 109.512 2.43628C108.357 1.09533 106.89 0.351831 105.131 0.219064H103.79L87.0942 0.192505C84.9501 0.192505 83.1909 0.736846 81.9031 1.83881C80.5422 3.00052 79.5 5.1779 79.5 6.97026C79.5 8.88874 80.1306 10.6147 81.1131 11.7366C82.6466 13.4957 84.5385 14.1861 86.7557 14.1861L103.285 14.2127C104.215 14.2127 104.799 14.5247 105.27 14.8832C106.12 15.5404 106.332 16.6423 106.259 17.6513C106.166 18.9458 105.111 20.3 103.591 20.3C103.272 20.3 97.2797 20.2912 85.6139 20.2735C84.1004 20.2735 84.0672 19.0454 83.3768 18.4413C82.9586 18.0762 82.4142 17.8704 81.8566 17.8704C80.5754 17.8704 79.6925 18.9126 79.6925 20.1938C79.6925 20.9838 80.3099 22.0459 80.8144 22.6367C81.9761 23.9777 83.4365 24.7212 85.1957 24.854L103.411 24.8805C105.25 24.8805 106.976 24.1636 108.237 23.1147C109.844 21.6476 110.707 19.8818 110.82 17.8306V16.6622C110.713 15.0757 110.169 13.6484 109.187 12.3739" fill="currentColor"/>
<path d="M31.1073 21.5215C31.1073 21.5215 31.1139 21.5215 31.1206 21.5149C31.0874 21.4418 31.0542 21.3622 31.0077 21.2892L17.9833 1.77907C17.9833 1.77907 17.6314 1.22146 17.6314 1.2281C17.18 0.531071 16.4896 0 15.6134 0C14.3455 0 13.3165 1.02894 13.3165 2.29686C13.3165 2.75491 13.4559 3.1864 13.6883 3.54487C13.6883 3.54487 13.6883 3.54488 13.6883 3.55152V3.56479C13.6883 3.56479 13.7082 3.58471 13.7148 3.59135L20.3332 13.5356L6.73791 13.5489C5.50982 13.5489 5.10489 13.8343 4.62693 14.7238L0.424843 21.4087C0.385013 21.4618 0.351833 21.5215 0.312003 21.5879L0.238971 21.7007C0.238971 21.7007 0.238977 21.7007 0.245615 21.7007C0.0929336 21.9995 0 22.3314 0 22.6898C0 23.9047 0.982473 24.8871 2.19729 24.8871C3.02708 24.8871 3.74401 24.4158 4.11576 23.7387C4.12904 23.7387 4.13569 23.7387 4.14896 23.7387L7.90627 18.043L23.3404 18.0629L27.2106 24.0308C27.2106 24.0308 27.2238 24.0175 27.2305 24.0109C27.6553 24.5486 28.3059 24.9071 29.0427 24.9071C30.3239 24.9071 31.3595 23.8715 31.3595 22.5903C31.3595 22.2053 31.26 21.8534 31.094 21.5348" fill="currentColor"/>
<path d="M64.9699 2.79472C63.3899 1.14177 61.5113 0.258885 59.3472 0.139395L37.4141 0.106201C37.3676 0.106201 37.3278 0.119477 37.288 0.126115C37.288 0.126115 37.288 0.132757 37.288 0.139395C36.1661 0.292077 35.2965 1.24135 35.2965 2.40306C35.2965 3.63116 36.2657 4.62691 37.4805 4.68665H37.5004C37.5336 4.68665 37.5602 4.6933 37.5867 4.6933C37.6133 4.6933 37.6465 4.68665 37.673 4.68665C39.8039 4.68665 59.4401 4.71984 59.4667 4.71984C60.8939 4.71984 62.1088 6.14709 62.0955 7.57434C62.0822 9.1609 61.3188 10.6014 59.5198 10.847L37.4738 10.8139V10.8271C36.2657 10.8935 35.3031 11.8826 35.3031 13.1107C35.3031 13.124 35.3031 13.1373 35.3031 13.1505C35.3031 13.1505 35.3031 13.1505 35.2965 13.1505L35.2832 22.6301C35.2832 23.8847 36.2922 24.8938 37.5402 24.8938C38.7882 24.8938 39.7508 23.9179 39.7906 22.7097C39.7906 22.7097 39.7973 22.7097 39.8039 22.7097L39.8172 15.4408L58.9091 15.474C60.9736 15.474 62.1685 15.1553 63.9608 13.7745C65.6404 12.3075 66.5365 10.5085 66.6494 8.39086V7.1893C66.5432 5.55627 65.9723 4.09584 64.95 2.80137" fill="currentColor"/>
<path d="M177.409 9.70524H177.362C177.349 9.70524 177.343 9.70524 177.336 9.70524C177.323 9.70524 177.316 9.70524 177.309 9.70524L153.332 9.67206C153.332 9.67206 153.312 9.67206 153.305 9.67206C153.298 9.67206 153.292 9.67206 153.279 9.67206H153.093C153.093 9.67206 153.093 9.68533 153.093 9.69197C151.924 9.79819 151.008 10.7674 151.008 11.9623L150.988 22.5969C150.988 22.5969 150.988 22.6301 150.988 22.6434C150.988 23.8914 151.997 24.907 153.245 24.907C154.493 24.907 155.489 23.9047 155.502 22.6699C155.502 22.6699 155.502 22.6699 155.509 22.6699L155.522 14.2923L177.289 14.3255C177.289 14.3255 177.289 14.3255 177.289 14.3189C177.303 14.3189 177.316 14.3189 177.329 14.3189C178.604 14.3189 179.639 13.2833 179.639 12.0087C179.639 10.7342 178.644 9.74507 177.402 9.70524" fill="currentColor"/>
<path d="M180.065 0.205784C180.065 0.205784 180.065 0.199143 180.065 0.192505L153.333 0.219064C153.333 0.219064 153.326 0.219064 153.32 0.219064C153.32 0.219064 153.313 0.219064 153.306 0.219064H153.18C153.18 0.219064 153.18 0.225705 153.18 0.232343C151.979 0.305365 151.029 1.29448 151.029 2.51593C151.029 3.78386 152.052 4.8128 153.32 4.8128C153.333 4.8128 153.353 4.8128 153.366 4.8128L167.585 4.79953C167.645 4.79953 167.705 4.81944 167.765 4.81944C167.824 4.81944 167.884 4.80616 167.944 4.79953L180.006 4.78624C180.006 4.78624 180.006 4.77961 180.006 4.77297C181.267 4.77297 182.289 3.75066 182.289 2.48938C182.289 1.24801 181.293 0.238983 180.065 0.212429" fill="currentColor"/>
<path d="M75.225 2.43627C75.225 2.43627 75.225 2.4097 75.225 2.39642C75.225 2.38314 75.225 2.36987 75.225 2.35659V2.33668C75.1918 1.11522 74.196 0.132751 72.968 0.132751C71.7399 0.132751 70.8171 1.05549 70.7242 2.22384H70.7109V2.3765C70.7109 2.3765 70.7109 2.39643 70.7109 2.40306C70.7109 2.4097 70.7109 2.41635 70.7109 2.42962L70.6777 22.5969C70.6777 22.5969 70.6777 22.5969 70.6777 22.6035C70.6777 23.8582 71.6934 24.8672 72.9414 24.8672C74.1894 24.8672 75.2051 23.8515 75.2051 22.6035C75.2051 22.577 75.1984 22.5571 75.1984 22.5372L75.2316 2.44954L75.225 2.43627Z" fill="currentColor"/>
<path d="M213.788 0.205788C213.788 0.205788 213.788 0.199147 213.788 0.192509L187.055 0.219068C187.055 0.219068 187.049 0.219068 187.042 0.219068C187.042 0.219068 187.035 0.219068 187.029 0.219068H186.903C186.903 0.219068 186.903 0.225709 186.903 0.232347C185.701 0.305369 184.752 1.29448 184.752 2.51594C184.752 3.73739 185.781 4.8128 187.049 4.8128C187.062 4.8128 187.075 4.8128 187.095 4.8128L198.135 4.79953L198.108 22.7297C198.108 22.7297 198.108 22.7297 198.108 22.7363C198.108 23.991 199.124 25 200.372 25C201.62 25 202.635 23.9843 202.635 22.7363C202.635 22.7098 202.635 22.6899 202.629 22.6699L202.655 4.79289L213.728 4.77962C213.728 4.77962 213.728 4.77296 213.728 4.76633C214.989 4.76633 216.012 3.74402 216.012 2.48273C216.012 1.24136 215.016 0.232342 213.788 0.205788Z" fill="currentColor"/>
<path d="M122.165 24.9137C120.074 24.9137 118.521 24.0175 117.047 22.5637C116.045 21.2892 115.182 19.8088 115.182 18.0696L115.195 6.99019C115.195 5.03852 115.945 3.65773 117.452 2.19066C118.707 0.975843 120.486 0.232361 122.172 0.232361L139.246 0.25891C141.33 0.25891 143.215 1.36088 144.736 2.94744C145.824 4.33485 146.535 5.6758 146.535 7.67394L146.521 17.5518C146.521 19.9018 145.519 21.6543 143.866 23.2409C142.571 24.2632 141.23 24.9403 139.445 24.9403L122.165 24.9137ZM141.011 19.6163C141.549 19.0587 141.901 18.4944 141.901 17.7841L141.914 7.54116C141.868 6.80431 141.576 6.14713 140.978 5.62934C140.494 5.20448 139.73 4.85929 139.12 4.85929L122.305 4.83273C121.654 4.83273 121.043 5.12483 120.618 5.56959C120.107 6.16705 119.716 6.80431 119.716 7.70712L119.702 17.4854C119.702 18.3418 119.961 19.0388 120.585 19.6893C121.01 20.0279 121.674 20.2934 122.205 20.3399C122.205 20.3399 138.781 20.393 139.418 20.393C140.055 20.393 140.474 20.1872 141.011 19.623" fill="currentColor"/>
</g></symbol><symbol id="mail" viewBox="0 0 42 30"><g fill="none">
<rect x="0.999023" y="1" width="40.0008" height="28" rx="2.66667" stroke="white" stroke-width="2"/>
<path d="M1.90918 1.875L18.1869 18.0838C19.6037 19.4946 21.8895 19.5102 23.3255 18.119L40.0917 1.875" stroke="white" stroke-width="2"/>
</g></symbol><symbol id="mybusiness" viewBox="0 0 101 23"><g fill="none">
<g clip-path="url(#clip0_196_602)">
<path fill-rule="evenodd" clip-rule="evenodd" d="M31.2905 2.76981H40.6913V0.956604H31.2905V2.76981ZM40.6913 5.94852H31.2905V4.13532H40.6913V5.94852ZM20.2172 19.5219C20.9625 19.7821 21.7622 19.9121 22.6162 19.9121C23.4703 19.9121 24.2622 19.7821 24.992 19.5219C25.7374 19.2465 26.3818 18.8487 26.9253 18.3285C27.4687 17.8083 27.8958 17.1657 28.2063 16.4007C28.5169 15.6204 28.6722 14.7177 28.6722 13.6926V13.2335C28.6722 12.2697 28.5169 11.4205 28.2063 10.6861C27.8958 9.9364 27.4687 9.30909 26.9253 8.8042C26.3818 8.284 25.7374 7.89384 24.992 7.63371C24.2622 7.37364 23.4703 7.2436 22.6162 7.2436C21.7622 7.2436 20.9625 7.37364 20.2172 7.63371C19.4874 7.89384 18.8507 8.284 18.3072 8.8042C17.7637 9.30909 17.3367 9.9364 17.0261 10.6861C16.7156 11.4205 16.5603 12.2697 16.5603 13.2335V13.6926C16.5603 14.7177 16.7156 15.6204 17.0261 16.4007C17.3367 17.1657 17.7637 17.8083 18.3072 18.3285C18.8507 18.8487 19.4874 19.2465 20.2172 19.5219ZM23.8973 17.4794C23.4936 17.6324 23.0665 17.7088 22.6162 17.7088C22.1659 17.7088 21.7312 17.6324 21.3118 17.4794C20.9081 17.3263 20.5432 17.0892 20.2172 16.7679C19.9066 16.4466 19.6504 16.0335 19.4485 15.5286C19.2622 15.0237 19.169 14.4117 19.169 13.6926V13.2335C19.169 12.5757 19.2622 12.0096 19.4485 11.5352C19.6504 11.0609 19.9066 10.6708 20.2172 10.3648C20.5432 10.0588 20.9081 9.82929 21.3118 9.67628C21.7312 9.52332 22.1659 9.44678 22.6162 9.44678C23.0665 9.44678 23.4936 9.52332 23.8973 9.67628C24.3165 9.82929 24.6815 10.0588 24.992 10.3648C25.3181 10.6708 25.5743 11.0609 25.7607 11.5352C25.9626 12.0096 26.0635 12.5757 26.0635 13.2335V13.6926C26.0635 14.4117 25.9626 15.0237 25.7607 15.5286C25.5743 16.0335 25.3181 16.4466 24.992 16.7679C24.6815 17.0892 24.3165 17.3263 23.8973 17.4794ZM3.84916 7.49601H0.960938V19.6596H3.52307V11.2828L6.78399 17.1351H8.64731L11.9083 11.2828V19.6596H14.4704V7.49601H11.7219L7.78553 14.6106L3.84916 7.49601ZM36.1166 19.9121C35.2936 19.9121 34.5172 19.7897 33.7874 19.5448C33.0575 19.2848 32.4131 18.9023 31.8541 18.3974C31.3106 17.8772 30.8758 17.2269 30.5497 16.4466C30.2237 15.6663 30.0606 14.7483 30.0606 13.6926V13.2335C30.0606 12.2238 30.2159 11.344 30.5264 10.5943C30.837 9.84461 31.2563 9.22495 31.7842 8.73533C32.3277 8.23045 32.9488 7.8556 33.6476 7.61079C34.3464 7.36598 35.0917 7.2436 35.8837 7.2436C37.7625 7.2436 39.1989 7.74082 40.1927 8.73533C41.202 9.72983 41.7066 11.1527 41.7066 13.0041V14.2893H32.6693C32.6848 14.9166 32.7858 15.4521 32.9721 15.8958C33.174 16.3242 33.4302 16.6761 33.7407 16.9515C34.0669 17.2116 34.4318 17.4029 34.8355 17.5253C35.2547 17.6476 35.6818 17.7088 36.1166 17.7088C37.0017 17.7088 37.6461 17.5712 38.0498 17.2958C38.469 17.0204 38.7563 16.6608 38.9116 16.2171H41.4737C41.2253 17.4258 40.612 18.3438 39.6337 18.9711C38.6709 19.5984 37.4986 19.9121 36.1166 19.9121ZM36.0001 9.44678C35.5653 9.44678 35.1461 9.50034 34.7423 9.60746C34.3541 9.71457 34.0047 9.89051 33.6942 10.1353C33.3992 10.3648 33.1585 10.6708 32.9721 11.0533C32.7858 11.4205 32.6848 11.8719 32.6693 12.4074H39.1445C39.129 11.8413 39.0359 11.367 38.865 10.9845C38.7098 10.602 38.4923 10.2959 38.2129 10.0664C37.9333 9.83695 37.5995 9.67628 37.2113 9.58448C36.8386 9.49268 36.4349 9.44678 36.0001 9.44678ZM49.1674 17.5023H47.7699V22.5284H50.1457V19.6596H58.6705V22.5284H61.0463V17.5023H59.4157V7.49601H50.2156V10.9386C50.2156 11.627 50.1923 12.3156 50.1457 13.0041C50.0991 13.6773 50.0292 14.3122 49.9361 14.9089C49.8429 15.4903 49.7265 16.0105 49.5867 16.4695C49.4625 16.9286 49.3227 17.2728 49.1674 17.5023ZM56.8538 9.65335V17.5023H51.7761C52.1022 16.7679 52.3351 15.8652 52.4749 14.7942C52.6147 13.7079 52.6845 12.5757 52.6845 11.3976V9.65335H56.8538ZM68.0421 19.9121C67.2194 19.9121 66.4428 19.7897 65.713 19.5448C64.9831 19.2848 64.3386 18.9023 63.7796 18.3974C63.2364 17.8772 62.8015 17.2269 62.4753 16.4466C62.149 15.6663 61.9862 14.7483 61.9862 13.6926V13.2335C61.9862 12.2238 62.1416 11.344 62.4519 10.5943C62.7628 9.84461 63.1818 9.22495 63.7101 8.73533C64.2532 8.23045 64.8744 7.8556 65.5735 7.61079C66.272 7.36598 67.0173 7.2436 67.8092 7.2436C69.688 7.2436 71.1243 7.74082 72.1184 8.73533C73.1278 9.72983 73.6322 11.1527 73.6322 13.0041V14.2893H64.5948C64.6108 14.9166 64.7115 15.4521 64.8977 15.8958C65.0998 16.3242 65.356 16.6761 65.6663 16.9515C65.9925 17.2116 66.3574 17.4029 66.7611 17.5253C67.1807 17.6476 67.6077 17.7088 68.0421 17.7088C68.9273 17.7088 69.5718 17.5712 69.9754 17.2958C70.3945 17.0204 70.682 16.6608 70.8374 16.2171H73.3993C73.1511 17.4258 72.5374 18.3438 71.5593 18.9711C70.5966 19.5984 69.4244 19.9121 68.0421 19.9121ZM67.9259 9.44678C67.491 9.44678 67.0719 9.50034 66.6677 9.60746C66.28 9.71457 65.9305 9.89051 65.6196 10.1353C65.3247 10.3648 65.0839 10.6708 64.8977 11.0533C64.7115 11.4205 64.6108 11.8719 64.5948 12.4074H71.0703C71.0549 11.8413 70.9615 11.367 70.7907 10.9845C70.6353 10.602 70.4178 10.2959 70.1383 10.0664C69.8587 9.83695 69.5251 9.67628 69.1368 9.58448C68.7645 9.49268 68.3603 9.44678 67.9259 9.44678ZM74.8511 19.8891C75.006 19.9044 75.146 19.9121 75.2701 19.9121C75.9066 19.9121 76.4657 19.7897 76.9473 19.5448C77.4284 19.2848 77.832 18.841 78.1583 18.2138C78.4845 17.5865 78.7253 16.7449 78.8802 15.6893C79.051 14.6182 79.1364 13.2642 79.1364 11.627V9.65335H83.4222V19.6596H85.9847V7.49601H76.6678V11.1681C76.6678 12.4074 76.6285 13.4325 76.5511 14.2434C76.4736 15.0543 76.3569 15.7045 76.2015 16.1941C76.062 16.6684 75.8759 17.0051 75.643 17.204C75.4096 17.3876 75.1301 17.4794 74.8044 17.4794C74.649 17.4794 74.5323 17.4717 74.4548 17.4564V19.8432C74.579 19.8738 74.711 19.8891 74.8511 19.8891ZM94.1328 19.9121C93.2788 19.9121 92.4795 19.7821 91.7342 19.5219C91.0044 19.2465 90.3673 18.8487 89.8242 18.3285C89.2805 17.8083 88.8535 17.1657 88.5432 16.4007C88.2323 15.6204 88.0769 14.7177 88.0769 13.6926V13.2335C88.0769 12.2697 88.2323 11.4205 88.5432 10.6861C88.8535 9.9364 89.2805 9.30909 89.8242 8.8042C90.3673 8.284 91.0044 7.89384 91.7342 7.63371C92.4795 7.37364 93.2788 7.2436 94.1328 7.2436C94.9873 7.2436 95.7792 7.37364 96.5091 7.63371C97.2543 7.89384 97.8988 8.284 98.4419 8.8042C98.9856 9.30909 99.4126 9.9364 99.7229 10.6861C100.034 11.4205 100.189 12.2697 100.189 13.2335V13.6926C100.189 14.7177 100.034 15.6204 99.7229 16.4007C99.4126 17.1657 98.9856 17.8083 98.4419 18.3285C97.8988 18.8487 97.2543 19.2465 96.5091 19.5219C95.7792 19.7821 94.9873 19.9121 94.1328 19.9121ZM94.1328 17.7088C94.5831 17.7088 95.0106 17.6324 95.4143 17.4794C95.8333 17.3263 96.1982 17.0892 96.5091 16.7679C96.8347 16.4466 97.0909 16.0335 97.2777 15.5286C97.4792 15.0237 97.5806 14.4117 97.5806 13.6926V13.2335C97.5806 12.5757 97.4792 12.0096 97.2777 11.5352C97.0909 11.0609 96.8347 10.6708 96.5091 10.3648C96.1982 10.0588 95.8333 9.82929 95.4143 9.67628C95.0106 9.52332 94.5831 9.44678 94.1328 9.44678C93.683 9.44678 93.248 9.52332 92.8285 9.67628C92.4248 9.82929 92.0599 10.0588 91.7342 10.3648C91.4234 10.6708 91.1672 11.0609 90.9651 11.5352C90.7789 12.0096 90.6855 12.5757 90.6855 13.2335V13.6926C90.6855 14.4117 90.7789 15.0237 90.9651 15.5286C91.1672 16.0335 91.4234 16.4466 91.7342 16.7679C92.0599 17.0892 92.4248 17.3263 92.8285 17.4794C93.248 17.6324 93.683 17.7088 94.1328 17.7088Z" fill="white"/>
</g>

</g></symbol><symbol id="mysklad" viewBox="0 0 100 16"><g fill="none">
<g clip-path="url(#clip0_196_586)">
<path fill-rule="evenodd" clip-rule="evenodd" d="M95.391 11.916V8.69304H93.9067V8.81274C93.8806 10.1207 93.6636 11.0611 93.3945 11.916H95.391ZM98.0298 11.916H99.0106L98.95 15.4978H96.5194V14.0018H92.5439L92.5005 15.4978H90.0527V11.916H90.9033C91.3287 10.7106 91.5368 9.53942 91.5368 6.9918V6.63284H98.0298V11.916ZM48.7521 6.17972C46.9726 6.17972 46.1306 5.43596 45.9222 4.14507L47.9273 3.86304C48.023 4.35031 48.2659 4.65804 48.7521 4.65804C49.2382 4.65804 49.4812 4.35031 49.5766 3.86304L51.5818 4.14507C51.3736 5.43596 50.5228 6.17972 48.7521 6.17972ZM39.7332 11.9672C40.6881 11.9672 41.2957 11.2312 41.2957 10.3258C41.2957 9.43757 40.6273 8.68445 39.7071 8.68445C38.7524 8.68445 38.1449 9.42064 38.1449 10.3258C38.1449 11.2143 38.8045 11.9672 39.7332 11.9672ZM39.7332 6.47039C42.1202 6.47039 43.8477 8.20579 43.8477 10.3258C43.8477 12.4203 42.1115 14.1813 39.7071 14.1813C37.3114 14.1813 35.584 12.446 35.584 10.3258C35.584 8.23148 37.3289 6.47039 39.7332 6.47039ZM84.992 12.0015C85.834 12.0015 86.511 11.3089 86.511 10.3088C86.511 9.33428 85.834 8.63329 84.992 8.63329C84.1327 8.63329 83.4556 9.31705 83.4556 10.3344C83.4556 11.3089 84.1327 12.0015 84.992 12.0015ZM86.4591 6.63279H89.0805V14.0018H86.4591V13.0188C85.9468 13.6342 85.3132 14.1643 84.1935 14.1643C82.4053 14.1643 80.869 12.7109 80.869 10.3259C80.869 7.9323 82.4053 6.47032 84.1762 6.47032C85.3132 6.47032 85.9729 6.97482 86.4591 7.53042V6.63279ZM47.4934 10.343L49.9933 6.63279H52.4152V14.0018H49.8716V11.5996C49.8716 11.138 49.8716 10.7106 49.8804 10.2916L47.3806 14.0018H44.9587V6.63279H47.5021V9.00086C47.5021 9.36844 47.5021 9.89849 47.4934 10.343ZM73.3432 8.05188L73.3605 6.63282H79.8013V14.0018H77.1712V8.69302H75.6608V8.92396C75.5827 13.3778 74.5758 14.0958 72.9873 14.0958C72.7356 14.0958 72.2407 14.0531 71.9109 14.0018H68.7947L66.7289 10.8558V14.0018H64.1074V6.63282H66.7289V9.47094L68.734 6.63282H71.7632L69.0899 9.98391L71.8327 13.9163L71.9543 11.6508C72.2407 11.6852 72.3102 11.6852 72.3796 11.6852C72.8484 11.6852 73.3344 11.3517 73.3432 8.05188ZM59.2552 11.6937C60.1754 11.6937 60.809 11.3004 61.3383 10.5482L63.361 12.0014C62.3974 13.2837 61.1821 14.1813 59.0641 14.1813C56.2517 14.1813 54.0992 12.1211 54.0992 9.21453C54.0992 6.50458 56.2345 4.27344 59.1944 4.27344C61.0259 4.27344 62.3625 5.05983 63.3088 6.39349L61.321 7.82102C60.7915 7.09448 60.1579 6.75245 59.3158 6.75245C57.9011 6.75245 56.9202 7.84671 56.9202 9.21453C56.9202 10.7191 57.9444 11.6937 59.2552 11.6937ZM31.4696 4.43583H33.197L35.0546 14.0018H32.4245L31.5738 9.33415L29.2041 14.3182H28.9003L26.5219 9.37707L25.6713 14.0018H23.0586L24.9161 4.43583H26.6347C26.6347 4.43583 28.1277 7.59875 28.423 8.20573C28.7181 8.81271 29.0565 9.59063 29.0565 9.59063C29.0565 9.59063 29.4905 8.59053 29.7075 8.16311C29.9247 7.73568 31.4696 4.43583 31.4696 4.43583Z" fill="white"/>
<path fill-rule="evenodd" clip-rule="evenodd" d="M2.85156 14.7834C5.21972 14.7834 7.01017 11.7469 8.61528 8.43172C9.38782 6.82449 10.1082 5.14048 10.8286 3.71281C11.6197 2.1292 12.4311 1.01147 13.424 1.01147C14.2656 1.01147 15.0576 1.68083 15.8458 2.72964C17.48 4.90717 18.8926 8.59479 18.8926 11.0134C18.8926 13.0394 17.8337 14.7834 15.6635 14.7834H2.85156Z" fill="white"/>
<path fill-rule="evenodd" clip-rule="evenodd" d="M8.61244 8.43072C6.98588 5.2012 6.24943 2.83167 4.81075 2.83167C3.91672 2.83167 2.9099 3.75492 1.99853 5.26788C1.02218 6.87336 0.253906 9.13879 0.253906 11.5765C0.253906 13.5014 1.21051 14.782 2.84913 14.782C5.21652 14.782 7.00744 11.7456 8.61244 8.43072Z" fill="white"/>
</g>

</g></symbol><symbol id="our-principles-01" viewBox="0 0 32 32"><g fill="none">
<path d="M8.38225 24.0001C5.22634 24.0001 2.66797 21.4718 2.66797 18.353C2.66797 15.2342 5.22634 12.706 8.38225 12.706C8.76108 12.706 9.1313 12.7424 9.48951 12.8119M19.1759 9.3697C19.9703 9.09223 20.8251 8.94126 21.7156 8.94126C22.5885 8.94126 23.4271 9.08632 24.2081 9.35338M9.48951 12.8119C9.18405 11.9971 9.01717 11.1159 9.01717 10.1962C9.01717 6.03778 12.4283 2.66675 16.6362 2.66675C20.5558 2.66675 23.7841 5.59169 24.2081 9.35338M9.48951 12.8119C10.2421 12.9579 10.9417 13.25 11.5569 13.6569M24.2081 9.35338C27.1919 10.3737 29.3346 13.1749 29.3346 16.4707C29.3346 20.08 26.7648 23.0962 23.3346 23.8297" stroke="white" stroke-width="2" stroke-linecap="round"/>
<path d="M11.332 22.6667C11.332 20.7811 11.332 19.8383 11.9178 19.2525C12.5036 18.6667 13.4464 18.6667 15.332 18.6667H16.6654C18.551 18.6667 19.4938 18.6667 20.0796 19.2525C20.6654 19.8383 20.6654 20.7811 20.6654 22.6667V25.3334C20.6654 27.219 20.6654 28.1618 20.0796 28.7476C19.4938 29.3334 18.551 29.3334 16.6654 29.3334H15.332C13.4464 29.3334 12.5036 29.3334 11.9178 28.7476C11.332 28.1618 11.332 27.219 11.332 25.3334V22.6667Z" stroke="white" stroke-width="2"/>
<path d="M14.668 24H17.3346" stroke="white" stroke-width="2" stroke-linecap="round" stroke-linejoin="round"/>
</g></symbol><symbol id="our-principles-02" viewBox="0 0 32 32"><g fill="none">
<path d="M9.33464 23.9978C6.4346 23.9816 4.86405 23.853 3.83954 22.8285C2.66797 21.6569 2.66797 19.7713 2.66797 16.0001L2.66797 10.6667C2.66797 6.89551 2.66797 5.00989 3.83954 3.83832C5.01111 2.66675 6.89673 2.66675 10.668 2.66675L21.3346 2.66675C25.1059 2.66675 26.9915 2.66675 28.1631 3.83832C29.3346 5.00989 29.3346 6.89551 29.3346 10.6667V16.0001C29.3346 19.7713 29.3346 21.6569 28.1631 22.8285C27.1899 23.8017 25.7241 23.9665 23.0942 23.9944L22.0013 23.9978" stroke="white" stroke-width="2"/>
<path d="M12 8L20 8" stroke="white" stroke-width="2" stroke-linecap="round"/>
<path d="M9.33203 12.6667H22.6654" stroke="white" stroke-width="2" stroke-linecap="round"/>
<path d="M14.5226 18.5938C15.3749 17.8675 16.6285 17.8675 17.4808 18.5938C17.8461 18.9051 18.3002 19.0932 18.7785 19.1314C19.8948 19.2204 20.7813 20.1069 20.8703 21.2232C20.9085 21.7015 21.0966 22.1556 21.4079 22.5209C22.1342 23.3732 22.1342 24.6268 21.4079 25.4791C21.0966 25.8444 20.9085 26.2985 20.8703 26.7768C20.7813 27.8931 19.8948 28.7796 18.7785 28.8686C18.3002 28.9068 17.8461 29.0949 17.4808 29.4062C16.6285 30.1325 15.3749 30.1325 14.5226 29.4062C14.1573 29.0949 13.7032 28.9068 13.2249 28.8686C12.1086 28.7796 11.2222 27.8931 11.1331 26.7768C11.0949 26.2985 10.9068 25.8444 10.5955 25.4791C9.86919 24.6268 9.86919 23.3732 10.5955 22.5209C10.9068 22.1556 11.0949 21.7015 11.1331 21.2232C11.2222 20.1069 12.1086 19.2204 13.2249 19.1314C13.7032 19.0932 14.1573 18.9051 14.5226 18.5938Z" stroke="white" stroke-width="2"/>
<path d="M14 24.2667L15.1429 25.3334L18 22.6667" stroke="white" stroke-width="2" stroke-linecap="round" stroke-linejoin="round"/>
</g></symbol><symbol id="our-principles-03" viewBox="0 0 32 32"><g fill="none">
<path d="M4 16C4 21.0283 4 26.2091 5.75736 27.7712C7.51472 29.3333 10.3431 29.3333 16 29.3333C21.6569 29.3333 24.4853 29.3333 26.2426 27.7712C28 26.2091 28 21.0283 28 16" stroke="white" stroke-width="2"/>
<path d="M19.5484 18.936L27.5581 16.533C28.3521 16.2948 28.7491 16.1757 29.001 15.8903C29.0501 15.8347 29.0944 15.7751 29.1336 15.7121C29.3346 15.3888 29.3346 14.9743 29.3346 14.1453C29.3346 10.8784 29.3346 9.24501 28.4373 8.14221C28.2649 7.93025 28.0711 7.73652 27.8592 7.56406C26.7564 6.66675 25.1229 6.66675 21.8561 6.66675H10.1465C6.87967 6.66675 5.24623 6.66675 4.14343 7.56406C3.93147 7.73652 3.73774 7.93025 3.56528 8.14221C2.66797 9.24501 2.66797 10.8784 2.66797 14.1453C2.66797 14.9743 2.66797 15.3888 2.869 15.7121C2.90817 15.7751 2.95251 15.8347 3.00159 15.8903C3.2535 16.1757 3.6505 16.2948 4.44451 16.533L12.4542 18.936" stroke="white" stroke-width="2"/>
<path d="M8.66797 6.66675C9.76589 6.63892 10.8803 5.93996 11.2539 4.90717C11.2654 4.87541 11.2772 4.84006 11.3007 4.76938L11.3349 4.66675C11.3912 4.49801 11.4193 4.4136 11.4494 4.33875C11.8337 3.38291 12.7341 2.7339 13.7624 2.67163C13.843 2.66675 13.9319 2.66675 14.1098 2.66675H17.8934C18.0713 2.66675 18.1603 2.66675 18.2408 2.67163C19.2691 2.7339 20.1695 3.38291 20.5538 4.33875C20.5839 4.4136 20.612 4.49799 20.6683 4.66675L20.7025 4.76938C20.7259 4.83965 20.7379 4.8755 20.7493 4.90717C21.1229 5.93996 22.2367 6.63892 23.3346 6.66675" stroke="white" stroke-width="2"/>
<path d="M18.668 16.6667H13.3346C12.9664 16.6667 12.668 16.9652 12.668 17.3334V20.2154C12.668 20.488 12.8339 20.7331 13.087 20.8344L14.0206 21.2078C15.2921 21.7164 16.7105 21.7164 17.9821 21.2078L18.9156 20.8344C19.1687 20.7331 19.3346 20.488 19.3346 20.2154V17.3334C19.3346 16.9652 19.0362 16.6667 18.668 16.6667Z" stroke="white" stroke-width="2" stroke-linecap="round"/>
</g></symbol><symbol id="our-principles-04" viewBox="0 0 32 32"><g fill="none">
<path d="M4.62059 27.3808C6.57321 29.3334 9.71591 29.3334 16.0013 29.3334C22.2867 29.3334 25.4294 29.3334 27.382 27.3808C29.3346 25.4282 29.3346 22.2855 29.3346 16.0001C29.3346 9.71469 29.3346 6.57199 27.382 4.61937C25.4294 2.66675 22.2867 2.66675 16.0013 2.66675C9.71591 2.66675 6.57321 2.66675 4.62059 4.61937C2.66797 6.57199 2.66797 9.71469 2.66797 16.0001C2.66797 22.2855 2.66797 25.4282 4.62059 27.3808Z" stroke="white" stroke-width="2"/>
<path d="M24 11.3334H18.6667M24 19.3334H18.6667M24 23.3334H18.6667M13.3333 11.3334H10.6667M10.6667 11.3334L8 11.3334M10.6667 11.3334L10.6667 8.66672M10.6667 11.3334L10.6667 14M12.6667 19.3334L10.6667 21.3334M10.6667 21.3334L8.66668 23.3334M10.6667 21.3334L8.66667 19.3334M10.6667 21.3334L12.6666 23.3334" stroke="white" stroke-width="2" stroke-linecap="round"/>
</g></symbol><symbol id="our-principles-05" viewBox="0 0 32 32"><g fill="none">
<path d="M4 13.889C4 9.62551 4 7.49379 4.50335 6.77663C5.00671 6.05947 7.0111 5.37336 11.0199 4.00114L11.7836 3.7397C13.8733 3.0244 14.9181 2.66675 16 2.66675C17.0819 2.66675 18.1267 3.0244 20.2164 3.7397L20.9801 4.00114C24.9889 5.37336 26.9933 6.05947 27.4966 6.77663C28 7.49379 28 9.62551 28 13.889C28 14.5329 28 15.2313 28 15.9886C28 23.506 22.348 27.1541 18.8019 28.7031C17.84 29.1233 17.359 29.3334 16 29.3334C14.641 29.3334 14.16 29.1233 13.1981 28.7031C9.65195 27.1541 4 23.506 4 15.9886C4 15.2313 4 14.5329 4 13.889Z" stroke="white" stroke-width="2"/>
<path d="M12.668 16.5333L14.5727 18.6666L19.3346 13.3333" stroke="white" stroke-width="2" stroke-linecap="round" stroke-linejoin="round"/>
</g></symbol><symbol id="our-principles-06" viewBox="0 0 32 32"><g fill="none">
<path d="M2.66797 16.0001C2.66797 9.71469 2.66797 6.57199 4.62059 4.61937C6.57321 2.66675 9.71591 2.66675 16.0013 2.66675C22.2867 2.66675 25.4294 2.66675 27.382 4.61937C29.3346 6.57199 29.3346 9.71469 29.3346 16.0001C29.3346 22.2855 29.3346 25.4282 27.382 27.3808C25.4294 29.3334 22.2867 29.3334 16.0013 29.3334C9.71591 29.3334 6.57321 29.3334 4.62059 27.3808C2.66797 25.4282 2.66797 22.2855 2.66797 16.0001Z" stroke="white" stroke-width="2"/>
<path d="M8 21.0667L9.52381 22.6667L13.3333 18.6667" stroke="white" stroke-width="2" stroke-linecap="round" stroke-linejoin="round"/>
<path d="M8 11.7333L9.52381 13.3333L13.3333 9.33325" stroke="white" stroke-width="2" stroke-linecap="round" stroke-linejoin="round"/>
<path d="M17.332 12L23.9987 12" stroke="white" stroke-width="2" stroke-linecap="round"/>
<path d="M17.332 21.3333H23.9987" stroke="white" stroke-width="2" stroke-linecap="round"/>
</g></symbol><symbol id="our-principles-07" viewBox="0 0 32 32"><g fill="none">
<path d="M29.3346 16.0001C29.3346 23.3639 23.3651 29.3334 16.0013 29.3334C8.6375 29.3334 2.66797 23.3639 2.66797 16.0001C2.66797 8.63628 8.6375 2.66675 16.0013 2.66675C23.3651 2.66675 29.3346 8.63628 29.3346 16.0001Z" stroke="white" stroke-width="2" stroke-linecap="round" stroke-dasharray="0.5 3.5"/>
<path d="M29.332 16.0001C29.332 8.63628 23.3625 2.66675 15.9987 2.66675" stroke="white" stroke-width="2" stroke-linecap="round"/>
<path d="M16 12V17.3333H21.3333" stroke="white" stroke-width="2" stroke-linecap="round" stroke-linejoin="round"/>
</g></symbol><symbol id="pencil" viewBox="0 0 33 32"><g fill="none">
<path fill-rule="evenodd" clip-rule="evenodd" d="M31.5805 31.5659H19.4922C18.8022 31.5659 18.2422 31.0059 18.2422 30.3159C18.2422 29.6259 18.8022 29.0659 19.4922 29.0659H31.5805C32.2705 29.0659 32.8305 29.6259 32.8305 30.3159C32.8305 31.0059 32.2705 31.5659 31.5805 31.5659Z" fill="white"/>
<mask id="mask0_832_1160" style="mask-type:luminance" maskUnits="userSpaceOnUse" x="0" y="0" width="29" height="32">
<path fill-rule="evenodd" clip-rule="evenodd" d="M0.328125 0H28.9624V31.5659H0.328125V0Z" fill="white"/>
</mask>
<g mask="url(#mask0_832_1160)">
<path fill-rule="evenodd" clip-rule="evenodd" d="M18.8446 3.36102L3.15298 22.986C2.86798 23.3427 2.76298 23.8027 2.86798 24.2444L4.00298 29.0527L9.06798 28.9894C9.54965 28.9844 9.99465 28.7694 10.2896 28.4027C15.6513 21.6944 25.873 8.90435 26.163 8.52935C26.4363 8.08602 26.543 7.45935 26.3996 6.85602C26.253 6.23769 25.868 5.71269 25.313 5.37769C25.1946 5.29602 22.3863 3.11602 22.2996 3.04768C21.243 2.20102 19.7013 2.34768 18.8446 3.36102ZM3.01692 31.5661C2.43858 31.5661 1.93525 31.1694 1.80025 30.6044L0.435249 24.8194C0.153582 23.6211 0.433582 22.3844 1.20192 21.4244L16.9019 1.78774C16.9086 1.78107 16.9136 1.77274 16.9202 1.76607C18.6419 -0.292262 21.7552 -0.595596 23.8552 1.0894C23.9386 1.1544 26.7269 3.32107 26.7269 3.32107C27.7402 3.9244 28.5319 5.00274 28.8319 6.2794C29.1302 7.54274 28.9136 8.84607 28.2186 9.94774C28.1669 10.0294 28.1219 10.0994 12.2419 29.9661C11.4769 30.9194 10.3302 31.4744 9.09858 31.4894L3.03358 31.5661H3.01692Z" fill="white"/>
</g>
<path fill-rule="evenodd" clip-rule="evenodd" d="M24.0319 14.4745C23.7652 14.4745 23.4985 14.3895 23.2702 14.2161L14.1835 7.23612C13.6369 6.81612 13.5335 6.03279 13.9535 5.48279C14.3752 4.93612 15.1585 4.83445 15.7069 5.25445L24.7952 12.2328C25.3419 12.6528 25.4452 13.4378 25.0235 13.9861C24.7785 14.3061 24.4069 14.4745 24.0319 14.4745Z" fill="white"/>
</g></symbol><symbol id="project-stages-01" viewBox="0 0 25 25"><g fill="none">
<path d="M8.87953 8.94507L8.66498 8.75002H8.37502H2C1.58579 8.75002 1.25 8.41423 1.25 8.00002V2C1.25 1.58579 1.58579 1.25 2 1.25H11C11.4142 1.25 11.75 1.58579 11.75 2V11.5546L8.87953 8.94507Z" stroke="white" stroke-width="1.5"/>
<mask id="path-2-inside-1_263_3361" fill="white">
<path d="M12.5 21.5C12.5 19.8431 13.8431 18.5 15.5 18.5H21.5C23.1569 18.5 24.5 19.8431 24.5 21.5V23.75C24.5 24.1642 24.1642 24.5 23.75 24.5H13.25C12.8358 24.5 12.5 24.1642 12.5 23.75V21.5Z"/>
</mask>
<path d="M12.5 21.5C12.5 19.8431 13.8431 18.5 15.5 18.5H21.5C23.1569 18.5 24.5 19.8431 24.5 21.5V23.75C24.5 24.1642 24.1642 24.5 23.75 24.5H13.25C12.8358 24.5 12.5 24.1642 12.5 23.75V21.5Z" stroke="white" stroke-width="3.00001" mask="url(#path-2-inside-1_263_3361)"/>
<circle cx="18.5" cy="14.75" r="2.25001" stroke="white" stroke-width="1.5"/>
</g></symbol><symbol id="project-stages-02" viewBox="0 0 25 25"><g fill="none">
<path d="M2.0874 12.5002C2.0874 7.5897 2.0874 5.13447 3.61289 3.60898C5.13837 2.0835 7.59361 2.0835 12.5041 2.0835C17.4145 2.0835 19.8698 2.0835 21.3952 3.60898C22.9207 5.13447 22.9207 7.5897 22.9207 12.5002C22.9207 17.4106 22.9207 19.8659 21.3952 21.3913C19.8698 22.9168 17.4145 22.9168 12.5041 22.9168C7.59361 22.9168 5.13837 22.9168 3.61289 21.3913C2.0874 19.8659 2.0874 17.4106 2.0874 12.5002Z" stroke="white" stroke-width="2"/>
<path d="M6.25 16.4583L7.44048 17.7083L10.4167 14.5833" stroke="white" stroke-width="2" stroke-linecap="round" stroke-linejoin="round"/>
<path d="M6.25 9.16675L7.44048 10.4167L10.4167 7.29175" stroke="white" stroke-width="2" stroke-linecap="round" stroke-linejoin="round"/>
<path d="M13.5376 9.375L18.7459 9.375" stroke="white" stroke-width="2" stroke-linecap="round"/>
<path d="M13.5376 16.6665H18.7459" stroke="white" stroke-width="2" stroke-linecap="round"/>
</g></symbol><symbol id="project-stages-03" viewBox="0 0 25 25"><g fill="none">
<mask id="path-1-inside-1_263_3386" fill="white">
<path d="M0.5 10.25C0.5 8.59315 1.84315 7.25 3.50001 7.25H9.50002C11.1569 7.25 12.5 8.59315 12.5 10.25V12.5C12.5 12.9142 12.1642 13.25 11.75 13.25H1.25C0.835787 13.25 0.5 12.9142 0.5 12.5V10.25Z"/>
</mask>
<path d="M0.5 10.25C0.5 8.59315 1.84315 7.25 3.50001 7.25H9.50002C11.1569 7.25 12.5 8.59315 12.5 10.25V12.5C12.5 12.9142 12.1642 13.25 11.75 13.25H1.25C0.835787 13.25 0.5 12.9142 0.5 12.5V10.25Z" stroke="white" stroke-width="3.00001" mask="url(#path-1-inside-1_263_3386)"/>
<mask id="path-2-inside-2_263_3386" fill="white">
<path d="M12.5 21.5C12.5 19.8431 13.8431 18.5 15.5 18.5H21.5C23.1569 18.5 24.5 19.8431 24.5 21.5V23.75C24.5 24.1642 24.1642 24.5 23.75 24.5H13.25C12.8358 24.5 12.5 24.1642 12.5 23.75V21.5Z"/>
</mask>
<path d="M12.5 21.5C12.5 19.8431 13.8431 18.5 15.5 18.5H21.5C23.1569 18.5 24.5 19.8431 24.5 21.5V23.75C24.5 24.1642 24.1642 24.5 23.75 24.5H13.25C12.8358 24.5 12.5 24.1642 12.5 23.75V21.5Z" stroke="white" stroke-width="3.00001" mask="url(#path-2-inside-2_263_3386)"/>
<circle cx="6.50001" cy="3.50001" r="2.25001" stroke="white" stroke-width="1.5"/>
<circle cx="18.5" cy="14.75" r="2.25001" stroke="white" stroke-width="1.5"/>
</g></symbol><symbol id="project-stages-04" viewBox="0 0 25 25"><g fill="none">
<path d="M19.25 14C19.25 18.5564 15.5564 22.25 11 22.25C6.44366 22.25 2.75 18.5564 2.75 14C2.75 9.44366 6.81866 5.75 11.375 5.75" stroke="white" stroke-width="1.5" stroke-linecap="round" stroke-dasharray="0.38 2.63"/>
<path d="M19.25 14.75C19.2495 9.50001 15.875 5.75 11 5.75" stroke="white" stroke-width="1.5" stroke-linecap="round"/>
<path d="M12.875 8.75001L10.625 5.75001L14 3.5" stroke="white" stroke-width="1.5" stroke-linecap="round" stroke-linejoin="round"/>
</g></symbol><symbol id="project-stages-05" viewBox="0 0 25 25"><g fill="none">
<path d="M2.50781 12.5005C2.50781 7.78646 2.50781 5.42943 3.97228 3.96496C5.43675 2.50049 7.79378 2.50049 12.5078 2.50049C17.2219 2.50049 19.5789 2.50049 21.0434 3.96496C22.5079 5.42943 22.5079 7.78646 22.5079 12.5005C22.5079 17.2146 22.5079 19.5716 21.0434 21.0361C19.5789 22.5005 17.2219 22.5005 12.5078 22.5005C7.79378 22.5005 5.43675 22.5005 3.97228 21.0361C2.50781 19.5716 2.50781 17.2146 2.50781 12.5005Z" stroke="white" stroke-width="1.5"/>
<path d="M6.5 14.1505L9.92858 17.7505L18.5 8.75049" stroke="white" stroke-width="1.5" stroke-linecap="round" stroke-linejoin="round"/>
</g></symbol><symbol id="retail-crm" viewBox="0 0 90 17"><g fill="none">
<g clip-path="url(#clip0_196_612)">
<path d="M18.791 13.7659C19.7708 13.7659 20.5779 13.399 21.0893 12.8653C21.1503 12.8042 21.2294 12.7651 21.3144 12.7538C21.3994 12.7426 21.4858 12.7599 21.5602 12.803L23.3431 13.8401C23.3763 13.8589 23.405 13.8849 23.4273 13.9161C23.4496 13.9473 23.4649 13.9831 23.4721 14.021C23.4793 14.0588 23.4783 14.0978 23.4692 14.1352C23.46 14.1725 23.4428 14.2075 23.419 14.2375C22.3725 15.6163 20.7662 16.4004 18.7492 16.4004C15.0134 16.4004 12.6562 13.811 12.6562 10.456C12.6562 7.10097 15.0356 4.51154 18.5294 4.51154C21.8205 4.51154 24.1541 7.146 24.1541 10.456C24.1534 10.7797 24.1285 11.1029 24.0795 11.4229C24.0704 11.4863 24.0388 11.5442 23.9907 11.5858C23.9426 11.6275 23.8812 11.65 23.8179 11.6494H15.8388C15.8176 11.6492 15.7968 11.6541 15.778 11.6639C15.7592 11.6736 15.743 11.6878 15.7308 11.7052C15.7186 11.7226 15.7107 11.7428 15.7079 11.764C15.705 11.7852 15.7073 11.8067 15.7145 11.8268C16.1579 13.1858 17.343 13.7659 18.791 13.7659ZM21.1142 9.39503C21.1343 9.39563 21.1544 9.3915 21.1727 9.38295C21.191 9.37441 21.2072 9.36169 21.2198 9.34578C21.2325 9.32988 21.2414 9.31122 21.2457 9.29127C21.2501 9.27133 21.2498 9.25062 21.245 9.23079C20.8526 7.73011 19.6871 7.12084 18.5268 7.12084C17.0526 7.12084 16.0297 7.89038 15.6556 9.22947C15.6505 9.24939 15.6501 9.27024 15.6544 9.29036C15.6586 9.31048 15.6674 9.32932 15.6801 9.34539C15.6928 9.36146 15.709 9.37431 15.7275 9.38293C15.7459 9.39154 15.7661 9.39569 15.7864 9.39503H21.1142Z" fill="white"/>
<path d="M29.0067 7.61571V12.5168C29.0067 13.6639 29.7772 13.7487 31.2449 13.6798C31.2804 13.678 31.3158 13.6835 31.3491 13.696C31.3823 13.7085 31.4127 13.7278 31.4384 13.7525C31.4641 13.7773 31.4846 13.8071 31.4985 13.8402C31.5125 13.8732 31.5197 13.9088 31.5196 13.9447V16.0641C31.5199 16.13 31.496 16.1937 31.4525 16.2426C31.4089 16.2916 31.3489 16.3224 31.2842 16.329C27.4408 16.7065 26.1379 15.5011 26.1379 12.5208V7.61571H24.4648C24.3954 7.61571 24.3288 7.5878 24.2798 7.53812C24.2307 7.48844 24.2031 7.42105 24.2031 7.35079V5.09895C24.2031 5.02869 24.2307 4.96131 24.2798 4.91162C24.3288 4.86194 24.3954 4.83403 24.4648 4.83403H26.1379V2.84711C26.1379 2.76186 26.165 2.67889 26.2152 2.61043C26.2654 2.54197 26.3359 2.49167 26.4165 2.46695L28.6692 1.77683C28.7082 1.76484 28.7495 1.76228 28.7897 1.76933C28.8299 1.77638 28.8679 1.79286 28.9007 1.81744C28.9335 1.84202 28.9602 1.87403 28.9786 1.91091C28.997 1.94779 29.0066 1.98851 29.0067 2.02983V4.83403H31.258C31.3274 4.83403 31.3939 4.86194 31.443 4.91162C31.4921 4.96131 31.5196 5.02869 31.5196 5.09895V7.35079C31.5196 7.42105 31.4921 7.48844 31.443 7.53812C31.3939 7.5878 31.3274 7.61571 31.258 7.61571H29.0067Z" fill="white"/>
<path d="M43.4632 5.0983V15.8269C43.4632 15.8971 43.4356 15.9645 43.3866 16.0142C43.3375 16.0639 43.271 16.0918 43.2016 16.0918H40.8562C40.7869 16.0918 40.7203 16.0639 40.6713 16.0142C40.6222 15.9645 40.5946 15.8971 40.5946 15.8269V14.7673C39.7941 15.7805 38.5933 16.411 36.97 16.411C34.0125 16.411 31.5664 13.8216 31.5664 10.4666C31.5664 7.11156 34.0125 4.51154 36.9726 4.51154C38.5959 4.51154 39.7967 5.14201 40.5972 6.15526V5.0983C40.5972 5.02804 40.6248 4.96066 40.6739 4.91098C40.7229 4.8613 40.7895 4.83339 40.8589 4.83339H43.2042C43.2731 4.83409 43.339 4.86231 43.3875 4.91191C43.436 4.96152 43.4632 5.0285 43.4632 5.0983ZM40.5946 10.4626C40.5946 8.57118 39.2866 7.28375 37.5037 7.28375C35.747 7.28375 34.435 8.56721 34.435 10.4626C34.435 12.358 35.743 13.6414 37.5037 13.6414C39.2826 13.6308 40.5946 12.3474 40.5946 10.456V10.4626Z" fill="white"/>
<path d="M44.4616 2.0264C44.4551 1.7837 44.4967 1.54215 44.584 1.316C44.6712 1.08986 44.8024 0.883711 44.9696 0.709732C45.1368 0.535752 45.3368 0.397468 45.5577 0.303044C45.7786 0.208621 46.0159 0.159973 46.2557 0.159973C46.4955 0.159973 46.7328 0.208621 46.9537 0.303044C47.1746 0.397468 47.3746 0.535752 47.5418 0.709732C47.7091 0.883711 47.8402 1.08986 47.9275 1.316C48.0147 1.54215 48.0563 1.7837 48.0499 2.0264C48.0372 2.49973 47.8427 2.94938 47.5076 3.27964C47.1725 3.60991 46.7233 3.79471 46.2557 3.79471C45.7881 3.79471 45.339 3.60991 45.0039 3.27964C44.6688 2.94938 44.4742 2.49973 44.4616 2.0264ZM45.083 4.83458H47.4298C47.4992 4.83458 47.5657 4.86249 47.6148 4.91217C47.6639 4.96185 47.6914 5.02924 47.6914 5.0995V15.8289C47.6914 15.8991 47.6639 15.9665 47.6148 16.0162C47.5657 16.0659 47.4992 16.0938 47.4298 16.0938H45.083C45.0136 16.0938 44.947 16.0659 44.898 16.0162C44.8489 15.9665 44.8213 15.8991 44.8213 15.8289V5.0995C44.8213 5.02924 44.8489 4.96185 44.898 4.91217C44.947 4.86249 45.0136 4.83458 45.083 4.83458Z" fill="white"/>
<path d="M49.2851 0.199036H51.6293C51.6973 0.199005 51.7627 0.225822 51.8116 0.273799C51.8604 0.321775 51.8889 0.387135 51.8909 0.45601V15.8294C51.8889 15.8983 51.8604 15.9637 51.8116 16.0117C51.7627 16.0596 51.6973 16.0865 51.6293 16.0864H49.2851C49.217 16.0865 49.1516 16.0596 49.1028 16.0117C49.0539 15.9637 49.0255 15.8983 49.0234 15.8294V0.45601C49.0255 0.387135 49.0539 0.321775 49.1028 0.273799C49.1516 0.225822 49.217 0.199005 49.2851 0.199036Z" fill="white"/>
<path d="M53.2227 10.456C53.2227 7.10097 55.708 4.51154 59.0932 4.51154C61.1717 4.51154 62.9886 5.57115 63.9422 7.18044C63.9605 7.21057 63.9727 7.24412 63.9781 7.2791C63.9834 7.31409 63.9817 7.3498 63.9732 7.38412C63.9647 7.41844 63.9494 7.45069 63.9284 7.47895C63.9073 7.50721 63.8809 7.53091 63.8506 7.54865L61.9435 8.67449C61.8578 8.72569 61.756 8.74199 61.6589 8.7201C61.5618 8.69822 61.4765 8.63978 61.4203 8.55661C60.9245 7.82018 60.0651 7.36455 59.0658 7.36455C57.3535 7.36455 56.086 8.648 56.086 10.4493C56.086 12.2282 57.3535 13.5116 59.0658 13.5116C60.0847 13.5116 60.9481 13.0745 61.4425 12.3394C61.4983 12.2578 61.5823 12.2002 61.678 12.1782C61.7736 12.1561 61.8739 12.1711 61.9592 12.2202L63.8833 13.3341C63.9141 13.3519 63.941 13.3758 63.9624 13.4043C63.9838 13.4329 63.9993 13.4656 64.0079 13.5004C64.0164 13.5352 64.0179 13.5714 64.0123 13.6068C64.0066 13.6422 63.9939 13.6761 63.9749 13.7063C63.454 14.5393 62.7315 15.2235 61.876 15.6941C61.0204 16.1647 60.0603 16.406 59.0867 16.3951C55.7132 16.4004 53.2227 13.811 53.2227 10.456Z" fill="white"/>
<path d="M71.5689 4.87973V7.56055C71.569 7.5966 71.5618 7.63228 71.5477 7.66541C71.5337 7.69853 71.5131 7.72841 71.4873 7.75321C71.4614 7.77801 71.4309 7.79721 71.3975 7.80963C71.364 7.82205 71.3285 7.82744 71.2929 7.82545C69.854 7.75658 68.1889 8.48771 68.1889 10.7076V15.8308C68.1889 15.9011 68.1613 15.9685 68.1123 16.0182C68.0632 16.0678 67.9967 16.0957 67.9273 16.0957H65.5819C65.5125 16.0957 65.446 16.0678 65.3969 16.0182C65.3479 15.9685 65.3203 15.9011 65.3203 15.8308V5.10225C65.3203 5.03199 65.3479 4.96461 65.3969 4.91493C65.446 4.86525 65.5125 4.83734 65.5819 4.83734H67.9273C67.9967 4.83734 68.0632 4.86525 68.1123 4.91493C68.1613 4.96461 68.1889 5.03199 68.1889 5.10225V6.76716C68.7291 5.33669 69.9875 4.69297 71.2929 4.6135C71.3286 4.61151 71.3643 4.61693 71.3978 4.62944C71.4313 4.64194 71.4619 4.66125 71.4877 4.6862C71.5136 4.71114 71.5341 4.74118 71.5481 4.77446C71.5621 4.80774 71.5691 4.84357 71.5689 4.87973Z" fill="white"/>
<path d="M89.4073 9.15285V15.8302C89.4073 15.9005 89.3797 15.9679 89.3307 16.0175C89.2816 16.0672 89.215 16.0951 89.1457 16.0951H86.8001C86.7308 16.0951 86.6642 16.0672 86.6151 16.0175C86.5661 15.9679 86.5385 15.9005 86.5385 15.8302V9.35552C86.5385 8.03091 85.8713 7.21627 84.6705 7.21627C83.4029 7.21627 82.6023 8.07197 82.6023 9.76085V15.8302C82.6023 15.9005 82.5747 15.9679 82.5256 16.0175C82.4766 16.0672 82.41 16.0951 82.3406 16.0951H79.9951C79.9257 16.0951 79.8592 16.0672 79.8101 16.0175C79.7611 15.9679 79.7335 15.9005 79.7335 15.8302V9.35552C79.7335 8.03091 79.0663 7.21627 77.8655 7.21627C76.6423 7.21627 75.7724 8.07197 75.7724 9.76085V15.8302C75.7724 15.9005 75.7448 15.9679 75.6958 16.0175C75.6467 16.0672 75.5802 16.0951 75.5108 16.0951H73.1679C73.0985 16.0951 73.0319 16.0672 72.9829 16.0175C72.9338 15.9679 72.9062 15.9005 72.9062 15.8302V5.10086C72.9062 5.0306 72.9338 4.96322 72.9829 4.91354C73.0319 4.86385 73.0985 4.83594 73.1679 4.83594H75.5134C75.5828 4.83594 75.6493 4.86385 75.6984 4.91354C75.7475 4.96322 75.775 5.0306 75.775 5.10086V6.02809C76.3977 5.08232 77.4429 4.51936 78.8662 4.51936C80.245 4.51936 81.268 5.10484 81.8906 6.14068C82.58 5.12736 83.692 4.51936 85.2042 4.51936C87.7394 4.51406 89.4073 6.33805 89.4073 9.15285Z" fill="white"/>
<path d="M12.1282 4.492H2.64212C2.1016 4.49306 1.58358 4.71121 1.20175 5.0986C0.819917 5.48598 0.605468 6.01094 0.605469 6.55825L0.605469 16.1623C0.605469 16.2326 0.633031 16.3 0.682093 16.3496C0.731155 16.3993 0.797697 16.4272 0.867081 16.4272H3.23205C3.30144 16.4272 3.36798 16.3993 3.41704 16.3496C3.4661 16.3 3.49366 16.2326 3.49366 16.1623V10.9292C3.49337 10.3811 3.32518 9.84658 3.0123 9.39934L2.05349 8.02714L9.91755 15.9888C9.94189 16.0138 9.9709 16.0337 10.0029 16.0473C10.0349 16.0609 10.0693 16.0678 10.1039 16.0678C10.1386 16.0678 10.173 16.0609 10.205 16.0473C10.237 16.0337 10.266 16.0138 10.2903 15.9888L11.9594 14.2974C11.9841 14.2728 12.0038 14.2434 12.0172 14.211C12.0306 14.1786 12.0375 14.1438 12.0375 14.1087C12.0375 14.0735 12.0306 14.0388 12.0172 14.0064C12.0038 13.9739 11.9841 13.9446 11.9594 13.9199L4.10322 5.96619L5.44529 6.92912C5.88697 7.24594 6.41482 7.41624 6.9561 7.41654H12.1282C12.1975 7.41654 12.2641 7.38863 12.3132 7.33895C12.3622 7.28927 12.3898 7.22189 12.3898 7.15163V4.75691C12.3898 4.68665 12.3622 4.61927 12.3132 4.56959C12.2641 4.51991 12.1975 4.492 12.1282 4.492Z" fill="white"/>
<path d="M12.1229 0.199036H0.867081C0.722596 0.199036 0.605469 0.317637 0.605469 0.463939V2.87456C0.605469 3.02086 0.722596 3.13946 0.867081 3.13946H12.1229C12.2674 3.13946 12.3845 3.02086 12.3845 2.87456V0.463939C12.3845 0.317637 12.2674 0.199036 12.1229 0.199036Z" fill="white"/>
</g>

</g></symbol><symbol id="small-arrow" viewBox="0 0 14 12"><g fill="none">
<path d="M14 6L2 6M2 6L6.44444 11M2 6L6.44445 0.999999" stroke="#2D69C3" stroke-width="2"/>
</g></symbol><symbol id="tech-stack-logos" viewBox="0 0 120 120"><g fill="none">
<path d="M92.0888 41.8772C92.1126 41.9655 92.1248 42.0566 92.1251 42.1481V56.3709C92.1251 56.5534 92.0769 56.7327 91.9854 56.8907C91.8939 57.0487 91.7623 57.1797 91.604 57.2705L79.6666 64.1434V77.7659C79.6666 78.1367 79.4695 78.4789 79.148 78.6656L54.2297 93.0102C54.1727 93.0426 54.1105 93.0633 54.0483 93.0854C54.0249 93.0931 54.0029 93.1074 53.9783 93.1139C53.8041 93.1597 53.621 93.1597 53.4468 93.1139C53.4183 93.1061 53.3923 93.0905 53.3651 93.0802C53.3081 93.0594 53.2484 93.0413 53.194 93.0102L28.2809 78.6656C28.1226 78.5746 27.9911 78.4436 27.8996 78.2857C27.8081 78.1277 27.7599 77.9485 27.7598 77.7659V35.0977C27.7598 35.0043 27.7727 34.9136 27.7961 34.8254C27.8038 34.7956 27.822 34.7684 27.8324 34.7386C27.8518 34.6842 27.8699 34.6284 27.8985 34.5779C27.9179 34.5442 27.9464 34.5169 27.9698 34.4858C27.9996 34.4443 28.0268 34.4016 28.0618 34.3653C28.0916 34.3355 28.1305 34.3134 28.1642 34.2875C28.2018 34.2564 28.2355 34.2227 28.2783 34.198H28.2796L40.7368 27.0257C40.8945 26.935 41.0733 26.8872 41.2553 26.8872C41.4373 26.8872 41.6161 26.935 41.7738 27.0257L54.231 34.198H54.2336C54.2751 34.224 54.3101 34.2564 54.3477 34.2862C54.3814 34.3121 54.419 34.3355 54.4488 34.364C54.4851 34.4016 54.511 34.4443 54.5421 34.4858C54.5642 34.5169 54.594 34.5442 54.6121 34.5779C54.6419 34.6297 54.6588 34.6842 54.6795 34.7386C54.6899 34.7684 54.7081 34.7956 54.7158 34.8267C54.7397 34.9151 54.7519 35.0062 54.7521 35.0977V61.7478L65.1327 55.7707V42.1468C65.1327 42.0561 65.1457 41.964 65.169 41.8772C65.1781 41.8461 65.1949 41.8189 65.2053 41.7891C65.226 41.7346 65.2442 41.6789 65.2727 41.6283C65.2921 41.5946 65.3207 41.5674 65.3427 41.5363C65.3738 41.4948 65.3997 41.452 65.436 41.4157C65.4659 41.3859 65.5034 41.3639 65.5371 41.3379C65.576 41.3068 65.6097 41.2731 65.6512 41.2485H65.6525L78.111 34.0762C78.2687 33.9853 78.4475 33.9375 78.6295 33.9375C78.8115 33.9375 78.9904 33.9853 79.148 34.0762L91.6053 41.2485C91.6493 41.2744 91.683 41.3068 91.7219 41.3366C91.7543 41.3626 91.7919 41.3859 91.8217 41.4144C91.858 41.452 91.884 41.4948 91.9151 41.5363C91.9384 41.5674 91.9669 41.5946 91.9851 41.6283C92.0149 41.6789 92.0317 41.7346 92.0525 41.7891C92.0641 41.8189 92.081 41.8461 92.0888 41.8772ZM90.0484 55.7707V43.9435L85.6891 46.4531L79.6666 49.9206V61.7478L90.0497 55.7707H90.0484ZM77.5912 77.1658V65.3307L71.6672 68.714L54.7508 78.3687V90.3152L77.5912 77.1658ZM29.8364 36.893V77.1658L52.6742 90.3139V78.37L40.7433 71.6177L40.7394 71.6151L40.7342 71.6125C40.694 71.5892 40.6603 71.5555 40.6227 71.527C40.5903 71.501 40.5527 71.4803 40.5242 71.4518L40.5216 71.4479C40.4879 71.4155 40.4646 71.3753 40.4361 71.339C40.4101 71.304 40.379 71.2742 40.3583 71.2379L40.357 71.234C40.3336 71.1951 40.3194 71.1484 40.3025 71.1044C40.2857 71.0655 40.2636 71.0292 40.2533 70.9877V70.9864C40.2403 70.9371 40.2377 70.8853 40.2325 70.8347C40.2274 70.7959 40.217 70.757 40.217 70.7181V42.8701L34.1958 39.4013L29.8364 36.8943V36.893ZM41.2566 29.1231L30.8773 35.0977L41.254 41.0722L51.632 35.0964L41.254 29.1231H41.2566ZM46.6543 66.4093L52.6755 62.943V36.893L48.3161 39.4026L42.2936 42.8701V68.9201L46.6543 66.4093ZM78.6295 36.1736L68.2515 42.1481L78.6295 48.1227L89.0062 42.1468L78.6295 36.1736ZM77.5912 49.9206L71.5687 46.4531L67.2093 43.9435V55.7707L73.2305 59.2369L77.5912 61.7478V49.9206ZM53.7112 76.5734L68.9334 67.8831L76.5425 63.5406L66.1723 57.5699L54.2323 64.4441L43.3501 70.709L53.7112 76.5734Z" fill="white"/>
</g></symbol><symbol id="telegram" viewBox="0 0 47 47"><g fill="none">
<path d="M23.5 47C36.4787 47 47 36.4787 47 23.5C47 10.5213 36.4787 0 23.5 0C10.5213 0 0 10.5213 0 23.5C0 36.4787 10.5213 47 23.5 47Z" fill="white" fill-opacity="0.1"/>
<path fill-rule="evenodd" clip-rule="evenodd" d="M12.1625 22.6897C17.9721 20.1667 21.8397 18.4902 23.7818 17.6768C29.3092 15.3696 30.4712 14.9712 31.2181 14.9546C31.3841 14.9546 31.7493 14.9878 31.9983 15.187C32.1975 15.353 32.2473 15.5688 32.2805 15.7347C32.3137 15.9007 32.3468 16.2493 32.3137 16.5149C32.0149 19.6687 30.7201 27.3208 30.0562 30.8398C29.774 32.3337 29.2262 32.8317 28.6951 32.8815C27.5331 32.9811 26.6534 32.1179 25.5413 31.3876C23.7818 30.2422 22.8024 29.5285 21.0927 28.3998C19.1175 27.105 20.3956 26.3913 21.5243 25.2294C21.8231 24.9306 26.919 20.2829 27.0186 19.8679C27.0352 19.8181 27.0352 19.6189 26.919 19.5193C26.8028 19.4197 26.6368 19.4529 26.504 19.4861C26.3214 19.5193 23.5328 21.3784 18.1049 25.0468C17.3082 25.5945 16.5944 25.8601 15.9471 25.8435C15.2333 25.8269 13.8722 25.4451 12.8431 25.1132C11.5981 24.7148 10.6022 24.499 10.6852 23.8018C10.735 23.4367 11.233 23.0715 12.1625 22.6897Z" fill="white"/>
</g></symbol></svg>