<svg xmlns="http://www.w3.org/2000/svg" xmlns:xlink="http://www.w3.org/1999/xlink"><symbol id="action" viewBox="0 0 47 47"><g fill="none">
<path d="M23.5 47C36.4787 47 47 36.4787 47 23.5C47 10.5213 36.4787 0 23.5 0C10.5213 0 0 10.5213 0 23.5C0 36.4787 10.5213 47 23.5 47Z" fill="white" fill-opacity="0.1"/>
<path fill-rule="evenodd" clip-rule="evenodd" d="M12.1625 22.6897C17.9721 20.1667 21.8397 18.4902 23.7818 17.6768C29.3092 15.3696 30.4712 14.9712 31.2181 14.9546C31.3841 14.9546 31.7493 14.9878 31.9983 15.187C32.1975 15.353 32.2473 15.5688 32.2805 15.7347C32.3137 15.9007 32.3468 16.2493 32.3137 16.5149C32.0149 19.6687 30.7201 27.3208 30.0562 30.8398C29.774 32.3337 29.2262 32.8317 28.6951 32.8815C27.5331 32.9811 26.6534 32.1179 25.5413 31.3876C23.7818 30.2422 22.8024 29.5285 21.0927 28.3998C19.1175 27.105 20.3956 26.3913 21.5243 25.2294C21.8231 24.9306 26.919 20.2829 27.0186 19.8679C27.0352 19.8181 27.0352 19.6189 26.919 19.5193C26.8028 19.4197 26.6368 19.4529 26.504 19.4861C26.3214 19.5193 23.5328 21.3784 18.1049 25.0468C17.3082 25.5945 16.5944 25.8601 15.9471 25.8435C15.2333 25.8269 13.8722 25.4451 12.8431 25.1132C11.5981 24.7148 10.6022 24.499 10.6852 23.8018C10.735 23.4367 11.233 23.0715 12.1625 22.6897Z" fill="white"/>
</g></symbol><symbol id="arrow" viewBox="0 0 14 13"><g fill="none">
<path d="M0 6.5H12M12 6.5L7.55556 1.5M12 6.5L7.55556 11.5" stroke="currentColor" stroke-width="2"/>
</g></symbol><symbol id="designer" viewBox="0 0 125 17"><g fill="none">
<path d="M0.28 12.852H1.33C1.50733 12.4973 1.65667 12.0587 1.778 11.536C1.89933 11.0133 1.99267 10.4533 2.058 9.856C2.12333 9.24933 2.17 8.62867 2.198 7.994C2.226 7.35 2.24 6.73867 2.24 6.16V4.2H8.61V12.852H9.8V15.82H8.54V14H1.54V15.82H0.28V12.852ZM7.294 12.852V5.348H3.528V6.44C3.528 7.85867 3.46267 9.086 3.332 10.122C3.21067 11.158 3.01 12.068 2.73 12.852H7.294ZM11.3466 6.58H12.5786V12.18L16.4146 6.58H17.6466V14H16.4146V8.4L12.5786 14H11.3466V6.58ZM22.4115 14.14C21.4782 14.14 20.7455 13.944 20.2135 13.552C19.6815 13.16 19.3875 12.6093 19.3315 11.9H20.5635C20.6288 12.264 20.8202 12.544 21.1375 12.74C21.4642 12.9267 21.8888 13.02 22.4115 13.02C23.0555 13.02 23.5222 12.9127 23.8115 12.698C24.1102 12.474 24.2595 12.208 24.2595 11.9C24.2595 11.536 24.1382 11.2513 23.8955 11.046C23.6528 10.8313 23.2328 10.724 22.6355 10.724H21.3615V9.716H22.5515C23.0648 9.716 23.4288 9.618 23.6435 9.422C23.8675 9.226 23.9795 8.95067 23.9795 8.596C23.9795 8.316 23.8488 8.07333 23.5875 7.868C23.3262 7.66267 22.9342 7.56 22.4115 7.56C21.8422 7.56 21.4268 7.65333 21.1655 7.84C20.9135 8.01733 20.7595 8.274 20.7035 8.61H19.4715C19.4995 8.302 19.5835 8.01733 19.7235 7.756C19.8728 7.48533 20.0735 7.252 20.3255 7.056C20.5775 6.86 20.8762 6.71067 21.2215 6.608C21.5762 6.496 21.9728 6.44 22.4115 6.44C22.8875 6.44 23.2982 6.496 23.6435 6.608C23.9982 6.71067 24.2922 6.86 24.5255 7.056C24.7588 7.24267 24.9315 7.46667 25.0435 7.728C25.1555 7.98933 25.2115 8.27867 25.2115 8.596C25.2115 8.95067 25.1228 9.26333 24.9455 9.534C24.7682 9.79533 24.4835 10.0007 24.0915 10.15C24.6142 10.29 24.9782 10.514 25.1835 10.822C25.3888 11.13 25.4915 11.4893 25.4915 11.9C25.4915 12.208 25.4262 12.4973 25.2955 12.768C25.1648 13.0387 24.9688 13.2767 24.7075 13.482C24.4555 13.678 24.1335 13.8367 23.7415 13.958C23.3588 14.0793 22.9155 14.14 22.4115 14.14ZM29.361 14.14C28.9503 14.14 28.5863 14.084 28.269 13.972C27.961 13.8507 27.6996 13.6873 27.485 13.482C27.2703 13.2767 27.107 13.034 26.995 12.754C26.883 12.474 26.827 12.166 26.827 11.83C26.827 11.0927 27.0416 10.5607 27.471 10.234C27.9096 9.90733 28.535 9.744 29.347 9.744H31.755V9.24C31.755 8.60533 31.6103 8.16667 31.321 7.924C31.041 7.68133 30.6163 7.56 30.047 7.56C29.515 7.56 29.1276 7.66267 28.885 7.868C28.6423 8.064 28.507 8.288 28.479 8.54H27.247C27.2656 8.24133 27.345 7.966 27.485 7.714C27.6343 7.45267 27.8303 7.22867 28.073 7.042C28.325 6.85533 28.6236 6.71067 28.969 6.608C29.3143 6.496 29.697 6.44 30.117 6.44C30.9943 6.44 31.6896 6.65 32.203 7.07C32.7256 7.48067 32.987 8.15733 32.987 9.1V12.11C32.987 12.502 32.987 12.8473 32.987 13.146C32.9963 13.4353 33.0196 13.72 33.057 14H31.979C31.951 13.7853 31.9323 13.5847 31.923 13.398C31.9136 13.202 31.909 12.9827 31.909 12.74C31.713 13.132 31.3956 13.4633 30.957 13.734C30.5183 14.0047 29.9863 14.14 29.361 14.14ZM29.627 13.02C29.9163 13.02 30.187 12.9827 30.439 12.908C30.7003 12.824 30.929 12.7073 31.125 12.558C31.321 12.3993 31.475 12.208 31.587 11.984C31.699 11.76 31.755 11.4987 31.755 11.2V10.696H29.557C29.0996 10.696 28.7403 10.7893 28.479 10.976C28.2176 11.1533 28.087 11.438 28.087 11.83C28.087 12.1753 28.2083 12.46 28.451 12.684C28.703 12.908 29.095 13.02 29.627 13.02ZM35.163 6.58H36.395V12.18L40.231 6.58H41.463V14H40.231V8.4L36.395 14H35.163V6.58ZM38.313 5.67C37.585 5.67 37.053 5.516 36.717 5.208C36.381 4.89067 36.213 4.438 36.213 3.85H37.417C37.417 4.48467 37.7156 4.802 38.313 4.802C38.929 4.802 39.237 4.48467 39.237 3.85H40.413C40.413 4.438 40.245 4.89067 39.909 5.208C39.573 5.516 39.041 5.67 38.313 5.67ZM43.7079 6.58H44.9399V9.674H48.7759V6.58H50.0079V14H48.7759V10.766H44.9399V14H43.7079V6.58ZM55.1928 9.506H61.4928V10.654H55.1928V9.506Z" fill="currentColor" fill-opacity="1"/>
<path d="M84.9515 9.60267V3.26172H87.2286V9.5233C87.2286 10.9946 88.0833 12.006 89.7123 12.006C91.3413 12.006 92.1787 10.9936 92.1787 9.5233V3.26172H94.4721V9.58741C94.4721 12.2125 92.9214 13.9992 89.7123 13.9992C86.5011 13.9992 84.9515 12.1962 84.9515 9.60267Z" fill="currentColor" fill-opacity="1"/>
<path d="M99.883 12.3224L101.1 10.6151C101.844 11.3904 102.998 12.0375 104.453 12.0375C105.687 12.0375 106.287 11.4688 106.287 10.8674C106.287 9.00137 100.215 10.2824 100.215 6.31318C100.215 4.55803 101.733 3.10303 104.215 3.10303C105.892 3.10303 107.283 3.60872 108.327 4.57431L107.078 6.21856C106.225 5.42797 105.085 5.06473 104.01 5.06473C103.045 5.06473 102.508 5.49106 102.508 6.12393C102.508 7.79973 108.564 6.67744 108.564 10.6151C108.564 12.5442 107.189 13.9992 104.343 13.9992C102.319 13.9992 100.864 13.3185 99.883 12.3224Z" fill="currentColor" fill-opacity="1"/>
<path d="M113.833 8.50051C113.833 5.29544 116.176 3 119.381 3C122.602 3 124.945 5.29544 124.945 8.50051C124.945 11.7046 122.602 14 119.381 14C116.176 14 113.833 11.7046 113.833 8.50051ZM122.617 8.50051C122.617 6.50828 121.342 5.00953 119.381 5.00953C117.421 5.00953 116.161 6.50828 116.161 8.50051C116.161 10.4775 117.421 11.9915 119.381 11.9915C121.342 11.9915 122.617 10.4775 122.617 8.50051Z" fill="currentColor" fill-opacity="1"/>
<path d="M77.168 9.79192C78.3065 9.52331 79.4777 8.52719 79.4777 6.66113C79.4777 4.70044 78.1336 3.26172 75.9348 3.26172H71V5.23767H73.2456H73.4125H75.6031C76.5046 5.23767 77.1843 5.7749 77.1843 6.66113C77.1843 7.54634 76.5036 8.08458 75.6031 8.08458H73.4125H73.2456H71.001V13.8089H73.2466V10.0616H74.8919L76.9624 13.81H79.5407L77.168 9.79192Z" fill="currentColor" fill-opacity="1"/>
</g></symbol><symbol id="icon-close" viewBox="0 0 24 24"><g fill="none">
<path fill-rule="evenodd" clip-rule="evenodd" d="M18.7071 5.29289C19.0976 5.68342 19.0976 6.31658 18.7071 6.70711L6.70711 18.7071C6.31658 19.0976 5.68342 19.0976 5.29289 18.7071C4.90237 18.3166 4.90237 17.6834 5.29289 17.2929L17.2929 5.29289C17.6834 4.90237 18.3166 4.90237 18.7071 5.29289Z" fill="currentColor"/>
<path fill-rule="evenodd" clip-rule="evenodd" d="M5.29289 5.29289C5.68342 4.90237 6.31658 4.90237 6.70711 5.29289L18.7071 17.2929C19.0976 17.6834 19.0976 18.3166 18.7071 18.7071C18.3166 19.0976 17.6834 19.0976 17.2929 18.7071L5.29289 6.70711C4.90237 6.31658 4.90237 5.68342 5.29289 5.29289Z" fill="currentColor"/>
</g></symbol><symbol id="logo" viewBox="0 0 217 25"><g fill="none">
<path d="M109.18 12.3739C107.6 10.7209 105.914 9.58577 103.697 9.58577L86.5831 9.55921C85.4546 9.55921 84.7708 9.11445 84.3725 8.22491C84.0207 7.43495 84.0008 6.46575 84.565 5.77536C85.0098 5.23102 85.7135 4.77297 86.5964 4.77297C86.6096 4.77297 104.168 4.79953 104.168 4.79953H104.719C106.233 4.79953 106.266 6.03424 106.956 6.6317C107.374 6.9968 107.919 7.2026 108.476 7.2026C109.758 7.2026 110.64 6.16038 110.64 4.87918C110.64 4.08922 110.023 3.02709 109.512 2.43628C108.357 1.09533 106.89 0.351831 105.131 0.219064H103.79L87.0942 0.192505C84.9501 0.192505 83.1909 0.736846 81.9031 1.83881C80.5422 3.00052 79.5 5.1779 79.5 6.97026C79.5 8.88874 80.1306 10.6147 81.1131 11.7366C82.6466 13.4957 84.5385 14.1861 86.7557 14.1861L103.285 14.2127C104.215 14.2127 104.799 14.5247 105.27 14.8832C106.12 15.5404 106.332 16.6423 106.259 17.6513C106.166 18.9458 105.111 20.3 103.591 20.3C103.272 20.3 97.2797 20.2912 85.6139 20.2735C84.1004 20.2735 84.0672 19.0454 83.3768 18.4413C82.9586 18.0762 82.4142 17.8704 81.8566 17.8704C80.5754 17.8704 79.6925 18.9126 79.6925 20.1938C79.6925 20.9838 80.3099 22.0459 80.8144 22.6367C81.9761 23.9777 83.4365 24.7212 85.1957 24.854L103.411 24.8805C105.25 24.8805 106.976 24.1636 108.237 23.1147C109.844 21.6476 110.707 19.8818 110.82 17.8306V16.6622C110.713 15.0757 110.169 13.6484 109.187 12.3739" fill="currentColor"/>
<path d="M31.1073 21.5215C31.1073 21.5215 31.1139 21.5215 31.1206 21.5149C31.0874 21.4418 31.0542 21.3622 31.0077 21.2892L17.9833 1.77907C17.9833 1.77907 17.6314 1.22146 17.6314 1.2281C17.18 0.531071 16.4896 0 15.6134 0C14.3455 0 13.3165 1.02894 13.3165 2.29686C13.3165 2.75491 13.4559 3.1864 13.6883 3.54487C13.6883 3.54487 13.6883 3.54488 13.6883 3.55152V3.56479C13.6883 3.56479 13.7082 3.58471 13.7148 3.59135L20.3332 13.5356L6.73791 13.5489C5.50982 13.5489 5.10489 13.8343 4.62693 14.7238L0.424843 21.4087C0.385013 21.4618 0.351833 21.5215 0.312003 21.5879L0.238971 21.7007C0.238971 21.7007 0.238977 21.7007 0.245615 21.7007C0.0929336 21.9995 0 22.3314 0 22.6898C0 23.9047 0.982473 24.8871 2.19729 24.8871C3.02708 24.8871 3.74401 24.4158 4.11576 23.7387C4.12904 23.7387 4.13569 23.7387 4.14896 23.7387L7.90627 18.043L23.3404 18.0629L27.2106 24.0308C27.2106 24.0308 27.2238 24.0175 27.2305 24.0109C27.6553 24.5486 28.3059 24.9071 29.0427 24.9071C30.3239 24.9071 31.3595 23.8715 31.3595 22.5903C31.3595 22.2053 31.26 21.8534 31.094 21.5348" fill="currentColor"/>
<path d="M64.9699 2.79472C63.3899 1.14177 61.5113 0.258885 59.3472 0.139395L37.4141 0.106201C37.3676 0.106201 37.3278 0.119477 37.288 0.126115C37.288 0.126115 37.288 0.132757 37.288 0.139395C36.1661 0.292077 35.2965 1.24135 35.2965 2.40306C35.2965 3.63116 36.2657 4.62691 37.4805 4.68665H37.5004C37.5336 4.68665 37.5602 4.6933 37.5867 4.6933C37.6133 4.6933 37.6465 4.68665 37.673 4.68665C39.8039 4.68665 59.4401 4.71984 59.4667 4.71984C60.8939 4.71984 62.1088 6.14709 62.0955 7.57434C62.0822 9.1609 61.3188 10.6014 59.5198 10.847L37.4738 10.8139V10.8271C36.2657 10.8935 35.3031 11.8826 35.3031 13.1107C35.3031 13.124 35.3031 13.1373 35.3031 13.1505C35.3031 13.1505 35.3031 13.1505 35.2965 13.1505L35.2832 22.6301C35.2832 23.8847 36.2922 24.8938 37.5402 24.8938C38.7882 24.8938 39.7508 23.9179 39.7906 22.7097C39.7906 22.7097 39.7973 22.7097 39.8039 22.7097L39.8172 15.4408L58.9091 15.474C60.9736 15.474 62.1685 15.1553 63.9608 13.7745C65.6404 12.3075 66.5365 10.5085 66.6494 8.39086V7.1893C66.5432 5.55627 65.9723 4.09584 64.95 2.80137" fill="currentColor"/>
<path d="M177.409 9.70524H177.362C177.349 9.70524 177.343 9.70524 177.336 9.70524C177.323 9.70524 177.316 9.70524 177.309 9.70524L153.332 9.67206C153.332 9.67206 153.312 9.67206 153.305 9.67206C153.298 9.67206 153.292 9.67206 153.279 9.67206H153.093C153.093 9.67206 153.093 9.68533 153.093 9.69197C151.924 9.79819 151.008 10.7674 151.008 11.9623L150.988 22.5969C150.988 22.5969 150.988 22.6301 150.988 22.6434C150.988 23.8914 151.997 24.907 153.245 24.907C154.493 24.907 155.489 23.9047 155.502 22.6699C155.502 22.6699 155.502 22.6699 155.509 22.6699L155.522 14.2923L177.289 14.3255C177.289 14.3255 177.289 14.3255 177.289 14.3189C177.303 14.3189 177.316 14.3189 177.329 14.3189C178.604 14.3189 179.639 13.2833 179.639 12.0087C179.639 10.7342 178.644 9.74507 177.402 9.70524" fill="currentColor"/>
<path d="M180.065 0.205784C180.065 0.205784 180.065 0.199143 180.065 0.192505L153.333 0.219064C153.333 0.219064 153.326 0.219064 153.32 0.219064C153.32 0.219064 153.313 0.219064 153.306 0.219064H153.18C153.18 0.219064 153.18 0.225705 153.18 0.232343C151.979 0.305365 151.029 1.29448 151.029 2.51593C151.029 3.78386 152.052 4.8128 153.32 4.8128C153.333 4.8128 153.353 4.8128 153.366 4.8128L167.585 4.79953C167.645 4.79953 167.705 4.81944 167.765 4.81944C167.824 4.81944 167.884 4.80616 167.944 4.79953L180.006 4.78624C180.006 4.78624 180.006 4.77961 180.006 4.77297C181.267 4.77297 182.289 3.75066 182.289 2.48938C182.289 1.24801 181.293 0.238983 180.065 0.212429" fill="currentColor"/>
<path d="M75.225 2.43627C75.225 2.43627 75.225 2.4097 75.225 2.39642C75.225 2.38314 75.225 2.36987 75.225 2.35659V2.33668C75.1918 1.11522 74.196 0.132751 72.968 0.132751C71.7399 0.132751 70.8171 1.05549 70.7242 2.22384H70.7109V2.3765C70.7109 2.3765 70.7109 2.39643 70.7109 2.40306C70.7109 2.4097 70.7109 2.41635 70.7109 2.42962L70.6777 22.5969C70.6777 22.5969 70.6777 22.5969 70.6777 22.6035C70.6777 23.8582 71.6934 24.8672 72.9414 24.8672C74.1894 24.8672 75.2051 23.8515 75.2051 22.6035C75.2051 22.577 75.1984 22.5571 75.1984 22.5372L75.2316 2.44954L75.225 2.43627Z" fill="currentColor"/>
<path d="M213.788 0.205788C213.788 0.205788 213.788 0.199147 213.788 0.192509L187.055 0.219068C187.055 0.219068 187.049 0.219068 187.042 0.219068C187.042 0.219068 187.035 0.219068 187.029 0.219068H186.903C186.903 0.219068 186.903 0.225709 186.903 0.232347C185.701 0.305369 184.752 1.29448 184.752 2.51594C184.752 3.73739 185.781 4.8128 187.049 4.8128C187.062 4.8128 187.075 4.8128 187.095 4.8128L198.135 4.79953L198.108 22.7297C198.108 22.7297 198.108 22.7297 198.108 22.7363C198.108 23.991 199.124 25 200.372 25C201.62 25 202.635 23.9843 202.635 22.7363C202.635 22.7098 202.635 22.6899 202.629 22.6699L202.655 4.79289L213.728 4.77962C213.728 4.77962 213.728 4.77296 213.728 4.76633C214.989 4.76633 216.012 3.74402 216.012 2.48273C216.012 1.24136 215.016 0.232342 213.788 0.205788Z" fill="currentColor"/>
<path d="M122.165 24.9137C120.074 24.9137 118.521 24.0175 117.047 22.5637C116.045 21.2892 115.182 19.8088 115.182 18.0696L115.195 6.99019C115.195 5.03852 115.945 3.65773 117.452 2.19066C118.707 0.975843 120.486 0.232361 122.172 0.232361L139.246 0.25891C141.33 0.25891 143.215 1.36088 144.736 2.94744C145.824 4.33485 146.535 5.6758 146.535 7.67394L146.521 17.5518C146.521 19.9018 145.519 21.6543 143.866 23.2409C142.571 24.2632 141.23 24.9403 139.445 24.9403L122.165 24.9137ZM141.011 19.6163C141.549 19.0587 141.901 18.4944 141.901 17.7841L141.914 7.54116C141.868 6.80431 141.576 6.14713 140.978 5.62934C140.494 5.20448 139.73 4.85929 139.12 4.85929L122.305 4.83273C121.654 4.83273 121.043 5.12483 120.618 5.56959C120.107 6.16705 119.716 6.80431 119.716 7.70712L119.702 17.4854C119.702 18.3418 119.961 19.0388 120.585 19.6893C121.01 20.0279 121.674 20.2934 122.205 20.3399C122.205 20.3399 138.781 20.393 139.418 20.393C140.055 20.393 140.474 20.1872 141.011 19.623" fill="currentColor"/>
</g></symbol></svg>