<svg width="120" height="120" viewBox="0 0 120 120" fill="none" xmlns="http://www.w3.org/2000/svg">
<path fill-rule="evenodd" clip-rule="evenodd" d="M92.0005 60.072C92.0005 77.7054 77.7059 92 60.0725 92C42.4392 92 28.1445 77.7054 28.1445 60.072C28.1445 42.4387 42.4392 28.144 60.0725 28.144C77.7059 28.144 92.0005 42.4387 92.0005 60.072ZM65.8502 44.332C67.9554 41.8594 70.7886 40.0715 74.0312 39.9577C77.2716 39.8531 79.7214 41.3203 79.8033 43.6462C79.8352 44.6357 79.2665 46.559 77.2909 46.6238C75.8135 46.6761 74.7933 45.7935 74.7455 44.4515C74.7307 43.9578 74.8569 43.5291 75.1947 43.0263C75.2505 42.9171 75.2988 42.8243 75.3406 42.7441C75.5458 42.3497 75.5926 42.2599 75.586 42.0255C75.5564 41.1815 74.278 41.1474 73.9289 41.1656C69.1372 41.3214 67.8724 47.7908 66.8499 53.0499L66.3472 55.8239C69.1065 56.2288 71.0661 55.7307 72.1591 55.0221C73.0901 54.4187 72.7373 53.8048 72.3679 53.1622C72.1267 52.7425 71.8785 52.3107 71.976 51.8614C72.2285 50.7035 73.2817 50.1462 74.1188 50.1223C75.2903 50.095 76.1262 51.3086 76.1001 52.5427C76.058 54.5808 73.3522 57.3844 67.9418 57.2684C67.2821 57.2536 66.677 57.207 66.1095 57.1399L65.0904 62.7732L65.0626 62.9032C64.1511 67.1585 62.9162 72.9233 58.6166 77.9593C54.8849 82.3961 51.0975 83.0865 49.4005 83.1422C46.2273 83.2514 44.1232 81.5579 44.0481 79.3013C43.9753 77.1131 45.9077 75.92 47.1781 75.8779C48.8705 75.8199 50.042 77.046 50.0886 78.4631C50.1307 79.6585 49.5063 80.0315 49.0934 80.2579C49.0531 80.2902 49.0098 80.3227 48.9653 80.356C48.7045 80.5514 48.402 80.778 48.4156 81.1996C48.4269 81.4112 48.6533 81.8957 49.3573 81.8729C50.6644 81.8275 51.5446 81.1974 52.1644 80.7538C52.1805 80.7423 52.1964 80.7309 52.2121 80.7196C55.3034 78.1435 56.492 73.6566 58.0513 65.4835L58.3777 63.5045L58.3911 63.4375C58.9188 60.7957 59.5056 57.8578 60.3977 54.9311C59.7346 54.4317 59.1523 53.896 58.5805 53.3698C57.2729 52.1666 56.0199 51.0136 53.9807 50.4613C51.971 49.9165 50.746 50.3805 49.885 51.469C48.866 52.7576 49.2038 54.4352 50.1899 55.4213L51.8163 57.2195C53.8124 59.5272 54.9042 61.3219 54.4936 63.7354C53.8431 67.5888 49.2515 70.5459 43.824 68.8774C39.1916 67.4478 38.326 64.171 38.8833 62.3615C39.3736 60.7726 40.636 60.4723 41.8723 60.8499C43.1962 61.2582 43.7137 62.8665 43.335 64.1039C43.3309 64.1164 43.3267 64.1296 43.3222 64.1437C43.2796 64.2766 43.2135 64.4826 43.087 64.7499C43.0239 64.8898 42.9387 65.0226 42.8517 65.1583C42.727 65.3527 42.5987 65.5528 42.5263 65.7872C42.2272 66.7563 43.5579 67.4444 44.4837 67.731C46.5571 68.369 48.5771 67.2851 49.0923 65.6075C49.5666 64.0664 48.5941 62.9904 48.1892 62.5776L46.2273 60.478C45.3288 59.476 43.3532 56.6883 44.3177 53.556C44.6896 52.3516 45.4709 51.0698 46.6072 50.2213C49.0036 48.4356 51.6081 48.1422 54.091 48.8553C56.5036 49.5512 57.9748 50.9232 59.4063 52.2582C59.8792 52.6992 60.3478 53.1363 60.8447 53.5435C61.9638 50.2611 63.5152 47.0435 65.8502 44.332Z" fill="white"/>
</svg>
