<svg width="120" height="120" viewBox="0 0 120 120" fill="none" xmlns="http://www.w3.org/2000/svg">
<path d="M34.1817 65.5669C35.1614 65.5669 35.9685 65.2 36.4799 64.6662C36.5409 64.6052 36.62 64.566 36.705 64.5548C36.7901 64.5435 36.8764 64.5608 36.9508 64.604L38.7337 65.6411C38.7669 65.6599 38.7957 65.6858 38.818 65.7171C38.8402 65.7483 38.8555 65.7841 38.8628 65.8219C38.87 65.8598 38.869 65.8987 38.8598 65.9361C38.8506 65.9735 38.8335 66.0084 38.8096 66.0384C37.7631 67.4173 36.1568 68.2014 34.1398 68.2014C30.404 68.2014 28.0469 65.6119 28.0469 62.2569C28.0469 58.9019 30.4262 56.3125 33.9201 56.3125C37.2111 56.3125 39.5447 58.947 39.5447 62.2569C39.544 62.5807 39.5191 62.9039 39.4702 63.2238C39.461 63.2872 39.4294 63.3451 39.3813 63.3868C39.3332 63.4284 39.2718 63.451 39.2085 63.4503H31.2294C31.2083 63.4501 31.1874 63.4551 31.1686 63.4648C31.1498 63.4745 31.1336 63.4887 31.1214 63.5062C31.1092 63.5236 31.1014 63.5438 31.0985 63.565C31.0957 63.5861 31.0979 63.6077 31.1051 63.6278C31.5486 64.9868 32.7337 65.5669 34.1817 65.5669ZM36.5048 61.196C36.525 61.1966 36.545 61.1925 36.5633 61.1839C36.5816 61.1754 36.5978 61.1627 36.6104 61.1467C36.6231 61.1308 36.632 61.1122 36.6363 61.0922C36.6407 61.0723 36.6404 61.0516 36.6356 61.0318C36.2432 59.5311 35.0777 58.9218 33.9174 58.9218C32.4433 58.9218 31.4204 59.6913 31.0463 61.0304C31.0412 61.0504 31.0407 61.0712 31.045 61.0913C31.0492 61.1114 31.0581 61.1303 31.0707 61.1464C31.0834 61.1624 31.0997 61.1753 31.1181 61.1839C31.1366 61.1925 31.1568 61.1967 31.1771 61.196H36.5048Z" fill="white"/>
<path d="M44.3973 59.4167V64.3177C44.3973 65.4649 45.1678 65.5496 46.6355 65.4808C46.671 65.479 46.7064 65.4845 46.7397 65.497C46.7729 65.5095 46.8034 65.5287 46.8291 65.5535C46.8547 65.5783 46.8752 65.6081 46.8892 65.6411C46.9031 65.6742 46.9103 65.7097 46.9102 65.7457V67.8651C46.9106 67.931 46.8866 67.9946 46.8431 68.0436C46.7995 68.0926 46.7395 68.1234 46.6748 68.13C42.8314 68.5075 41.5285 67.3021 41.5285 64.3217V59.4167H39.8554C39.786 59.4167 39.7194 59.3888 39.6704 59.3391C39.6213 59.2894 39.5938 59.222 39.5938 59.1518V56.8999C39.5938 56.8297 39.6213 56.7623 39.6704 56.7126C39.7194 56.6629 39.786 56.635 39.8554 56.635H41.5285V54.6481C41.5285 54.5628 41.5556 54.4798 41.6058 54.4114C41.656 54.3429 41.7266 54.2926 41.8071 54.2679L44.0598 53.5778C44.0988 53.5658 44.1401 53.5632 44.1803 53.5703C44.2205 53.5773 44.2585 53.5938 44.2913 53.6184C44.3241 53.643 44.3508 53.675 44.3692 53.7119C44.3876 53.7488 44.3972 53.7895 44.3973 53.8308V56.635H46.6486C46.718 56.635 46.7846 56.6629 46.8336 56.7126C46.8827 56.7623 46.9102 56.8297 46.9102 56.8999V59.1518C46.9102 59.222 46.8827 59.2894 46.8336 59.3391C46.7846 59.3888 46.718 59.4167 46.6486 59.4167H44.3973Z" fill="white"/>
<path d="M58.8577 56.8993V67.6279C58.8577 67.6981 58.8302 67.7655 58.7811 67.8152C58.7321 67.8648 58.6655 67.8928 58.5961 67.8928H56.2508C56.1814 67.8928 56.1149 67.8648 56.0658 67.8152C56.0167 67.7655 55.9892 67.6981 55.9892 67.6279V66.5682C55.1886 67.5815 53.9878 68.212 52.3645 68.212C49.407 68.212 46.9609 65.6225 46.9609 62.2675C46.9609 58.9125 49.407 56.3125 52.3671 56.3125C53.9904 56.3125 55.1912 56.943 55.9918 57.9562V56.8993C55.9918 56.829 56.0193 56.7616 56.0684 56.7119C56.1175 56.6623 56.184 56.6344 56.2534 56.6344H58.5987C58.6677 56.6351 58.7335 56.6633 58.782 56.7129C58.8305 56.7625 58.8577 56.8295 58.8577 56.8993ZM55.9892 62.2636C55.9892 60.3721 54.6811 59.0847 52.8982 59.0847C51.1415 59.0847 49.8295 60.3682 49.8295 62.2636C49.8295 64.1589 51.1376 65.4424 52.8982 65.4424C54.6772 65.4318 55.9892 64.1483 55.9892 62.2569V62.2636Z" fill="white"/>
<path d="M59.86 53.8274C59.8536 53.5847 59.8952 53.3431 59.9824 53.117C60.0697 52.8908 60.2008 52.6847 60.368 52.5107C60.5353 52.3367 60.7353 52.1984 60.9561 52.104C61.177 52.0096 61.4144 51.9609 61.6542 51.9609C61.8939 51.9609 62.1313 52.0096 62.3522 52.104C62.5731 52.1984 62.773 52.3367 62.9403 52.5107C63.1075 52.6847 63.2386 52.8908 63.3259 53.117C63.4131 53.3431 63.4548 53.5847 63.4483 53.8274C63.4357 54.3007 63.2411 54.7503 62.906 55.0806C62.5709 55.4109 62.1218 55.5957 61.6542 55.5957C61.1865 55.5957 60.7374 55.4109 60.4023 55.0806C60.0672 54.7503 59.8727 54.3007 59.86 53.8274ZM60.4814 56.6355H62.8282C62.8976 56.6355 62.9642 56.6635 63.0132 56.7131C63.0623 56.7628 63.0899 56.8302 63.0899 56.9005V67.6298C63.0899 67.7001 63.0623 67.7675 63.0132 67.8171C62.9642 67.8668 62.8976 67.8947 62.8282 67.8947H60.4814C60.412 67.8947 60.3455 67.8668 60.2964 67.8171C60.2473 67.7675 60.2198 67.7001 60.2198 67.6298V56.9005C60.2198 56.8302 60.2473 56.7628 60.2964 56.7131C60.3455 56.6635 60.412 56.6355 60.4814 56.6355Z" fill="white"/>
<path d="M64.6835 52H67.0277C67.0958 52 67.1611 52.0268 67.21 52.0748C67.2588 52.1227 67.2873 52.1881 67.2893 52.257V67.6304C67.2873 67.6993 67.2588 67.7646 67.21 67.8126C67.1611 67.8606 67.0958 67.8874 67.0277 67.8874H64.6835C64.6155 67.8874 64.5501 67.8606 64.5012 67.8126C64.4524 67.7646 64.4239 67.6993 64.4219 67.6304V52.257C64.4239 52.1881 64.4524 52.1227 64.5012 52.0748C64.5501 52.0268 64.6155 52 64.6835 52Z" fill="white"/>
<path d="M68.6172 62.2569C68.6172 58.9019 71.1025 56.3125 74.4878 56.3125C76.5663 56.3125 78.3832 57.3721 79.3367 58.9814C79.3551 59.0115 79.3673 59.0451 79.3726 59.0801C79.3779 59.1151 79.3763 59.1508 79.3677 59.1851C79.3592 59.2194 79.3439 59.2517 79.3229 59.2799C79.3018 59.3082 79.2754 59.3319 79.2452 59.3496L77.338 60.4755C77.2523 60.5267 77.1506 60.543 77.0534 60.5211C76.9563 60.4992 76.871 60.4407 76.8148 60.3576C76.319 59.6211 75.4596 59.1655 74.4603 59.1655C72.748 59.1655 71.4805 60.449 71.4805 62.2503C71.4805 64.0291 72.748 65.3126 74.4603 65.3126C75.4793 65.3126 76.3426 64.8755 76.837 64.1404C76.8929 64.0587 76.9769 64.0012 77.0725 63.9791C77.1681 63.9571 77.2685 63.9721 77.3537 64.0212L79.2779 65.1351C79.3087 65.1528 79.3356 65.1767 79.357 65.2053C79.3784 65.2339 79.3938 65.2665 79.4024 65.3013C79.411 65.3361 79.4124 65.3723 79.4068 65.4077C79.4011 65.4431 79.3884 65.477 79.3694 65.5073C78.8486 66.3402 78.126 67.0245 77.2705 67.4951C76.4149 67.9657 75.4548 68.207 74.4812 68.1961C71.1077 68.2014 68.6172 65.6119 68.6172 62.2569Z" fill="white"/>
<path d="M86.9673 56.6807V59.3615C86.9674 59.3976 86.9602 59.4332 86.9462 59.4664C86.9321 59.4995 86.9116 59.5294 86.8857 59.5542C86.8599 59.579 86.8293 59.5982 86.7959 59.6106C86.7625 59.623 86.7269 59.6284 86.6914 59.6264C85.2525 59.5575 83.5873 60.2887 83.5873 62.5086V67.6318C83.5873 67.7021 83.5598 67.7694 83.5107 67.8191C83.4616 67.8688 83.3951 67.8967 83.3257 67.8967H80.9804C80.911 67.8967 80.8444 67.8688 80.7954 67.8191C80.7463 67.7694 80.7188 67.7021 80.7188 67.6318V56.9032C80.7188 56.833 80.7463 56.7656 80.7954 56.7159C80.8444 56.6662 80.911 56.6383 80.9804 56.6383H83.3257C83.3951 56.6383 83.4616 56.6662 83.5107 56.7159C83.5598 56.7656 83.5873 56.833 83.5873 56.9032V58.5681C84.1276 57.1376 85.3859 56.4939 86.6914 56.4145C86.727 56.4125 86.7627 56.4179 86.7962 56.4304C86.8297 56.4429 86.8603 56.4622 86.8862 56.4872C86.912 56.5121 86.9326 56.5421 86.9465 56.5754C86.9605 56.6087 86.9676 56.6445 86.9673 56.6807Z" fill="white"/>
<path d="M104.798 60.9538V67.6312C104.798 67.7014 104.77 67.7688 104.721 67.8185C104.672 67.8682 104.606 67.8961 104.536 67.8961H102.191C102.121 67.8961 102.055 67.8682 102.006 67.8185C101.957 67.7688 101.929 67.7014 101.929 67.6312V61.1565C101.929 59.8319 101.262 59.0172 100.061 59.0172C98.7935 59.0172 97.9929 59.8729 97.9929 61.5618V67.6312C97.9929 67.7014 97.9653 67.7688 97.9163 67.8185C97.8672 67.8682 97.8007 67.8961 97.7313 67.8961H95.3858C95.3164 67.8961 95.2498 67.8682 95.2008 67.8185C95.1517 67.7688 95.1241 67.7014 95.1241 67.6312V61.1565C95.1241 59.8319 94.457 59.0172 93.2561 59.0172C92.033 59.0172 91.163 59.8729 91.163 61.5618V67.6312C91.163 67.7014 91.1355 67.7688 91.0864 67.8185C91.0373 67.8682 90.9708 67.8961 90.9014 67.8961H88.5585C88.4891 67.8961 88.4226 67.8682 88.3735 67.8185C88.3244 67.7688 88.2969 67.7014 88.2969 67.6312V56.9018C88.2969 56.8316 88.3244 56.7642 88.3735 56.7145C88.4226 56.6648 88.4891 56.6369 88.5585 56.6369H90.904C90.9734 56.6369 91.04 56.6648 91.089 56.7145C91.1381 56.7642 91.1657 56.8316 91.1657 56.9018V57.8291C91.7883 56.8833 92.8335 56.3203 94.2568 56.3203C95.6356 56.3203 96.6586 56.9058 97.2813 57.9416C97.9707 56.9283 99.0826 56.3203 100.595 56.3203C103.13 56.315 104.798 58.139 104.798 60.9538Z" fill="white"/>
<path d="M27.5227 56.293H18.0366C17.4961 56.294 16.9781 56.5122 16.5963 56.8996C16.2144 57.2869 16 57.8119 16 58.3592V67.9633C16 68.0335 16.0276 68.1009 16.0766 68.1506C16.1257 68.2003 16.1922 68.2282 16.2616 68.2282H18.6266C18.696 68.2282 18.7625 68.2003 18.8116 68.1506C18.8606 68.1009 18.8882 68.0335 18.8882 67.9633V62.7301C18.8879 62.182 18.7197 61.6475 18.4068 61.2003L17.448 59.8281L25.3121 67.7898C25.3364 67.8148 25.3654 67.8347 25.3974 67.8483C25.4294 67.8618 25.4638 67.8688 25.4985 67.8688C25.5332 67.8688 25.5675 67.8618 25.5995 67.8483C25.6315 67.8347 25.6605 67.8148 25.6849 67.7898L27.354 66.0984C27.3787 66.0737 27.3983 66.0443 27.4117 66.0119C27.4251 65.9795 27.432 65.9448 27.432 65.9096C27.432 65.8745 27.4251 65.8397 27.4117 65.8073C27.3983 65.7749 27.3787 65.7455 27.354 65.7209L19.4978 57.7672L20.8398 58.7301C21.2815 59.0469 21.8094 59.2172 22.3506 59.2175H27.5227C27.5921 59.2175 27.6586 59.1896 27.7077 59.1399C27.7567 59.0902 27.7843 59.0229 27.7843 58.9526V56.5579C27.7843 56.4876 27.7567 56.4202 27.7077 56.3706C27.6586 56.3209 27.5921 56.293 27.5227 56.293Z" fill="white"/>
<path d="M27.5175 52H16.2616C16.1171 52 16 52.1186 16 52.2649V54.6755C16 54.8218 16.1171 54.9404 16.2616 54.9404H27.5175C27.6619 54.9404 27.7791 54.8218 27.7791 54.6755V52.2649C27.7791 52.1186 27.6619 52 27.5175 52Z" fill="white"/>
</svg>
