<svg width="120" height="120" viewBox="0 0 120 120" fill="none" xmlns="http://www.w3.org/2000/svg">
<path fill-rule="evenodd" clip-rule="evenodd" d="M75.2694 33.9463C76.0299 34.3854 76.7461 35.3274 77.1358 37.1496C77.5255 38.9714 77.5245 41.4259 77.0475 44.4032C76.8987 45.3319 76.7055 46.2998 76.4685 47.3012C73.9124 46.754 71.1657 46.3323 68.2825 46.0535C66.5984 43.6944 64.8586 41.5251 63.1056 39.5841C63.8539 38.8786 64.595 38.2278 65.3245 37.6349C67.6644 35.7332 69.7895 34.5051 71.5621 33.9316C73.3351 33.358 74.5089 33.5072 75.2694 33.9463ZM56.8882 39.5841C56.14 38.8787 55.3989 38.2279 54.6694 37.6351C52.3296 35.7334 50.2044 34.5052 48.4318 33.9317C46.6589 33.3582 45.485 33.5074 44.7245 33.9465C43.964 34.3856 43.2479 35.3275 42.8581 37.1497C42.4684 38.9716 42.4695 41.4261 42.9465 44.4033C43.0953 45.3321 43.2885 46.3 43.5255 47.3014C46.0815 46.7542 48.8281 46.3324 51.7113 46.0536C53.3954 43.6944 55.1352 41.5252 56.8882 39.5841ZM59.9969 36.394C59.1531 35.5962 58.3121 34.8564 57.4785 34.1788C54.8916 32.0764 52.2817 30.4962 49.8027 29.6942C47.324 28.8923 44.7298 28.8007 42.4976 30.0894C40.2655 31.3781 39.0478 33.6706 38.5029 36.2182C37.9579 38.766 38.0215 41.8164 38.5488 45.1079C38.7188 46.1691 38.9391 47.268 39.2084 48.3983C38.0946 48.7303 37.0324 49.0891 36.0281 49.4726C32.9139 50.6616 30.2404 52.1318 28.3064 53.8777C26.3726 55.6233 24.9961 57.8242 24.9961 60.4016C24.9961 62.9791 26.3726 65.1799 28.3064 66.9256C30.2404 68.6715 32.9139 70.1416 36.0281 71.3307C37.0317 71.7139 38.0929 72.0724 39.2058 72.4042C38.9365 73.5345 38.7162 74.6335 38.5461 75.6948C38.0188 78.9863 37.9552 82.0367 38.5002 84.5846C39.0451 87.1321 40.2628 89.4246 42.495 90.7133C44.7271 92.002 47.3214 91.9104 49.8 91.1085C52.279 90.3065 54.889 88.7263 57.4758 86.6239C58.3103 85.9456 59.1522 85.205 59.9969 84.4062C60.8416 85.2051 61.6836 85.9457 62.5182 86.624C65.105 88.7264 67.7149 90.3067 70.1939 91.1087C72.6726 91.9105 75.2668 92.0022 77.499 90.7135C79.7311 89.4247 80.9488 87.1322 81.4937 84.5847C82.0387 82.0369 81.9752 78.9864 81.4478 75.695C81.2778 74.6337 81.0575 73.5347 80.7882 72.4044C81.9014 72.0725 82.9629 71.714 83.9668 71.3307C87.0809 70.1416 89.7544 68.6715 91.6885 66.9256C93.6222 65.1799 94.9987 62.9791 94.9987 60.4016C94.9987 57.8242 93.6222 55.6233 91.6885 53.8777C89.7544 52.1318 87.0809 50.6616 83.9668 49.4726C82.9621 49.089 81.8997 48.7302 80.7856 48.3981C81.0548 47.2678 81.2751 46.169 81.4452 45.1077C81.9725 41.8163 82.036 38.7659 81.4911 36.218C80.9462 33.6705 79.7284 31.378 77.4963 30.0893C75.2642 28.8005 72.6699 28.8922 70.1913 29.6941C67.7123 30.496 65.1023 32.0763 62.5155 34.1787C61.6818 34.8563 60.8407 35.5961 59.9969 36.394ZM75.2479 51.5954C74.0515 51.3455 72.8048 51.1236 71.5141 50.9325C71.9369 51.6207 72.3539 52.3204 72.7642 53.031C73.174 53.7409 73.571 54.451 73.9551 55.1604C74.435 53.9471 74.8662 52.7564 75.2479 51.5954ZM76.5649 60.3984C77.765 57.7621 78.773 55.1725 79.5771 52.6853C80.5635 52.9809 81.4989 53.2977 82.3781 53.6334C85.195 54.7089 87.3211 55.9353 88.7041 57.1837C90.0873 58.4323 90.545 59.5235 90.545 60.4016C90.545 61.2798 90.0873 62.371 88.7041 63.6196C87.3211 64.868 85.195 66.0944 82.3781 67.1699C81.4996 67.5053 80.5651 67.8218 79.5797 68.1172C78.775 65.6283 77.7661 63.0367 76.5649 60.3984ZM71.6418 60.3986C70.8155 58.7027 69.9033 56.9835 68.9071 55.2579C67.9104 53.5315 66.8771 51.8812 65.8209 50.3169C63.9377 50.1844 61.9914 50.1146 59.9974 50.1146C58.0031 50.1146 56.0564 50.1844 54.1729 50.317C53.1168 51.8812 52.0835 53.5315 51.0868 55.2578C50.0906 56.9834 49.1784 58.7026 48.352 60.3986C49.1791 62.0964 50.0922 63.8175 51.0895 65.5449C52.0864 67.2715 53.1198 68.922 54.176 70.4865C56.0586 70.6189 58.0042 70.6886 59.9974 70.6886C61.9902 70.6886 63.9355 70.619 65.8178 70.4866C66.8741 68.922 67.9075 67.2715 68.9044 65.5448C69.9017 63.8174 70.8148 62.0964 71.6418 60.3986ZM71.5108 69.8712C71.9338 69.1828 72.351 68.4827 72.7615 67.7717C73.1724 67.06 73.5705 66.3479 73.9555 65.6366C74.4363 66.8519 74.8682 68.0445 75.2506 69.2074C74.0524 69.4577 72.8036 69.6799 71.5108 69.8712ZM62.4382 75.1091C61.6314 75.1312 60.8174 75.1424 59.9974 75.1424C59.1771 75.1424 58.3628 75.1312 57.5556 75.109C58.3666 76.1315 59.1822 77.1004 59.9969 78.0117C60.8116 77.1004 61.6272 76.1315 62.4382 75.1091ZM63.1054 81.2159C64.8574 79.2758 66.5961 77.1078 68.2792 74.7501C71.1646 74.4712 73.9134 74.0492 76.4711 73.5015C76.7081 74.5029 76.9013 75.4708 77.0501 76.3996C77.5271 79.3768 77.5282 81.8313 77.1385 83.6531C76.7487 85.4753 76.0326 86.4173 75.2721 86.8564C74.5116 87.2955 73.3377 87.4447 71.5648 86.8711C69.7922 86.2977 67.667 85.0695 65.3272 83.1678C64.5968 82.5742 63.8546 81.9224 63.1054 81.2159ZM56.8884 81.2159C55.1364 79.2757 53.3977 77.1077 51.7146 74.75C48.8292 74.4711 46.0805 74.049 43.5228 73.5013C43.2858 74.5027 43.0926 75.4706 42.9438 76.3994C42.4668 79.3766 42.4658 81.8311 42.8555 83.653C43.2452 85.4752 43.9614 86.4172 44.7219 86.8562C45.4824 87.2953 46.6562 87.4445 48.4292 86.871C50.2018 86.2975 52.3269 85.0694 54.6668 83.1677C55.3971 82.5741 56.1392 81.9224 56.8884 81.2159ZM44.7434 69.2072C45.9415 69.4575 47.1902 69.6797 48.483 69.8711C48.06 69.1827 47.6429 68.4827 47.2324 67.7718C46.8215 67.0601 46.4234 66.348 46.0384 65.6366C45.5576 66.8519 45.1257 68.0444 44.7434 69.2072ZM46.0388 55.1604C46.4229 54.4509 46.8199 53.7407 47.2298 53.0309C47.64 52.3204 48.0569 51.6207 48.4797 50.9327C47.189 51.1238 45.9423 51.3457 44.746 51.5955C45.1278 52.7565 45.5589 53.9471 46.0388 55.1604ZM43.429 60.3984C42.2278 63.0366 41.2189 65.6281 40.4143 68.117C39.4292 67.8217 38.4949 67.5052 37.6167 67.1699C34.7999 66.0944 32.6737 64.868 31.2907 63.6196C29.9076 62.371 29.4499 61.2798 29.4499 60.4016C29.4499 59.5235 29.9076 58.4323 31.2907 57.1837C32.6737 55.9353 34.7999 54.7089 37.6167 53.6334C38.4957 53.2978 39.4308 52.981 40.4169 52.6855C41.2209 55.1726 42.2289 57.7622 43.429 60.3984ZM57.5525 45.6943C58.3607 45.6721 59.176 45.6609 59.9974 45.6609C60.8185 45.6609 61.6335 45.6721 62.4413 45.6943C61.6294 44.6705 60.8127 43.7004 59.9969 42.7881C59.1812 43.7004 58.3645 44.6705 57.5525 45.6943ZM66.1048 60.4015C66.1048 63.7748 63.3702 66.5094 59.9968 66.5094C56.6235 66.5094 53.8889 63.7748 53.8889 60.4015C53.8889 57.0281 56.6235 54.2935 59.9968 54.2935C63.3702 54.2935 66.1048 57.0281 66.1048 60.4015Z" fill="white"/>
</svg>
