<svg width="120" height="120" viewBox="0 0 120 120" fill="none" xmlns="http://www.w3.org/2000/svg">
<path fill-rule="evenodd" clip-rule="evenodd" d="M92.78 64.9106C94.2441 65.13 95.3763 66.0442 95.8085 67.3568C97.0693 71.1842 91.7143 74.0192 90.0432 74.7967C87.9284 75.7818 84.4849 76.3806 81.6688 76.2519L81.5384 76.2431L81.0324 76.1985L80.9874 76.5831L80.974 76.6989C80.9564 76.8509 80.9382 77.0088 80.9187 77.1726C80.7297 84.4494 79.6857 89.0676 77.538 92.1338C75.2663 95.3773 72.1261 96.2825 69.3611 96.8768C68.5854 97.0434 67.7011 97.1654 66.7742 97.1654C64.926 97.1654 62.908 96.6812 61.2398 95.1021C59.6298 93.5787 58.9963 91.6339 58.6175 90.4709L58.6168 90.4686C58.5576 90.2859 58.5016 90.1137 58.4599 90.0007C57.7009 87.9464 57.4446 85.0104 57.2934 81.2344C57.2712 80.6759 57.2543 80.0787 57.2374 79.4697C57.2273 79.0942 57.2152 78.6594 57.1994 78.2043C54.6476 79.3263 51.6566 79.5265 48.4634 78.726C47.5773 78.5038 46.6901 78.1289 45.9645 77.6701C45.3932 77.3084 44.9627 76.9191 44.6401 76.5272C42.0945 78.6532 39.6742 78.3415 38.3421 77.8965C35.9654 77.1015 33.8484 74.8876 31.8699 71.1283C30.4747 68.4771 29.126 65.0263 27.8613 60.8709C25.6606 53.6413 24.2629 46.0181 24.1379 43.5126C23.7443 35.6212 25.8726 29.971 30.4637 26.719C34.2552 24.0331 39.4388 23.2081 45.8702 24.2669C48.6047 24.7169 50.9727 25.4222 52.448 25.9225C55.113 24.3366 58.2319 23.565 61.7618 23.6215C63.6449 23.652 65.4396 23.8168 67.1087 24.1122C68.9014 23.5548 72.3378 22.7798 76.2524 22.8278C83.5904 22.9156 89.673 25.7853 93.8421 31.1272C95.4174 33.1454 96.7655 37.6072 94.2427 47.4013C92.6826 53.4583 89.9726 59.8928 86.6397 65.5354C87.5227 65.5106 88.7326 65.3821 90.3634 65.0447C91.299 64.8513 92.0896 64.8072 92.78 64.9106ZM82.0443 66.9906C82.0443 66.9906 82.6201 69.8335 90.9938 68.1013H90.9932C94.6631 67.3415 92.4556 70.2335 88.734 71.9654C87.0055 72.7709 84.0603 73.2365 81.8106 73.134L81.0673 73.0685C78.4917 72.5069 78.4034 73.4358 78.1216 76.3991C78.069 76.9529 78.0096 77.5777 77.9259 78.2771L77.465 79.664C77.4462 81.1918 77.281 81.7912 77.0911 82.4797C76.9169 83.1114 76.722 83.8182 76.6006 85.3862C76.2428 89.9957 73.6713 92.7589 68.7093 93.8253C63.3608 94.9744 62.2654 91.6156 61.5906 89.5466C61.5161 89.3183 61.4468 89.1057 61.3774 88.9165C60.68 87.0136 60.7496 84.5773 60.8537 81.0288C60.9579 77.4801 60.3362 73.5657 59.451 72.8545L59.5833 72.3223C56.2609 76.9863 51.3437 76.2313 49.2182 75.6985C47.4649 75.2586 44.7797 73.577 49.3508 72.6323C52.9142 71.8967 53.2534 71.4648 54.347 70.0725C54.6398 69.6998 54.9866 69.2582 55.4638 68.7236C55.3785 68.1676 55.3571 67.6981 55.4038 67.2181L55.2538 67.3458C53.3228 67.5335 51.4808 67.0106 49.9424 65.9857C49.9424 65.9857 46.8444 69.2549 43.6382 73.1216C34.8664 83.6955 27.5121 48.6879 27.2463 43.3567C25.9964 18.2967 52.8658 29.3967 52.8658 29.3967C55.0468 27.7382 57.921 26.68 61.7097 26.7421C63.7907 26.7763 65.642 26.9812 67.2964 27.3257L67.3772 27.311C67.6287 27.1744 82.6908 21.9019 91.3922 33.0502C94.5814 37.137 90.8854 53.8355 82.0443 66.9906Z" fill="white"/>
<path fill-rule="evenodd" clip-rule="evenodd" d="M90.7281 66.9777C92.4355 66.6242 93.4632 66.9356 93.7825 67.9038C94.3991 69.7745 90.9989 71.9277 89.1147 72.8052C87.4375 73.5859 84.7629 74.0797 82.4451 74.0797C81.3338 74.08 80.3058 73.9656 79.5073 73.7157C79.1288 77.2038 78.3244 83.7064 77.8556 86.4295C76.9797 91.5249 74.7151 93.8362 69.5003 94.9571C68.6125 95.1479 67.8055 95.2335 67.0724 95.2335C62.0765 95.2338 60.4944 91.269 59.8467 89.6456L59.8464 89.6448C59.0557 87.6625 58.7812 81.1563 58.8367 74.5534C57.0341 76.1879 54.7785 77.0327 52.2155 77.0327C51.1616 77.0327 50.0564 76.8907 48.9094 76.6027C48.5802 76.5202 45.6911 75.7424 45.7294 73.8902C45.7649 72.1961 48.1734 71.6974 49.0828 71.509L49.0845 71.5087C52.2764 70.8497 52.4829 70.5869 53.4745 69.3246L53.4746 69.3245C53.7106 69.0215 53.9519 68.7227 54.1982 68.4281C54.1974 68.4195 54.1966 68.4108 54.1959 68.4022C54.1932 68.3735 54.1905 68.3446 54.1884 68.3157C52.7572 68.2773 51.3578 67.8944 50.084 67.2089C48.1207 69.311 46.2184 71.4696 44.3793 73.6819C42.8715 75.4996 41.4223 76.0338 40.2404 76.0338C39.758 76.0338 39.3208 75.9451 38.9415 75.8183C35.7013 74.7344 32.6216 69.4657 29.7885 60.1586C27.6362 53.0874 26.2723 45.7036 26.1527 43.3034C25.7971 36.1692 27.6329 31.1193 31.6094 28.2942C34.9419 25.9268 39.6119 25.2079 45.4887 26.1566C48.888 26.7058 51.6675 27.6626 52.7431 28.0641C55.2192 26.3709 58.2099 25.5402 61.6698 25.5964C63.5565 25.6275 65.2895 25.8709 66.8792 26.2673C67.6341 25.9347 71.5281 24.752 76.137 24.8039C82.841 24.8751 88.3793 27.4686 92.1528 32.3037C93.0887 33.5031 93.5426 35.4665 93.5012 38.1383C93.4637 40.5726 93.0062 43.5592 92.1778 46.7751C90.429 53.564 87.1874 60.8404 83.247 66.8599C83.843 67.3001 85.6585 68.0269 90.7281 66.9777ZM81.0556 47.2743C81.2054 46.2985 81.3467 45.3637 81.3639 44.334C77.2655 43.8238 75.6327 44.7713 74.9893 45.6929C72.8295 48.789 77.0486 56.3765 78.8503 59.6167L78.8504 59.6168C79.3135 60.4491 79.648 61.0505 79.8021 61.4249C79.9619 61.8131 80.1453 62.1911 80.3511 62.5568C81.5903 59.9124 81.2701 57.2324 80.9582 54.6292L80.9579 54.6271C80.8037 53.3389 80.6442 52.007 80.6856 50.7259C80.7276 49.4088 80.8942 48.3237 81.0556 47.2743ZM90.5186 33.5861C87.1545 29.2753 82.4028 27.022 76.396 26.889C74.025 26.8362 71.9073 27.1363 70.3588 27.4582C73.9591 29.0512 76.5959 31.4129 78.4041 33.5234C81.7096 37.3819 83.3314 41.645 83.4652 43.0694C83.4857 43.2879 83.47 43.472 83.4308 43.6278C83.4832 45.1132 83.2931 46.3733 83.1065 47.591C82.9544 48.5792 82.7973 49.6013 82.7596 50.7928C82.723 51.9171 82.8666 53.1139 83.0186 54.3811C83.3886 57.4687 83.8042 60.9514 81.6787 64.4713L81.7828 64.6018C81.8664 64.7066 81.9496 64.8117 82.0323 64.9172C90.2576 51.9377 93.0988 36.8926 90.5186 33.5861ZM39.5986 73.8447C39.9764 73.9708 41.1232 74.3535 42.7837 72.3515C45.1314 69.5196 47.3368 67.1095 48.3516 66.0197C48.0946 65.7998 47.8487 65.5672 47.6147 65.3229C45.3349 62.9374 44.2971 59.6332 44.7679 56.2572C45.2746 52.6247 45.0849 49.4171 44.983 47.6933L44.983 47.6927L44.9818 47.6732C44.9548 47.2126 44.9351 46.8765 44.9357 46.6381C44.921 46.0116 44.7805 35.7638 50.7035 29.7658C50.7319 29.7367 50.7613 29.709 50.7906 29.6813C50.8141 29.6591 50.8376 29.637 50.8606 29.6141C47.2512 28.4348 38.2689 26.1094 32.8054 29.9945C29.4484 32.3819 27.9074 36.8246 28.225 43.1992C28.3258 45.2149 29.5973 52.403 31.7732 59.5513C34.2879 67.8126 37.1401 73.0223 39.5981 73.8445L39.5986 73.8447ZM46.823 56.5452C46.4409 59.2862 47.2755 61.9605 49.1129 63.8832V63.8829C50.5579 65.3952 52.4582 66.232 54.4116 66.2377C54.6355 65.3159 54.9965 64.3453 55.3846 63.3017L55.3873 63.2945L55.541 62.8806C55.7392 62.3453 55.9715 61.8278 56.2173 61.2803L56.2175 61.2799C57.4102 58.6223 58.8943 55.3152 57.1836 47.381C56.8531 45.8484 56.0579 44.9574 54.7532 44.6578C51.8936 44.0008 47.8839 46.1551 47.0187 46.9244C47.0259 47.089 47.0381 47.2955 47.0521 47.5306L47.0544 47.5696C47.1606 49.3653 47.358 52.7076 46.823 56.5452ZM48.0284 73.9871C48.3293 74.1929 48.8424 74.4411 49.4128 74.5839C52.1814 75.2788 56.0365 75.3265 58.6821 71.612C58.9955 71.1716 58.8997 70.6058 58.8144 70.3076C58.6342 69.6763 58.1896 69.1026 57.7332 68.9134L57.7331 68.9134C57.1701 68.6791 56.8595 68.5498 56.1807 69.3121L56.1801 69.3126C55.7243 69.8231 55.3951 70.2421 55.1049 70.612C53.8384 72.2244 53.2584 72.7716 49.5032 73.5466C48.7272 73.707 48.2798 73.8685 48.0284 73.9871ZM61.7731 88.8721C62.845 91.5591 64.4716 93.9096 69.0655 92.9225V92.9228C73.4965 91.9699 75.0724 90.3704 75.8109 86.076C76.3704 82.8255 77.4716 73.6251 77.6264 71.66C77.4344 67.7437 79.5413 66.9602 80.7143 66.6211C80.564 66.4048 80.3663 66.1572 80.1625 65.902C79.4977 65.0691 78.5871 63.9278 77.8838 62.2186C77.7762 61.9571 77.4344 61.3419 77.0382 60.6301L77.0382 60.6301C74.8783 56.7459 70.3844 48.6642 73.2892 44.5003C74.6244 42.586 77.2584 41.8194 81.1313 42.2144C80.6163 40.6802 79.3259 37.8356 76.9428 35.0119C74.1773 31.7348 69.277 27.8024 61.6354 27.677C57.7572 27.6126 54.5741 28.8064 52.1839 31.2232C48.3879 35.0625 47.3732 41.1305 47.1046 44.3774C47.2814 44.2786 47.4706 44.177 47.6775 44.072C48.6399 43.5827 50.5695 42.7294 52.6784 42.5106C56.1962 42.145 58.5168 43.7187 59.2117 46.9414C61.0669 55.5451 59.3576 59.3536 58.1094 62.1341L58.102 62.1505C57.8739 62.6595 57.6582 63.1406 57.486 63.6051L57.3314 64.0216C56.9629 65.0117 56.623 65.9262 56.4271 66.736C57.3461 66.5002 58.1108 66.8179 58.5275 66.991C59.5763 67.4269 60.4506 68.4783 60.8093 69.7353C60.8666 69.9354 60.9095 70.1394 60.9377 70.3457C60.9692 70.4502 60.9856 70.5611 60.9825 70.6761C60.7412 79.3148 61.0813 87.1374 61.7731 88.8721ZM83.1276 71.985C85.0343 71.8949 87.0416 71.4762 88.241 70.918C89.6359 70.2684 90.6197 69.545 91.1946 69.006L91.1479 69.0153C86.8853 69.8977 83.8661 69.7768 82.1734 68.6565C82.0675 68.5865 81.9709 68.515 81.8828 68.443C81.7409 68.4927 81.5939 68.5342 81.4433 68.5766L81.4432 68.5766C80.4845 68.8465 79.5788 69.1015 79.697 71.542C79.9493 71.7484 81.0215 72.0838 83.1276 71.985ZM52.6553 45.9949C53.001 45.7323 53.6844 45.6349 54.439 45.7402V45.7405C55.365 45.8695 56.3198 46.3091 56.2283 46.9687C56.1551 47.4952 55.3242 48.2087 54.4105 48.2087C54.332 48.2087 54.2529 48.2036 54.1735 48.1923C53.6255 48.1161 53.072 47.7699 52.693 47.2663C52.559 47.0884 52.341 46.7434 52.3844 46.4314C52.4007 46.3136 52.461 46.1425 52.6553 45.9949ZM77.5771 45.2182C78.4477 45.0968 79.3651 45.2441 79.4371 45.7611C79.4695 45.9935 79.2933 46.3509 78.9892 46.6716C78.7893 46.882 78.3686 47.2471 77.7953 47.3267C77.7216 47.3371 77.6484 47.3419 77.5757 47.3419C76.717 47.3419 75.9914 46.6541 75.9351 46.2512C75.8647 45.7332 76.7077 45.3396 77.5771 45.2182Z" fill="white"/>
</svg>
