<svg width="120" height="120" viewBox="0 0 120 120" fill="none" xmlns="http://www.w3.org/2000/svg">
<path fill-rule="evenodd" clip-rule="evenodd" d="M29.6015 43.5834C27.9227 44.241 27.0961 44.8513 27.1115 45.5006V52.0324C27.1115 52.6868 28.0154 53.3796 29.7339 54.2016C29.8477 54.256 29.9787 54.317 30.1256 54.3842L29.602 54.5893C27.9388 55.2408 27.112 55.8459 27.1118 56.4884V56.489V63.0383C27.1118 63.685 27.9924 64.3681 29.668 65.1755L29.602 65.2013C27.9388 65.8526 27.112 66.4574 27.1118 67.0999V67.1005V73.6493C27.1118 74.3043 28.0156 74.9978 29.7341 75.819C31.5093 76.6675 37.4551 79.1328 43.2075 81.518L43.2077 81.5181L43.2079 81.5181L43.2086 81.5184C48.5993 83.7536 53.8201 85.9183 55.2795 86.616C58.2965 88.0583 60.4181 88.0775 64.2371 86.0863C66.1939 85.0661 71.8575 82.6323 77.3815 80.2585L77.3815 80.2585C82.6385 77.9994 87.7689 75.7947 89.4575 74.9146C91.2201 73.9961 91.9988 73.2848 91.9983 72.6364L91.9998 66.1705L91.9997 66.1704C91.9953 65.5277 91.1185 64.9587 89.4141 64.3339L89.4044 64.3304L89.4575 64.3028C91.2201 63.3843 91.9988 62.673 91.9983 62.0249L91.9998 55.5582L91.9997 55.5581C91.9948 54.9156 91.1181 54.3467 89.4141 53.7222C89.2816 53.6737 89.1269 53.6161 88.9517 53.5502C89.1439 53.4566 89.3131 53.3718 89.4573 53.2967C91.2199 52.3779 91.9985 51.6666 91.998 51.019L91.9996 44.5525L91.9991 44.5524C91.9944 43.9098 91.1176 43.3411 89.4135 42.7171C87.7323 42.1011 82.4616 40.03 77.1735 37.952C71.8491 35.8598 66.5072 33.7607 64.7941 33.1332C61.3799 31.8823 59.9881 31.934 55.9762 33.3734C52.2419 34.7134 35.5391 41.2572 30.5186 43.2242L30.5186 43.2242L29.6015 43.5834ZM67.4823 40.3962L61.9035 40.9754L60.6546 43.9805L58.6375 40.6271L52.1956 40.0482L57.0024 38.3147L55.5601 35.6538L60.0605 37.4139L64.3031 36.0249L63.1564 38.7763L67.4823 40.3962ZM60.3216 54.9752L49.9098 50.6569L64.829 48.3668L60.3216 54.9752ZM45.8865 42.0666C50.2905 42.0666 53.8606 43.4505 53.8606 45.1574C53.8606 46.8647 50.2905 48.2484 45.8865 48.2484C41.4824 48.2484 37.9123 46.8645 37.9123 45.1574C37.9123 43.4505 41.4824 42.0666 45.8865 42.0666ZM74.0739 41.2177L64.3064 45.0814L73.1248 48.5671L74.0827 48.1925V48.1922L82.9038 44.7067L74.0751 41.2179V41.2172L74.0742 41.2176L74.0739 41.2175V41.2177Z" fill="white"/>
</svg>
