<svg width="120" height="120" viewBox="0 0 120 120" fill="none" xmlns="http://www.w3.org/2000/svg">
<g clip-path="url(#clip0_681_1717)">
<path d="M30.1407 46.9557L19.7134 72.7966H24.9944L27.5187 65.9985H38.0862L40.568 72.7966H46.1666L35.7357 46.9557H30.1407ZM32.7679 51.5815L36.6351 61.9839H28.9326L32.7679 51.5815Z" fill="white"/>
<path d="M48.9648 45.2578H53.7652V72.7977H48.9648V45.2578Z" fill="white"/>
<path d="M59.7362 59.4025H56.5591V55.4962H59.7362V53.3536C59.7362 50.7237 60.3784 48.6911 61.6699 47.2522C62.9595 45.8151 64.7867 45.0939 67.1549 45.0939C67.8503 45.0939 68.567 45.1582 69.3173 45.2963C70.0659 45.4324 70.6922 45.6141 71.1978 45.8429L70.6815 49.7196C69.7147 49.377 68.7834 49.2044 67.8823 49.2044C66.7292 49.2044 65.8883 49.5747 65.3473 50.3115C64.8026 51.0484 64.5366 52.1958 64.5366 53.7621V55.4962H69.2642V59.4024H64.5366V72.7978H59.7362V59.4025Z" fill="white"/>
<path d="M80.1249 69.1278C81.4873 69.1278 82.6013 68.6635 83.4777 67.7326C84.3522 66.8036 84.7904 65.6005 84.7904 64.1284C84.7904 62.679 84.3575 61.4881 83.4919 60.5591C82.6297 59.6318 81.5068 59.1655 80.1249 59.1655C78.7448 59.1655 77.6236 59.6318 76.7615 60.5591C75.8922 61.4881 75.4629 62.679 75.4629 64.1284C75.4629 65.6005 75.9009 66.8036 76.7739 67.7326C77.6503 68.6633 78.766 69.1278 80.1249 69.1278ZM78.8121 73.345C77.2688 73.345 75.8834 72.9693 74.6505 72.2222C73.4194 71.4713 72.4455 70.4008 71.7323 69.0091C71.0192 67.6174 70.6626 66.0108 70.6626 64.1982C70.6626 62.5201 71.0156 60.9833 71.7182 59.5933C72.4136 58.1964 73.4158 57.0736 74.7019 56.2249C75.9898 55.3727 77.4427 54.9484 79.0552 54.9484C80.2508 54.9484 81.3418 55.1909 82.3175 55.6801C83.2949 56.1692 84.0773 56.8553 84.6538 57.7354L84.7212 55.495H89.3157V72.8001H84.7212L84.6538 70.5912C84.0524 71.4957 83.2577 72.1838 82.2679 72.6448C81.2744 73.1091 80.1249 73.345 78.8121 73.345Z" fill="white"/>
<path d="M93.475 32.6552C93.131 32.6651 92.7902 33.0027 92.5365 33.5336C90.5479 37.2269 84.8305 48.4692 84.8305 48.4692L84.7153 48.923V48.986L84.7304 49.1116L84.7555 49.2374C84.8058 49.3998 84.8903 49.5448 85.009 49.6651L85.105 49.7487C85.2665 49.8779 85.4721 49.9566 85.7064 49.9566H91.7946C92.0838 49.9566 92.3481 49.7958 92.4882 49.5359L93.8702 46.9462L93.835 46.8833H89.3859L89.3356 46.8031L93.4387 38.7652L93.5011 38.7207L93.5685 38.7652L99.3179 49.9167L99.3873 49.9563H101.296C101.534 49.9563 101.742 49.8776 101.901 49.7484L101.999 49.6648C102.112 49.5445 102.201 49.3994 102.247 49.237L102.282 49.1113L102.287 49.0064V48.9158L102.174 48.4688C102.174 48.4688 96.4579 37.2266 94.4657 33.5333C94.2123 32.9989 93.8697 32.6548 93.5184 32.6548L93.475 32.6552Z" fill="white"/>
</g>
<defs>
<clipPath id="clip0_681_1717">
<rect width="84" height="42" fill="white" transform="translate(19 32)"/>
</clipPath>
</defs>
</svg>
