<svg width="120" height="120" viewBox="0 0 120 120" fill="none" xmlns="http://www.w3.org/2000/svg">
<path d="M92.0888 41.8772C92.1126 41.9655 92.1248 42.0566 92.1251 42.1481V56.3709C92.1251 56.5534 92.0769 56.7327 91.9854 56.8907C91.8939 57.0487 91.7623 57.1797 91.604 57.2705L79.6666 64.1434V77.7659C79.6666 78.1367 79.4695 78.4789 79.148 78.6656L54.2297 93.0102C54.1727 93.0426 54.1105 93.0633 54.0483 93.0854C54.0249 93.0931 54.0029 93.1074 53.9783 93.1139C53.8041 93.1597 53.621 93.1597 53.4468 93.1139C53.4183 93.1061 53.3923 93.0905 53.3651 93.0802C53.3081 93.0594 53.2484 93.0413 53.194 93.0102L28.2809 78.6656C28.1226 78.5746 27.9911 78.4436 27.8996 78.2857C27.8081 78.1277 27.7599 77.9485 27.7598 77.7659V35.0977C27.7598 35.0043 27.7727 34.9136 27.7961 34.8254C27.8038 34.7956 27.822 34.7684 27.8324 34.7386C27.8518 34.6842 27.8699 34.6284 27.8985 34.5779C27.9179 34.5442 27.9464 34.5169 27.9698 34.4858C27.9996 34.4443 28.0268 34.4016 28.0618 34.3653C28.0916 34.3355 28.1305 34.3134 28.1642 34.2875C28.2018 34.2564 28.2355 34.2227 28.2783 34.198H28.2796L40.7368 27.0257C40.8945 26.935 41.0733 26.8872 41.2553 26.8872C41.4373 26.8872 41.6161 26.935 41.7738 27.0257L54.231 34.198H54.2336C54.2751 34.224 54.3101 34.2564 54.3477 34.2862C54.3814 34.3121 54.419 34.3355 54.4488 34.364C54.4851 34.4016 54.511 34.4443 54.5421 34.4858C54.5642 34.5169 54.594 34.5442 54.6121 34.5779C54.6419 34.6297 54.6588 34.6842 54.6795 34.7386C54.6899 34.7684 54.7081 34.7956 54.7158 34.8267C54.7397 34.9151 54.7519 35.0062 54.7521 35.0977V61.7478L65.1327 55.7707V42.1468C65.1327 42.0561 65.1457 41.964 65.169 41.8772C65.1781 41.8461 65.1949 41.8189 65.2053 41.7891C65.226 41.7346 65.2442 41.6789 65.2727 41.6283C65.2921 41.5946 65.3207 41.5674 65.3427 41.5363C65.3738 41.4948 65.3997 41.452 65.436 41.4157C65.4659 41.3859 65.5034 41.3639 65.5371 41.3379C65.576 41.3068 65.6097 41.2731 65.6512 41.2485H65.6525L78.111 34.0762C78.2687 33.9853 78.4475 33.9375 78.6295 33.9375C78.8115 33.9375 78.9904 33.9853 79.148 34.0762L91.6053 41.2485C91.6493 41.2744 91.683 41.3068 91.7219 41.3366C91.7543 41.3626 91.7919 41.3859 91.8217 41.4144C91.858 41.452 91.884 41.4948 91.9151 41.5363C91.9384 41.5674 91.9669 41.5946 91.9851 41.6283C92.0149 41.6789 92.0317 41.7346 92.0525 41.7891C92.0641 41.8189 92.081 41.8461 92.0888 41.8772ZM90.0484 55.7707V43.9435L85.6891 46.4531L79.6666 49.9206V61.7478L90.0497 55.7707H90.0484ZM77.5912 77.1658V65.3307L71.6672 68.714L54.7508 78.3687V90.3152L77.5912 77.1658ZM29.8364 36.893V77.1658L52.6742 90.3139V78.37L40.7433 71.6177L40.7394 71.6151L40.7342 71.6125C40.694 71.5892 40.6603 71.5555 40.6227 71.527C40.5903 71.501 40.5527 71.4803 40.5242 71.4518L40.5216 71.4479C40.4879 71.4155 40.4646 71.3753 40.4361 71.339C40.4101 71.304 40.379 71.2742 40.3583 71.2379L40.357 71.234C40.3336 71.1951 40.3194 71.1484 40.3025 71.1044C40.2857 71.0655 40.2636 71.0292 40.2533 70.9877V70.9864C40.2403 70.9371 40.2377 70.8853 40.2325 70.8347C40.2274 70.7959 40.217 70.757 40.217 70.7181V42.8701L34.1958 39.4013L29.8364 36.8943V36.893ZM41.2566 29.1231L30.8773 35.0977L41.254 41.0722L51.632 35.0964L41.254 29.1231H41.2566ZM46.6543 66.4093L52.6755 62.943V36.893L48.3161 39.4026L42.2936 42.8701V68.9201L46.6543 66.4093ZM78.6295 36.1736L68.2515 42.1481L78.6295 48.1227L89.0062 42.1468L78.6295 36.1736ZM77.5912 49.9206L71.5687 46.4531L67.2093 43.9435V55.7707L73.2305 59.2369L77.5912 61.7478V49.9206ZM53.7112 76.5734L68.9334 67.8831L76.5425 63.5406L66.1723 57.5699L54.2323 64.4441L43.3501 70.709L53.7112 76.5734Z" fill="white"/>
</svg>
