<svg width="120" height="120" viewBox="0 0 120 120" fill="none" xmlns="http://www.w3.org/2000/svg">
<path fill-rule="evenodd" clip-rule="evenodd" d="M105.001 59.8834C105.001 72.6021 84.6544 82.9134 59.5559 82.9134C34.458 82.9134 14.1113 72.6021 14.1113 59.8834C14.1113 47.1646 34.458 36.8533 59.5559 36.8533C84.6544 36.8533 105.001 47.1646 105.001 59.8834ZM43.8619 53.9598C43.1744 53.1981 41.799 52.8173 39.736 52.8173H36.0146L33.9869 63.2511H37.2906C39.48 63.2511 41.111 62.839 42.1825 62.0136C43.2541 61.1882 43.9773 59.8111 44.3532 57.8817C44.7125 56.0293 44.5488 54.7214 43.8619 53.9598ZM31.9344 73.8135H26.504L31.3497 48.8833H41.7929C44.9346 48.8833 47.2266 49.7076 48.6669 51.3567C50.1078 53.0053 50.5414 55.3072 49.9666 58.2626C49.7297 59.4798 49.3297 60.5925 48.7664 61.6015C48.2026 62.6104 47.4662 63.5336 46.5562 64.3694C45.472 65.3844 44.2669 66.107 42.9414 66.5384C41.616 66.9698 39.9273 67.1857 37.8748 67.1857H33.2231L31.9344 73.8135ZM59.3431 42.2549H53.955L49.1093 67.1857H54.4974L57.2731 52.9025H61.5792C62.9574 52.9025 63.8591 53.1311 64.2828 53.5872C64.7065 54.0439 64.7955 54.8995 64.5521 56.1546L62.4089 67.1857H67.8828L70.1369 55.5842C70.5952 53.224 70.2518 51.5166 69.1055 50.4632C67.9592 49.4097 65.8748 48.8833 62.8557 48.8833H58.055L59.3431 42.2549ZM86.2512 53.9598C85.5632 53.1981 84.1883 52.8173 82.1254 52.8173H78.4045L76.3773 63.2511H79.6811C81.8693 63.2511 83.5009 62.839 84.5719 62.0136C85.644 61.1882 86.3672 59.8111 86.742 57.8817C87.1014 56.0293 86.9381 54.7214 86.2512 53.9598ZM74.3232 73.8135H68.8923L73.7385 48.8833H84.1817C87.3234 48.8833 89.6149 49.7076 91.0563 51.3567C92.4966 53.0053 92.9302 55.3072 92.3559 58.2626C92.1185 59.4798 91.7179 60.5925 91.1547 61.6015C90.5914 62.6104 89.855 63.5336 88.945 64.3694C87.8608 65.3844 86.6557 66.107 85.3302 66.5384C84.0048 66.9698 82.3161 67.1857 80.263 67.1857H75.6113L74.3232 73.8135Z" fill="white"/>
</svg>
