<svg width="120" height="120" viewBox="0 0 120 120" fill="none" xmlns="http://www.w3.org/2000/svg">
<path fill-rule="evenodd" clip-rule="evenodd" d="M82.2857 59.5714C82.2857 66.5144 76.6573 72.1429 69.7143 72.1429C62.7713 72.1429 57.1429 66.5144 57.1429 59.5714C57.1429 52.6284 62.7713 47 69.7143 47C76.6573 47 82.2857 52.6284 82.2857 59.5714ZM76.5712 59.5713C76.5712 63.3584 73.5012 66.4284 69.7141 66.4284C65.927 66.4284 62.8569 63.3584 62.8569 59.5713C62.8569 55.7842 65.927 52.7141 69.7141 52.7141C73.5012 52.7141 76.5712 55.7842 76.5712 59.5713ZM32 47.5714H25.7143L31.4286 71.2857H38.2857L32 47.5714ZM22.8571 71.2857H16L19.1429 59.5714H25.7143L22.8571 71.2857ZM36.2857 47.5714H57.1429V53.2857H49.7143V71.2857H43.7143V53.2857H36.2857V47.5714ZM94.2857 47.5714H87.7143L81.7143 71.2857H88.5714L94.2857 47.5714ZM94.2857 59.5714H100.857L104 71.2857H97.1429L94.2857 59.5714Z" fill="white"/>
</svg>
