<svg width="120" height="120" viewBox="0 0 120 120" fill="none" xmlns="http://www.w3.org/2000/svg">
<path fill-rule="evenodd" clip-rule="evenodd" d="M40.689 51.1648H50.0898V49.3516H40.689V51.1648ZM50.0898 54.3435H40.689V52.5303H50.0898V54.3435ZM29.6156 67.9169C30.361 68.177 31.1606 68.307 32.0147 68.307C32.8687 68.307 33.6607 68.177 34.3905 67.9169C35.1358 67.6415 35.7802 67.2437 36.3237 66.7235C36.8672 66.2033 37.2942 65.5607 37.6048 64.7957C37.9153 64.0153 38.0706 63.1126 38.0706 62.0875V61.6285C38.0706 60.6646 37.9153 59.8155 37.6048 59.0811C37.2942 58.3314 36.8672 57.704 36.3237 57.1992C35.7802 56.679 35.1358 56.2888 34.3905 56.0287C33.6607 55.7686 32.8687 55.6386 32.0147 55.6386C31.1606 55.6386 30.361 55.7686 29.6156 56.0287C28.8858 56.2888 28.2491 56.679 27.7057 57.1992C27.1621 57.704 26.7351 58.3314 26.4246 59.0811C26.114 59.8155 25.9587 60.6646 25.9587 61.6285V62.0875C25.9587 63.1126 26.114 64.0153 26.4246 64.7957C26.7351 65.5607 27.1621 66.2033 27.7057 66.7235C28.2491 67.2437 28.8858 67.6415 29.6156 67.9169ZM33.2957 65.8743C32.892 66.0273 32.465 66.1038 32.0147 66.1038C31.5644 66.1038 31.1296 66.0273 30.7103 65.8743C30.3066 65.7213 29.9417 65.4841 29.6156 65.1629C29.305 64.8416 29.0488 64.4284 28.847 63.9235C28.6606 63.4187 28.5674 62.8067 28.5674 62.0875V61.6285C28.5674 60.9706 28.6606 60.4045 28.847 59.9302C29.0488 59.4559 29.305 59.0657 29.6156 58.7598C29.9417 58.4537 30.3066 58.2242 30.7103 58.0712C31.1296 57.9183 31.5644 57.8417 32.0147 57.8417C32.465 57.8417 32.892 57.9183 33.2957 58.0712C33.715 58.2242 34.0799 58.4537 34.3905 58.7598C34.7166 59.0657 34.9728 59.4559 35.1591 59.9302C35.361 60.4045 35.4619 60.9706 35.4619 61.6285V62.0875C35.4619 62.8067 35.361 63.4187 35.1591 63.9235C34.9728 64.4284 34.7166 64.8416 34.3905 65.1629C34.0799 65.4841 33.715 65.7213 33.2957 65.8743ZM13.2476 55.891H10.3594V68.0546H12.9215V59.6778L16.1824 65.53H18.0457L21.3067 59.6778V68.0546H23.8688V55.891H21.1204L17.184 63.0055L13.2476 55.891ZM45.515 68.307C44.692 68.307 43.9156 68.1846 43.1858 67.9398C42.4559 67.6797 41.8115 67.2972 41.2525 66.7923C40.709 66.2721 40.2743 65.6218 39.9482 64.8416C39.6221 64.0612 39.4591 63.1433 39.4591 62.0875V61.6285C39.4591 60.6187 39.6143 59.739 39.9249 58.9893C40.2354 58.2396 40.6547 57.6199 41.1827 57.1303C41.7261 56.6254 42.3473 56.2506 43.046 56.0057C43.7448 55.7609 44.4902 55.6386 45.2821 55.6386C47.161 55.6386 48.5974 56.1358 49.5911 57.1303C50.6004 58.1248 51.1051 59.5477 51.1051 61.399V62.6842H42.0678C42.0833 63.3115 42.1842 63.8471 42.3705 64.2907C42.5724 64.7191 42.8286 65.0711 43.1392 65.3465C43.4653 65.6066 43.8302 65.7978 44.2339 65.9202C44.6532 66.0426 45.0802 66.1038 45.515 66.1038C46.4001 66.1038 47.0445 65.9661 47.4482 65.6907C47.8675 65.4153 48.1548 65.0557 48.3101 64.6121H50.8722C50.6237 65.8208 50.0104 66.7388 49.0321 67.3661C48.0694 67.9934 46.897 68.307 45.515 68.307ZM45.3985 57.8417C44.9637 57.8417 44.5445 57.8953 44.1408 58.0024C43.7526 58.1095 43.4032 58.2855 43.0926 58.5303C42.7976 58.7598 42.5569 59.0657 42.3705 59.4482C42.1842 59.8155 42.0833 60.2668 42.0678 60.8023H48.543C48.5274 60.2362 48.4343 59.7619 48.2634 59.3794C48.1082 58.9969 47.8908 58.6909 47.6113 58.4614C47.3318 58.2319 46.9979 58.0712 46.6097 57.9794C46.2371 57.8876 45.8333 57.8417 45.3985 57.8417ZM58.5659 65.8973H57.1683V70.9234H59.5441V68.0546H68.0689V70.9234H70.4447V65.8973H68.8142V55.891H59.614V59.3335C59.614 60.022 59.5907 60.7105 59.5441 61.399C59.4976 62.0722 59.4277 62.7072 59.3345 63.3039C59.2413 63.8853 59.1249 64.4055 58.9851 64.8645C58.8609 65.3235 58.7211 65.6677 58.5659 65.8973ZM66.2522 58.0483V65.8973H61.1746C61.5007 65.1629 61.7336 64.2602 61.8733 63.1892C62.0131 62.1028 62.083 60.9706 62.083 59.7925V58.0483H66.2522ZM77.4405 68.307C76.6178 68.307 75.8413 68.1846 75.1114 67.9398C74.3815 67.6797 73.7371 67.2972 73.178 66.7923C72.6349 66.2721 72.1999 65.6218 71.8737 64.8416C71.5475 64.0612 71.3847 63.1433 71.3847 62.0875V61.6285C71.3847 60.6187 71.5401 59.739 71.8504 58.9893C72.1612 58.2396 72.5802 57.6199 73.1085 57.1303C73.6517 56.6254 74.2728 56.2506 74.9719 56.0057C75.6705 55.7609 76.4157 55.6386 77.2076 55.6386C79.0864 55.6386 80.5228 56.1358 81.5168 57.1303C82.5262 58.1248 83.0306 59.5477 83.0306 61.399V62.6842H73.9933C74.0092 63.3115 74.11 63.8471 74.2961 64.2907C74.4983 64.7191 74.7544 65.0711 75.0647 65.3465C75.3909 65.6066 75.7559 65.7978 76.1595 65.9202C76.5791 66.0426 77.0061 66.1038 77.4405 66.1038C78.3258 66.1038 78.9702 65.9661 79.3739 65.6907C79.7929 65.4153 80.0804 65.0557 80.2358 64.6121H82.7978C82.5495 65.8208 81.9358 66.7388 80.9577 67.3661C79.995 67.9934 78.8228 68.307 77.4405 68.307ZM77.3243 57.8417C76.8894 57.8417 76.4704 57.8953 76.0662 58.0024C75.6784 58.1095 75.3289 58.2855 75.018 58.5303C74.7231 58.7598 74.4823 59.0657 74.2961 59.4482C74.11 59.8155 74.0092 60.2668 73.9933 60.8023H80.4687C80.4533 60.2362 80.36 59.7619 80.1892 59.3794C80.0337 58.9969 79.8163 58.6909 79.5367 58.4614C79.2572 58.2319 78.9236 58.0712 78.5353 57.9794C78.1629 57.8876 77.7587 57.8417 77.3243 57.8417ZM84.2495 68.2841C84.4044 68.2994 84.5444 68.307 84.6685 68.307C85.305 68.307 85.8641 68.1846 86.3458 67.9398C86.8268 67.6797 87.2305 67.236 87.5567 66.6087C87.8829 65.9814 88.1237 65.1399 88.2786 64.0842C88.4494 63.0132 88.5348 61.6591 88.5348 60.022V58.0483H92.8206V68.0546H95.3831V55.891H86.0662V59.563C86.0662 60.8023 86.0269 61.8274 85.9495 62.6383C85.8721 63.4492 85.7554 64.0995 85.6 64.5891C85.4605 65.0634 85.2743 65.4 85.0415 65.5989C84.808 65.7825 84.5285 65.8743 84.2029 65.8743C84.0474 65.8743 83.9307 65.8667 83.8533 65.8513V68.2382C83.9774 68.2688 84.1095 68.2841 84.2495 68.2841ZM103.531 68.307C102.677 68.307 101.878 68.177 101.133 67.9169C100.403 67.6415 99.7657 67.2437 99.2226 66.7235C98.6789 66.2033 98.2519 65.5607 97.9416 64.7957C97.6308 64.0153 97.4754 63.1126 97.4754 62.0875V61.6285C97.4754 60.6646 97.6308 59.8155 97.9416 59.0811C98.2519 58.3314 98.6789 57.704 99.2226 57.1992C99.7657 56.679 100.403 56.2888 101.133 56.0287C101.878 55.7686 102.677 55.6386 103.531 55.6386C104.386 55.6386 105.178 55.7686 105.908 56.0287C106.653 56.2888 107.297 56.679 107.84 57.1992C108.384 57.704 108.811 58.3314 109.121 59.0811C109.432 59.8155 109.588 60.6646 109.588 61.6285V62.0875C109.588 63.1126 109.432 64.0153 109.121 64.7957C108.811 65.5607 108.384 66.2033 107.84 66.7235C107.297 67.2437 106.653 67.6415 105.908 67.9169C105.178 68.177 104.386 68.307 103.531 68.307ZM103.531 66.1038C103.982 66.1038 104.409 66.0273 104.813 65.8743C105.232 65.7213 105.597 65.4841 105.908 65.1629C106.233 64.8416 106.489 64.4284 106.676 63.9235C106.878 63.4187 106.979 62.8067 106.979 62.0875V61.6285C106.979 60.9706 106.878 60.4045 106.676 59.9302C106.489 59.4559 106.233 59.0657 105.908 58.7598C105.597 58.4537 105.232 58.2242 104.813 58.0712C104.409 57.9183 103.982 57.8417 103.531 57.8417C103.081 57.8417 102.646 57.9183 102.227 58.0712C101.823 58.2242 101.458 58.4537 101.133 58.7598C100.822 59.0657 100.566 59.4559 100.364 59.9302C100.177 60.4045 100.084 60.9706 100.084 61.6285V62.0875C100.084 62.8067 100.177 63.4187 100.364 63.9235C100.566 64.4284 100.822 64.8416 101.133 65.1629C101.458 65.4841 101.823 65.7213 102.227 65.8743C102.646 66.0273 103.081 66.1038 103.531 66.1038Z" fill="white"/>
</svg>
