<svg width="120" height="120" viewBox="0 0 120 120" fill="none" xmlns="http://www.w3.org/2000/svg">
<path d="M54.2413 88.268C49.2032 87.2263 44.5021 84.9025 40.8115 81.6297C31.3368 73.2276 28.4086 60.0283 33.4138 48.2839C34.643 45.3998 36.6413 42.4729 39.1172 39.93L41.3001 37.6882L41.454 50.8095C41.6014 63.3689 41.6346 64.0016 42.2296 65.5843C43.4199 68.7506 44.6961 70.7665 46.893 72.951C52.5678 78.594 60.8918 80.0024 67.9679 76.5167C74.6189 73.2404 78.8119 66.1164 78.3247 58.9205C77.9974 54.087 76.3694 50.5426 72.8546 47.0111C70.1968 44.3408 67.0699 42.5966 63.6655 41.8853C60.2019 41.1617 60.3681 41.056 60.3681 43.9833V46.5105L62.2669 46.8599C69.6208 48.2128 74.4845 55.4232 72.9516 62.6999C72.4621 65.024 71.3701 67.0763 69.6172 68.9668C66.9533 71.8398 63.2054 73.213 59.9329 73.2067C54.5217 73.1963 50.0033 70.126 47.8133 65.5857C47.8133 65.5857 47.2396 64.288 47.0553 63.486C45.9711 58.7699 46.6641 48.8421 46.6641 48.8421L46.5801 34.3259L47.4384 33.8827C47.9104 33.639 48.3631 33.4396 48.4444 33.4396C48.5257 33.4396 48.6289 40.1069 48.6737 48.2558C48.6737 48.2558 47.6315 58.9378 48.9194 63.0314C49.1053 63.622 49.458 64.6322 49.458 64.6322C50.5871 66.9289 52.3966 68.9491 54.7477 70.0611C56.5324 70.9052 57.431 71.2872 60.0714 71.2872C61.7966 71.2872 63.3249 70.7435 65.0834 69.9359C67.1565 68.9839 69.5345 66.4599 70.4133 64.1554C72.8345 57.8062 69.4632 50.9752 62.9683 49.0704C60.314 48.2919 60.3681 48.249 60.3681 51.131V53.6483L61.6422 53.9886C66.235 55.2151 67.6364 61.3617 64.0309 64.52C62.7571 65.6359 61.6093 66.1292 59.6013 66.1292C57.4558 66.1292 55.3963 64.8325 54.3375 62.8437C53.7015 61.649 53.6479 60.5158 53.6479 59.9968C53.6479 55.2028 53.5438 46.5808 53.5438 46.5808L53.4579 31.791L54.1173 31.6275C54.48 31.5375 55.9457 31.315 57.3746 31.1329C62.2204 30.5155 69.3894 32.0989 74.2057 34.8504C80.772 38.6017 85.7405 45.0458 87.8091 52.4941C88.5207 55.0562 88.6 55.8011 88.6 59.9226C88.6 64.0256 88.5189 64.7952 87.8224 67.3013C85.0088 77.4245 77.8517 84.6612 67.6179 87.7304C65.4642 88.3763 64.4552 88.4995 60.6548 88.5804C57.5879 88.6458 55.6001 88.5489 54.2413 88.268Z" fill="white"/>
</svg>
