<svg width="120" height="120" viewBox="0 0 120 120" fill="none" xmlns="http://www.w3.org/2000/svg">
<path fill-rule="evenodd" clip-rule="evenodd" d="M44.7672 35.144C44.7672 35.144 43.7386 28 60.2123 28C77.4285 28 76.0981 36.6134 76.0981 36.6134V50.846C76.0981 59.4538 67.338 59.3123 67.338 59.3123H51.746C42.396 59.3123 42.692 68.5132 42.692 68.5132V76.2266H37.2009C37.2009 76.2266 28 76.8161 28 60.1938C28 43.5719 38.5415 44.7675 38.5415 44.7675H60.5061V42.5454H44.7855L44.7672 35.144ZM52.6267 33.1919C52.2834 33.0499 51.9155 32.9769 51.544 32.9773C51.1725 32.9769 50.8046 33.0499 50.4614 33.1919C50.1181 33.3339 49.8062 33.5422 49.5435 33.8049C49.2808 34.0676 49.0725 34.3795 48.9305 34.7227C48.7885 35.066 48.7156 35.4339 48.7159 35.8054C48.7156 36.1769 48.7885 36.5448 48.9305 36.8881C49.0725 37.2313 49.2808 37.5432 49.5435 37.8059C49.8062 38.0686 50.1181 38.2769 50.4614 38.4189C50.8046 38.5609 51.1725 38.6338 51.544 38.6335C51.9155 38.6338 52.2834 38.5609 52.6267 38.4189C52.97 38.2769 53.2819 38.0686 53.5445 37.8059C53.8072 37.5432 54.0155 37.2313 54.1575 36.8881C54.2996 36.5448 54.3725 36.1769 54.3721 35.8054C54.3725 35.4339 54.2996 35.066 54.1575 34.7227C54.0155 34.3795 53.8072 34.0676 53.5445 33.8049C53.2819 33.5422 52.97 33.3339 52.6267 33.1919ZM76.123 85.4108C76.123 85.4108 77.1516 92.5548 60.6779 92.5548H60.6776C43.4617 92.5548 44.7919 83.9416 44.7919 83.9416V69.7088C44.7919 61.1007 53.5519 61.2422 53.5519 61.2422H69.1439C78.494 61.2422 78.198 52.0413 78.198 52.0413V44.3281H83.6891C83.6891 44.3281 92.89 43.7386 92.89 60.3608C92.89 76.9831 82.3484 75.7876 82.3484 75.7876H60.3839V78.0097H76.1047L76.123 85.4108ZM68.2635 87.3635C68.6068 87.5055 68.9747 87.5784 69.3462 87.5781V87.5778C69.7177 87.5781 70.0856 87.5052 70.4289 87.3632C70.7722 87.2212 71.0841 87.0129 71.3467 86.7502C71.6094 86.4875 71.8177 86.1756 71.9597 85.8323C72.1017 85.4891 72.1747 85.1212 72.1743 84.7497C72.1747 84.3782 72.1017 84.0103 71.9597 83.667C71.8177 83.3237 71.6094 83.0118 71.3467 82.7491C71.0841 82.4865 70.7722 82.2782 70.4289 82.1362C70.0856 81.9941 69.7177 81.9212 69.3462 81.9216C68.9747 81.9212 68.6068 81.9942 68.2635 82.1362C67.9202 82.2782 67.6083 82.4865 67.3456 82.7492C67.0829 83.0119 66.8746 83.3239 66.7326 83.6672C66.5906 84.0105 66.5177 84.3784 66.5181 84.7499C66.5178 85.1214 66.5907 85.4893 66.7327 85.8326C66.8747 86.1759 67.083 86.4878 67.3457 86.7505C67.6084 87.0131 67.9203 87.2215 68.2635 87.3635Z" fill="white"/>
</svg>
