<svg width="96" height="18" viewBox="0 0 96 18" fill="none" xmlns="http://www.w3.org/2000/svg">
<g clip-path="url(#clip0_196_546)">
<path d="M65.4219 13.2327H74.0323V11.2938H68.3573C69.14 8.11208 73.9345 7.41608 73.9345 3.88637C73.9345 1.99722 72.6625 0.605225 69.9717 0.605225C68.3083 0.605225 66.8406 1.10237 65.8622 1.59951L66.4493 3.38922C67.3299 2.9418 68.3573 2.54408 69.6293 2.54408C70.6077 2.54408 71.5373 2.99151 71.5373 4.13494C71.5373 6.72008 65.9111 6.91894 65.4219 13.2327ZM74.277 10.1504H79.8053V13.2327H82.0068V10.1504H83.8659V8.26122H82.0068V0.605225H80.3923L74.277 8.65894V10.1504ZM76.772 8.36065L79.9031 4.08522C79.9031 4.43322 79.8053 5.52694 79.8053 6.52122V8.31094H78.3376C77.8973 8.31094 77.0656 8.36065 76.772 8.36065Z" fill="white"/>
<path d="M2.90095 11.3446V7.41715H3.83049C4.66218 7.41715 5.3471 7.51658 5.83633 7.81486C6.32556 8.11315 6.6191 8.61029 6.6191 9.40572C6.6191 10.748 5.83633 11.3446 3.97726 11.3446H2.90095ZM0.650486 13.2337H3.92833C7.59756 13.2337 8.91849 11.5931 8.91849 9.30629C8.91849 7.76515 8.28249 6.72115 7.15726 6.12458C6.27664 5.62743 5.15141 5.47829 3.78156 5.47829H2.90095V2.49543H7.84218L8.42926 0.656006H0.601562V13.2337H0.650486ZM10.4351 13.2337H12.5877L15.3763 9.15715C15.9145 8.41143 16.3059 7.66572 16.5505 7.26801H16.5994C16.5505 7.81486 16.5016 8.51086 16.5016 9.20686V13.184H18.7031V4.23543H16.5505L13.7619 8.31201C13.2726 9.05772 12.8323 9.80343 12.5877 10.2011H12.5388C12.5877 9.65429 12.6366 8.95829 12.6366 8.26229V4.28515H10.4351V13.2337ZM22.4702 13.2337H24.7206V6.12458H27.3625L27.9496 4.23543H19.7794V6.12458H22.4702V13.2337ZM28.7323 17.7577H30.9339V13.2337C31.3742 13.3829 31.8145 13.4326 32.3037 13.4326C35.0923 13.4326 36.9025 11.4937 36.9025 8.70972C36.9025 5.82629 35.2391 3.98686 32.0591 3.98686C30.836 3.98686 29.6619 4.23543 28.6834 4.53372V17.7577H28.7323ZM30.9339 11.2949V6.02515C31.2763 5.92572 31.5699 5.87601 31.9613 5.87601C33.5757 5.87601 34.6031 6.77086 34.6031 8.70972C34.6031 10.4497 33.7714 11.5434 32.108 11.5434C31.6677 11.5434 31.3253 11.444 30.9339 11.2949ZM38.2234 13.2337H40.376L43.1646 9.15715C43.7028 8.41143 44.0942 7.66572 44.3388 7.26801H44.3877C44.3388 7.81486 44.2899 8.51086 44.2899 9.20686V13.184H46.4914V4.23543H44.3388L41.5502 8.31201C41.061 9.05772 40.6206 9.80343 40.376 10.2011H40.3271C40.376 9.65429 40.425 8.95829 40.425 8.26229V4.28515H38.2234V13.2337ZM48.2527 13.2337H50.5031V9.50515H51.824C52.0686 9.50515 52.3133 9.75372 52.6068 10.3503L53.732 13.2337H56.1293L54.5148 9.80343C54.2213 9.20686 53.9277 8.85886 53.4874 8.70972V8.66001C54.2213 8.21258 54.3191 6.92001 54.7594 6.27372C54.9062 6.07486 55.1019 5.97543 55.3954 5.97543C55.5422 5.97543 55.7379 5.97543 55.8847 6.07486V4.13601C55.64 4.03658 55.1997 3.98686 54.9551 3.98686C54.1723 3.98686 53.6831 4.28515 53.3407 4.78229C52.6068 5.87601 52.6068 7.76515 51.5305 7.76515H50.5031V4.23543H48.2527V13.2337ZM61.1194 13.4326C62.3425 13.4326 63.4677 13.0349 64.1526 12.5377L63.5167 10.9966C62.8807 11.3446 62.2936 11.5931 61.4619 11.5931C59.9453 11.5931 58.9668 10.5989 58.9668 8.75943C58.9668 7.11886 59.9453 5.82629 61.6087 5.82629C62.4893 5.82629 63.1253 6.07486 63.7613 6.52229V4.58343C63.272 4.28515 62.4893 3.98686 61.364 3.98686C58.7222 3.98686 56.6674 5.97543 56.6674 8.80915C56.6674 11.3943 58.233 13.4326 61.1194 13.4326Z" fill="white"/>
<path d="M91.1585 10.149C93.5556 10.149 95.5124 8.16062 95.5124 5.72479C95.5124 3.28897 93.5556 1.30054 91.1585 1.30054C88.7615 1.30054 86.8047 3.28897 86.8047 5.72479C86.8536 8.16062 88.7615 10.149 91.1585 10.149Z" stroke="white" stroke-width="1.7688"/>
<path d="M93.8963 5.72464H91.4992V3.28882H90.8633V6.37088H93.8963V5.72464Z" fill="white"/>
</g>
<defs>
<clipPath id="clip0_196_546">
<rect width="95.4" height="17.4" fill="white" transform="translate(0.601562 0.605225)"/>
</clipPath>
</defs>
</svg>
