<svg width="54" height="11" viewBox="0 0 54 11" fill="none" xmlns="http://www.w3.org/2000/svg">
<path d="M13.9514 6.60267V0.261719H16.2285V6.5233C16.2285 7.99458 17.0832 9.00596 18.7122 9.00596C20.3412 9.00596 21.1786 7.99357 21.1786 6.5233V0.261719H23.472V6.58741C23.472 9.21251 21.9214 10.9992 18.7122 10.9992C15.501 10.9992 13.9514 9.19623 13.9514 6.60267Z" fill="currentColor" fill-opacity="0.5"/>
<path d="M28.8831 9.32243L30.1 7.6151C30.8437 8.39042 31.9976 9.03754 33.4526 9.03754C34.6868 9.03754 35.2871 8.46877 35.2871 7.86743C35.2871 6.00137 29.2148 7.28238 29.2148 3.31318C29.2148 1.55803 30.7328 0.103027 33.2155 0.103027C34.8923 0.103027 36.2832 0.608716 37.3271 1.57431L36.0777 3.21856C35.225 2.42797 34.0854 2.06473 33.01 2.06473C32.0454 2.06473 31.5082 2.49106 31.5082 3.12393C31.5082 4.79973 37.5642 3.67744 37.5642 7.6151C37.5642 9.54424 36.1886 10.9992 33.3427 10.9992C31.3189 10.9992 29.8639 10.3185 28.8831 9.32243Z" fill="currentColor" fill-opacity="0.5"/>
<path d="M42.833 5.50051C42.833 2.29544 45.1763 0 48.3813 0C51.6017 0 53.9449 2.29544 53.9449 5.50051C53.9449 8.70456 51.6017 11 48.3813 11C45.1763 11 42.833 8.70456 42.833 5.50051ZM51.6169 5.50051C51.6169 3.50828 50.342 2.00953 48.3813 2.00953C46.4207 2.00953 45.161 3.50828 45.161 5.50051C45.161 7.47748 46.4207 8.99149 48.3813 8.99149C50.342 8.99149 51.6169 7.47748 51.6169 5.50051Z" fill="currentColor" fill-opacity="0.5"/>
<path d="M6.16798 6.79192C7.30654 6.52331 8.47766 5.52719 8.47766 3.66113C8.47766 1.70044 7.13357 0.261719 4.93479 0.261719H0V2.23767H2.24558H2.41245H4.60309C5.50458 2.23767 6.18426 2.7749 6.18426 3.66113C6.18426 4.54634 5.50356 5.08458 4.60309 5.08458H2.41245H2.24558H0.00101731V10.8089H2.2466V7.06155H3.89187L5.96245 10.81H8.54075L6.16798 6.79192Z" fill="currentColor" fill-opacity="0.5"/>
</svg>
