<svg width="156" height="45" viewBox="0 0 156 45" fill="none" xmlns="http://www.w3.org/2000/svg">
<path fill-rule="evenodd" clip-rule="evenodd" d="M52.6066 0.0420316C44.8683 0.605415 38.5281 4.63731 35.9863 10.6112C35.0668 12.7723 34.7476 14.4888 34.8274 16.8443C34.8811 18.4282 35.0202 19.3507 35.3982 20.6285L35.5848 21.2591L35.6479 19.6824C35.7134 18.0485 35.8383 17.3686 36.3011 16.1236C36.9863 14.2802 38.1001 12.717 39.7695 11.2554C42.5719 8.80182 46.1178 7.42566 50.7986 6.97499C52.2177 6.83831 55.7595 6.91382 57.123 7.10978C57.6311 7.18276 58.1413 7.24393 58.2567 7.24574C58.3793 7.24754 59.1875 6.72173 60.2026 5.97941C61.1576 5.28115 62.0752 4.61613 62.242 4.50153L62.5453 4.29322L61.2807 2.52306C60.5852 1.54955 59.9425 0.718669 59.8526 0.676683C59.6071 0.562078 57.8559 0.249798 56.8664 0.144203C55.5339 0.00193822 53.7456 -0.0409487 52.6066 0.0420316ZM50.1944 13.3451C46.526 13.6601 44.0404 14.5899 42.1488 16.3548C40.7687 17.6425 39.9368 19.0808 39.5637 20.8243C39.3195 21.966 39.4005 24.0726 39.7226 24.9532C40.2259 26.3291 41.0555 27.4485 42.3435 28.4903C44.2715 30.0497 47.048 30.9736 51.4774 31.5299C55.9184 32.0876 57.9642 32.8781 58.7869 34.354C59.3665 35.3937 59.0577 36.7334 58.0662 37.481C57.0278 38.2643 55.2614 38.7555 53.1649 38.8444C50.0382 38.9769 46.7511 38.0738 43.6376 36.2269L42.5188 35.5632L39.9915 37.783L37.4641 40.0027L38.4146 40.6694C42.5596 43.5769 46.9903 45 51.8974 45C55.871 45 59.236 44.207 61.844 42.6562C63.336 41.7689 64.265 40.848 64.9782 39.5491C66.5173 36.7462 66.2131 32.7522 64.2692 30.2398C62.6644 28.1654 59.8665 26.599 56.3018 25.7792C54.876 25.4512 53.9154 25.3027 51.8506 25.0906C47.6076 24.6548 46.1982 23.9358 46.1943 22.2052C46.1915 20.9247 47.2759 20.0038 49.2253 19.6311C50.3356 19.4188 52.8088 19.4174 53.941 19.6282C55.6727 19.9508 57.2048 20.4955 58.4306 21.2243C58.7546 21.4169 59.0551 21.5745 59.0987 21.5745C59.1421 21.5745 60.2766 20.6091 61.6201 19.4292L64.0626 17.2838L63.4669 16.8736C61.1774 15.2966 58.2853 14.1409 55.4146 13.6558C53.598 13.3487 51.5628 13.2276 50.1944 13.3451ZM99.9525 14.8223L96.4881 16.3493V30.4044V44.4594H99.9781H103.468V28.8724C103.468 20.2996 103.457 13.2876 103.442 13.2903C103.428 13.293 101.858 13.9824 99.9525 14.8223ZM0 29.0977V44.4594H3.49H6.97999V29.0977V13.736H3.49H0V29.0977ZM22.0691 21.7441C20.9487 21.9584 19.851 22.371 18.9096 22.9315C18.4986 23.1763 18.1407 23.3765 18.1141 23.3765C18.0876 23.3765 18.0659 23.0926 18.0659 22.7458V22.1151H14.5759H11.0859V33.2872V44.4594H14.5759H18.0659L18.0676 37.7696C18.0696 30.4871 18.0816 30.3142 18.6453 29.4049C18.7999 29.1558 19.2363 28.6951 19.6154 28.3812C20.3576 27.7668 21 27.4937 22.1102 27.321C23.746 27.0663 25.7508 27.9146 26.6582 29.2454C27.3126 30.2053 27.3041 30.095 27.3041 37.6309V44.4594H30.7476H34.1912L34.1538 36.8686C34.1174 29.4641 34.111 29.2584 33.8957 28.485C32.99 25.2326 30.3781 22.6841 27.0812 21.836C25.9929 21.556 23.3091 21.5068 22.0691 21.7441ZM78.4149 21.7123C77.2671 21.8694 76.1337 22.1264 74.8228 22.5269C73.5516 22.9153 71.237 23.8214 71.237 23.9306C71.237 23.9734 71.8379 25.0626 72.5722 26.3511L73.9074 28.6938L74.6384 28.3707C78.2099 26.792 82.9866 26.6252 84.8664 28.0136C85.2754 28.3157 85.6076 28.9266 85.6076 29.3768V29.7341L84.2475 29.5324C81.2396 29.0863 78.3755 29.0878 76.3599 29.5366C72.9075 30.3053 70.232 32.5199 69.3795 35.3144C69.0933 36.2526 69.0667 38.1488 69.3264 39.0986C69.5657 39.9734 70.2967 41.2434 70.9473 41.9144C72.0794 43.082 73.8874 44.0751 75.5672 44.4522C77.9822 44.9942 81.4053 44.8701 84.2218 44.1383C84.7299 44.0063 85.2265 43.8779 85.3253 43.8531C85.4728 43.8158 85.5049 43.866 85.5049 44.1335V44.4594H88.845H92.1852L92.1534 36.3281L92.1215 28.1967L91.8479 27.3206C90.8774 24.2135 88.086 22.2905 83.7048 21.7108C82.4452 21.5442 79.6378 21.545 78.4149 21.7123ZM117.257 21.7029C115.085 22.0637 112.968 23.0079 111.381 24.3225C109.52 25.8641 108.298 27.895 107.665 30.4942C107.362 31.738 107.33 34.4897 107.603 35.7851C108.115 38.215 109.314 40.2964 111.117 41.8867C113.073 43.6125 115.379 44.5563 118.301 44.8265C121.988 45.1677 125.075 44.1866 127.596 41.8718C128.107 41.4027 128.507 40.9721 128.485 40.9147C128.45 40.8218 126.727 39.5993 124.641 38.1878L123.898 37.6854L123.366 38.0945C122.694 38.6102 121.742 39.0241 120.845 39.1911C117.906 39.7376 115.182 38.2817 114.308 35.6974L114.164 35.2694H122.533H130.902L130.83 33.9405C130.706 31.6557 130.442 30.1161 129.929 28.6922C128.752 25.4203 125.819 22.8369 122.201 21.8834C121.398 21.6719 121.063 21.6361 119.635 21.6103C118.545 21.5906 117.745 21.6217 117.257 21.7029ZM141.949 21.6652C139.361 22.0243 137.331 22.9037 135.826 24.3182C134.471 25.5924 133.839 27.0383 133.838 28.8724C133.837 30.6024 134.213 31.4441 135.492 32.5713C137.001 33.9018 139.825 35.0248 143.295 35.6742C146.709 36.3132 148.004 36.6517 148.535 37.0441C149.206 37.5394 149.288 38.0635 148.785 38.6428C148.38 39.1077 147.785 39.2672 145.887 39.4192C143.097 39.6426 139.858 38.957 136.639 37.4619C136.055 37.1906 135.563 36.9816 135.547 36.9975C135.424 37.1153 132.516 42.3261 132.554 42.3596C132.581 42.3832 133.278 42.6421 134.103 42.935C138.097 44.3529 141.997 45.0183 145.451 44.871C149.869 44.6827 152.518 43.7785 154.392 41.8201C155.589 40.5696 156.086 39.2585 155.988 37.612C155.778 34.0887 153.368 32.4593 145.81 30.7304C141.379 29.7167 140.832 29.4959 140.832 28.7204C140.832 27.6794 143.069 27.1217 145.861 27.4668C147.709 27.6952 150.167 28.3007 151.802 28.9304C152.105 29.0471 152.406 29.1427 152.471 29.1427C152.594 29.1427 155.485 24.1356 155.404 24.0638C155.377 24.0408 154.727 23.7774 153.958 23.4784C152.087 22.751 150.393 22.2642 148.559 21.9274C147.183 21.6747 146.831 21.6457 144.784 21.6169C143.541 21.5994 142.266 21.6213 141.949 21.6652ZM120.395 27.1191C121.819 27.4137 123.037 28.2276 123.591 29.2545C124.113 30.2237 124.549 30.1338 119.325 30.1338H114.755L114.822 29.886C114.951 29.4047 115.511 28.5996 115.992 28.2049C116.817 27.5273 118.249 27.0054 119.327 26.9892C119.553 26.9858 120.034 27.0443 120.395 27.1191ZM83.3493 34.6812C83.9421 34.7565 84.6706 34.862 84.9683 34.9154L85.5094 35.0127L85.4815 36.6952L85.4536 38.3778L84.7511 38.6746C83.1513 39.3506 80.5693 39.6856 79.0206 39.4181C77.218 39.1068 75.7633 38.0258 75.7557 36.9917C75.7478 35.9169 76.7457 34.9876 78.3304 34.5944C79.0138 34.4248 81.6982 34.4712 83.3493 34.6812Z" fill="white"/>
</svg>
