<svg width="45" height="45" viewBox="0 0 45 45" fill="none" xmlns="http://www.w3.org/2000/svg">
<g clip-path="url(#clip0_681_1648)">
<path d="M7.08594 34.9527H16.0599V33.0209H10.112C10.9279 29.8177 15.9205 29.1117 15.9205 25.5309C15.9205 23.601 14.5766 22.1873 11.7923 22.1873C10.29 22.1991 8.81107 22.5538 7.47255 23.2234L8.09337 25.0165C9.05248 24.5933 10.1082 24.1701 11.4056 24.1701C12.4614 24.1701 13.4205 24.5933 13.4205 25.7717C13.4688 28.4058 7.61382 28.5937 7.08594 34.9527ZM34.0116 32.2675C33.0242 32.2672 32.0592 31.9795 31.2384 31.4409C30.4176 30.9023 29.778 30.1369 29.4004 29.2416C29.0228 28.3463 28.9242 27.3612 29.117 26.4109C29.3099 25.4605 29.7855 24.5877 30.4838 23.9026C31.1821 23.2176 32.0717 22.7511 33.0401 22.5622C34.0085 22.3733 35.0123 22.4704 35.9244 22.8413C36.8366 23.2122 37.6162 23.8402 38.1647 24.6459C38.7133 25.4516 39.006 26.3989 39.006 27.3679C38.9992 28.6656 38.4707 29.9082 37.5355 30.8257C36.6003 31.7431 35.3339 32.2613 34.0116 32.2675ZM34.0116 23.3657C33.2045 23.3653 32.4154 23.5999 31.7442 24.0397C31.073 24.4795 30.5498 25.1048 30.2407 25.8366C29.9317 26.5683 29.8507 27.3735 30.0081 28.1504C30.1655 28.9272 30.5541 29.6409 31.1248 30.2009C31.6955 30.761 32.4226 31.1424 33.2142 31.2968C34.0058 31.4513 34.8263 31.3718 35.5719 31.0685C36.3175 30.7653 36.9547 30.2518 37.4028 29.593C37.851 28.9343 38.09 28.1599 38.0897 27.3679C38.0877 26.3078 37.6571 25.2919 36.8925 24.5432C36.1279 23.7945 35.0917 23.3743 34.0116 23.3748V23.3657Z" fill="#00639B"/>
<path d="M36.8392 27.3677H34.3429V24.9197H33.6719V28.0207H36.8317V27.3604L36.8392 27.3677Z" fill="#00639B"/>
<path d="M7 10.4852H9.77695C11.8216 10.4852 12.7398 11.6345 12.7398 12.8457C12.75 13.2407 12.6488 13.6308 12.4474 13.973C12.246 14.3151 11.9523 14.5961 11.5985 14.7848V14.814C12.1152 14.9263 12.576 15.2113 12.9022 15.6203C13.2283 16.0292 13.3996 16.5367 13.3866 17.0558C13.3866 18.5152 12.2714 19.8103 10.0558 19.8103H7V10.4852ZM9.56134 14.3908C10.5186 14.3908 11.0483 13.8763 11.0483 13.1485C11.0483 12.4535 10.5855 11.9081 9.56134 11.9081H8.76022V14.3908H9.56134ZM9.84015 18.4185C10.9814 18.4185 11.6283 17.9935 11.6283 17.0558C11.6283 16.2678 11.0112 15.7789 10.0558 15.7789H8.75465V18.4148L9.84015 18.4185ZM14.684 11.0288C14.6747 10.8197 14.7296 10.6127 14.8416 10.4345C14.9536 10.2564 15.1175 10.1153 15.3122 10.0297C15.5068 9.94399 15.7231 9.91764 15.9332 9.95402C16.1432 9.99039 16.3373 10.0878 16.4903 10.2337C16.6432 10.3796 16.7481 10.5672 16.7912 10.7722C16.8342 10.9772 16.8136 11.1902 16.732 11.3835C16.6503 11.5769 16.5114 11.7418 16.3331 11.8567C16.1549 11.9717 15.9456 12.0316 15.7323 12.0285C15.5953 12.0355 15.4582 12.0148 15.3298 11.9674C15.2013 11.9201 15.0842 11.8472 14.9857 11.7533C14.8873 11.6595 14.8097 11.5467 14.7578 11.422C14.7059 11.2973 14.6808 11.1635 14.684 11.0288ZM14.8699 13.1193H16.5985V19.8103H14.8699V13.1193ZM18.9126 18.1759V14.4509H17.6784V13.1193H18.9126V11.5743L20.6394 11.0909V13.1193H22.7045L22.2732 14.4509H20.6375V17.7508C20.6375 18.3875 20.855 18.5991 21.316 18.5991C21.6914 18.5903 22.0561 18.4749 22.3662 18.2671L22.8903 19.4163C22.3959 19.7501 21.5632 19.9325 20.8848 19.9325C19.6506 19.9617 18.9108 19.2959 18.9108 18.1759H18.9126ZM23.8178 13.1193H25.2677L25.4535 13.8763C26.0706 13.2707 26.6264 12.9643 27.3346 12.9643C27.6732 12.9656 28.0048 13.0597 28.2918 13.2361L27.6747 14.6589C27.4424 14.5198 27.1754 14.4466 26.9033 14.4473C26.4405 14.4473 26.0706 14.6297 25.5149 15.1131V19.8377H23.7862V13.1193H23.8178ZM28.9684 11.0288C28.9622 10.8225 29.0192 10.619 29.1322 10.4449C29.2451 10.2707 29.4088 10.1339 29.6019 10.052C29.795 9.97022 30.0087 9.9472 30.2154 9.98598C30.422 10.0248 30.612 10.1235 30.7607 10.2695C30.9095 10.4155 31.0101 10.6019 31.0496 10.8047C31.0891 11.0075 31.0657 11.2172 30.9823 11.4068C30.8989 11.5963 30.7595 11.7569 30.582 11.8678C30.4046 11.9786 30.1973 12.0346 29.987 12.0285C29.8515 12.035 29.7161 12.0136 29.5895 11.9657C29.4629 11.9178 29.3479 11.8443 29.252 11.7502C29.156 11.656 29.0812 11.5432 29.0324 11.419C28.9835 11.2947 28.9618 11.1618 28.9684 11.0288ZM29.1543 13.1193H30.881V19.8103H29.1543V13.1193ZM34.368 16.4429L31.8996 13.112H33.6896L35.2881 15.2992L36.9238 13.1193H38.7119L36.2175 16.4429L38.7472 19.803H36.961L35.3271 17.563L33.6543 19.803H31.868L34.368 16.4429Z" fill="#41C0F0"/>
<path d="M24.4069 30.0056V22.1873H22.7341L16.3438 30.3357V31.8899H22.1058V35.0001H24.4088V31.8899H26.3289V30.0056H24.4069ZM22.104 28.1687V29.96H20.5687C20.0872 29.96 19.2248 30.0056 18.9367 30.0056L22.1988 25.6732C22.1988 26.049 22.104 27.18 22.104 28.1687Z" fill="#00639B"/>
</g>
<defs>
<clipPath id="clip0_681_1648">
<rect width="32" height="25" fill="white" transform="translate(7 10)"/>
</clipPath>
</defs>
</svg>
