<svg width="45" height="45" viewBox="0 0 45 45" fill="none" xmlns="http://www.w3.org/2000/svg">
<path fill-rule="evenodd" clip-rule="evenodd" d="M12.1953 34.2281C16.0175 34.2281 18.9073 29.3271 21.498 23.9764C22.7449 21.3823 23.9076 18.6643 25.0703 16.36C26.3471 13.804 27.6568 12 29.2593 12C30.6177 12 31.896 13.0803 33.1682 14.7731C35.8058 18.2877 38.0857 24.2396 38.0857 28.1432C38.0857 31.4132 36.3766 34.2281 32.8739 34.2281H12.1953Z" fill="#00CEFF"/>
<path fill-rule="evenodd" clip-rule="evenodd" d="M21.4908 23.9748C18.8655 18.7623 17.6768 14.9378 15.3548 14.9378C13.9118 14.9378 12.2868 16.4279 10.8159 18.8699C9.24 21.4611 8 25.1176 8 29.0521C8 32.1589 9.54397 34.2257 12.1887 34.2257C16.0097 34.2257 18.9003 29.3251 21.4908 23.9748Z" fill="#0054B7"/>
</svg>
