<svg width="55" height="55" viewBox="0 0 55 55" fill="none" xmlns="http://www.w3.org/2000/svg">
<rect width="55" height="55" rx="27.5" fill="#0068FF"/>
<path d="M35.6448 22H22.7652C22.0314 22.0015 21.328 22.3122 20.8096 22.864C20.2912 23.4158 20 24.1635 20 24.9431V38.6227C20 38.7228 20.0374 38.8187 20.104 38.8895C20.1706 38.9602 20.261 39 20.3552 39H23.5662C23.6604 39 23.7508 38.9602 23.8174 38.8895C23.884 38.8187 23.9214 38.7228 23.9214 38.6227V31.1688C23.921 30.3881 23.6927 29.6268 23.2678 28.9898L21.966 27.0353L32.6434 38.3755C32.6764 38.4112 32.7158 38.4395 32.7593 38.4588C32.8027 38.4782 32.8493 38.4881 32.8964 38.4881C32.9435 38.4881 32.9902 38.4782 33.0336 38.4588C33.0771 38.4395 33.1165 38.4112 33.1495 38.3755L35.4157 35.9664C35.4493 35.9313 35.4759 35.8894 35.4941 35.8433C35.5123 35.7971 35.5217 35.7476 35.5217 35.6975C35.5217 35.6475 35.5123 35.598 35.4941 35.5518C35.4759 35.5057 35.4493 35.4638 35.4157 35.4287L24.749 24.0998L26.5712 25.4713C27.1709 25.9226 27.8876 26.1651 28.6225 26.1656H35.6448C35.739 26.1656 35.8294 26.1258 35.896 26.0551C35.9626 25.9843 36 25.8883 36 25.7883V22.3773C36 22.2772 35.9626 22.1813 35.896 22.1105C35.8294 22.0398 35.739 22 35.6448 22Z" fill="white"/>
<path d="M35.6446 16H20.3554C20.1591 16 20 16.1613 20 16.3604V19.6396C20 19.8387 20.1591 20 20.3554 20H35.6446C35.8409 20 36 19.8387 36 19.6396V16.3604C36 16.1613 35.8409 16 35.6446 16Z" fill="white"/>
</svg>
