<svg width="32" height="32" viewBox="0 0 32 32" fill="none" xmlns="http://www.w3.org/2000/svg">
<path d="M16.0385 18.7803L12.9136 21.9052C12.5353 22.2704 12.03 22.4744 11.5042 22.4744C10.9784 22.4744 10.4731 22.2704 10.0948 21.9052C9.90921 21.7204 9.76197 21.5008 9.66151 21.2589C9.56104 21.017 9.50933 20.7577 9.50933 20.4958C9.50933 20.2339 9.56104 19.9746 9.66151 19.7327C9.76197 19.4908 9.90921 19.2712 10.0948 19.0864L13.2197 15.9615C13.3713 15.8098 13.4565 15.6041 13.4565 15.3896C13.4565 15.1752 13.3713 14.9695 13.2197 14.8178C13.068 14.6661 12.8623 14.5809 12.6479 14.5809C12.4334 14.5809 12.2277 14.6661 12.076 14.8178L8.95111 17.9508C8.32158 18.636 7.98111 19.5379 8.00081 20.4682C8.0205 21.3985 8.39884 22.2852 9.0568 22.9432C9.71477 23.6012 10.6015 23.9795 11.5318 23.9992C12.4621 24.0189 13.364 23.6784 14.0492 23.0489L17.1822 19.924C17.3339 19.7723 17.4191 19.5666 17.4191 19.3521C17.4191 19.1377 17.3339 18.932 17.1822 18.7803C17.0305 18.6287 16.8249 18.5435 16.6104 18.5435C16.3959 18.5435 16.1902 18.6287 16.0385 18.7803ZM22.9488 9.05121C22.2713 8.3779 21.3549 8 20.3997 8C19.4446 8 18.5282 8.3779 17.8507 9.05121L14.7177 12.1761C14.6426 12.2512 14.583 12.3404 14.5424 12.4385C14.5018 12.5366 14.4808 12.6417 14.4808 12.7479C14.4808 12.8541 14.5018 12.9593 14.5424 13.0574C14.583 13.1555 14.6426 13.2447 14.7177 13.3198C14.7928 13.3949 14.8819 13.4544 14.9801 13.4951C15.0782 13.5357 15.1833 13.5566 15.2895 13.5566C15.3957 13.5566 15.5009 13.5357 15.599 13.4951C15.6971 13.4544 15.7863 13.3949 15.8614 13.3198L18.9863 10.1949C19.3646 9.82972 19.8699 9.62566 20.3957 9.62566C20.9215 9.62566 21.4268 9.82972 21.8051 10.1949C21.9907 10.3797 22.1379 10.5993 22.2384 10.8412C22.3389 11.0831 22.3906 11.3424 22.3906 11.6043C22.3906 11.8662 22.3389 12.1255 22.2384 12.3674C22.1379 12.6093 21.9907 12.8289 21.8051 13.0137L18.6802 16.1386C18.6047 16.2135 18.5448 16.3026 18.5039 16.4007C18.463 16.4989 18.442 16.6041 18.442 16.7105C18.442 16.8168 18.463 16.9221 18.5039 17.0202C18.5448 17.1183 18.6047 17.2074 18.6802 17.2823C18.7551 17.3578 18.8442 17.4177 18.9423 17.4586C19.0405 17.4995 19.1457 17.5205 19.2521 17.5205C19.3584 17.5205 19.4636 17.4995 19.5618 17.4586C19.6599 17.4177 19.749 17.3578 19.8239 17.2823L22.9488 14.1493C23.6221 13.4718 24 12.5554 24 11.6003C24 10.6451 23.6221 9.72872 22.9488 9.05121ZM13.3969 18.6031C13.4721 18.6778 13.5614 18.7368 13.6595 18.7769C13.7576 18.817 13.8627 18.8373 13.9687 18.8367C14.0747 18.8373 14.1798 18.817 14.2779 18.7769C14.376 18.7368 14.4653 18.6778 14.5405 18.6031L18.503 14.6406C18.6547 14.489 18.7399 14.2833 18.7399 14.0688C18.7399 13.8543 18.6547 13.6486 18.503 13.497C18.3514 13.3453 18.1457 13.2601 17.9312 13.2601C17.7167 13.2601 17.511 13.3453 17.3594 13.497L13.3969 17.4595C13.3214 17.5344 13.2615 17.6234 13.2206 17.7216C13.1797 17.8197 13.1586 17.925 13.1586 18.0313C13.1586 18.1376 13.1797 18.2429 13.2206 18.341C13.2615 18.4392 13.3214 18.5283 13.3969 18.6031Z" fill="white"/>
</svg>
