<svg width="120" height="120" viewBox="0 0 120 120" fill="none" xmlns="http://www.w3.org/2000/svg">
<path fill-rule="evenodd" clip-rule="evenodd" d="M46.5289 42.0241C42.3324 42.3471 38.8941 44.6587 37.5156 48.0837C37.017 49.3228 36.8439 50.3069 36.8872 51.6574C36.9163 52.5655 36.9917 53.0944 37.1967 53.827L37.2979 54.1886L37.3322 53.2846C37.3677 52.3478 37.4354 51.958 37.6864 51.2442C38.0579 50.1873 38.662 49.2911 39.5673 48.4531C41.0871 47.0464 43.0101 46.2574 45.5485 45.999C46.3181 45.9206 48.2388 45.9639 48.9783 46.0763C49.2538 46.1181 49.5305 46.1532 49.593 46.1542C49.6596 46.1553 50.0978 45.8538 50.6484 45.4282C51.1662 45.0279 51.6639 44.6466 51.7543 44.5809L51.9188 44.4614L51.233 43.4466C50.8558 42.8884 50.5073 42.412 50.4585 42.388C50.3254 42.3223 49.3757 42.1432 48.8391 42.0827C48.1165 42.0011 47.1467 41.9765 46.5289 42.0241ZM45.2208 49.6512C43.2314 49.8318 41.8834 50.3649 40.8576 51.3768C40.1092 52.115 39.6581 52.9397 39.4557 53.9393C39.3233 54.5938 39.3672 55.8016 39.5419 56.3065C39.8148 57.0953 40.2647 57.7372 40.9632 58.3345C42.0088 59.2285 43.5145 59.7582 45.9166 60.0771C48.325 60.3969 49.4344 60.8501 49.8806 61.6963C50.1949 62.2924 50.0275 63.0605 49.4898 63.4891C48.9266 63.9382 47.9687 64.2198 46.8317 64.2708C45.1361 64.3467 43.3535 63.829 41.665 62.7701L41.0583 62.3896L39.6877 63.6622L38.3171 64.9349L38.8325 65.3171C41.0804 66.9841 43.4832 67.8 46.1443 67.8C48.2993 67.8 50.1241 67.3454 51.5385 66.4562C52.3476 65.9475 52.8514 65.4195 53.2382 64.6748C54.0728 63.0678 53.9079 60.778 52.8537 59.3375C51.9834 58.1482 50.466 57.2501 48.5329 56.7801C47.7597 56.592 47.2387 56.5069 46.119 56.3853C43.8179 56.1354 43.0536 55.7232 43.0515 54.731C43.05 53.9968 43.6381 53.4689 44.6952 53.2551C45.2974 53.1334 46.6386 53.1326 47.2526 53.2535C48.1917 53.4385 49.0226 53.7507 49.6874 54.1686C49.8631 54.279 50.0261 54.3694 50.0497 54.3694C50.0732 54.3694 50.6885 53.8159 51.417 53.1394L52.7416 51.9094L52.4186 51.6742C51.177 50.7701 49.6086 50.1075 48.0518 49.8293C47.0666 49.6533 45.9629 49.5838 45.2208 49.6512ZM72.205 50.4981L70.3263 51.3736V59.4318V67.4901H72.2189H74.1116V58.5535C74.1116 53.6384 74.1053 49.6182 74.0976 49.6198C74.09 49.6213 73.2383 50.0166 72.205 50.4981ZM18 58.6827V67.4901H19.8927H21.7853V58.6827V49.8753H19.8927H18V58.6827ZM29.9682 54.4666C29.3606 54.5895 28.7653 54.826 28.2548 55.1474C28.0319 55.2877 27.8378 55.4025 27.8234 55.4025C27.8091 55.4025 27.7973 55.2398 27.7973 55.0409V54.6793H25.9046H24.012V61.0847V67.4901H25.9046H27.7973L27.7982 63.6546C27.7993 59.4793 27.8058 59.3801 28.1115 58.8588C28.1953 58.716 28.432 58.4519 28.6376 58.2719C29.0401 57.9196 29.3885 57.763 29.9905 57.664C30.8777 57.518 31.9649 58.0044 32.457 58.7674C32.8118 59.3177 32.8072 59.2545 32.8072 63.575V67.4901H34.6747H36.5421L36.5219 63.138C36.5021 58.8928 36.4987 58.7748 36.3819 58.3314C35.8907 56.4667 34.4743 55.0056 32.6864 54.5193C32.0961 54.3588 30.6407 54.3306 29.9682 54.4666ZM60.525 54.4484C59.9025 54.5384 59.2879 54.6858 58.577 54.9154C57.8876 55.1381 56.6324 55.6576 56.6324 55.7202C56.6324 55.7448 56.9582 56.3692 57.3565 57.108L58.0806 58.4511L58.477 58.2659C60.4138 57.3607 63.0043 57.2651 64.0237 58.0611C64.2455 58.2343 64.4256 58.5846 64.4256 58.8427V59.0476L63.6881 58.9319C62.0569 58.6762 60.5036 58.677 59.4106 58.9343C57.5383 59.375 56.0873 60.6447 55.625 62.247C55.4698 62.7848 55.4554 63.872 55.5963 64.4165C55.726 64.9181 56.1225 65.6462 56.4753 66.0309C57.0892 66.7003 58.0697 67.2697 58.9807 67.4859C60.2904 67.7967 62.1467 67.7255 63.6741 67.306C63.9497 67.2303 64.219 67.1567 64.2726 67.1424C64.3525 67.1211 64.37 67.1499 64.37 67.3032V67.4901H66.1813H67.9927L67.9755 62.8281L67.9582 58.1661L67.8098 57.6638C67.2835 55.8824 65.7697 54.7799 63.3938 54.4475C62.7107 54.352 61.1882 54.3525 60.525 54.4484ZM81.5892 54.443C80.4116 54.6499 79.2632 55.1912 78.4028 55.9449C77.3938 56.8287 76.7306 57.9931 76.3875 59.4833C76.2234 60.1965 76.206 61.7741 76.354 62.5168C76.6318 63.9099 77.2818 65.1033 78.2595 66.0151C79.3204 67.0045 80.5711 67.5456 82.1553 67.7005C84.1552 67.8961 85.829 67.3337 87.1962 66.0065C87.4733 65.7376 87.6903 65.4907 87.6785 65.4578C87.6594 65.4045 86.7248 64.7036 85.5937 63.8943L85.1911 63.6063L84.9021 63.8409C84.5378 64.1365 84.0218 64.3738 83.5351 64.4696C81.9416 64.7829 80.4642 63.9482 79.9902 62.4665L79.9118 62.2211H84.4506H88.9894L88.9503 61.4592C88.8831 60.1492 88.7398 59.2665 88.4618 58.4502C87.8229 56.5743 86.2327 55.0931 84.2706 54.5465C83.8352 54.4252 83.6531 54.4047 82.879 54.3899C82.288 54.3786 81.854 54.3964 81.5892 54.443ZM94.9798 54.4214C93.5764 54.6272 92.4758 55.1315 91.6596 55.9425C90.9244 56.673 90.5821 57.502 90.5815 58.5535C90.5809 59.5454 90.785 60.028 91.4783 60.6742C92.2967 61.437 93.8282 62.0809 95.7101 62.4532C97.5615 62.8196 98.2638 63.0136 98.5519 63.2386C98.9157 63.5226 98.9599 63.8231 98.687 64.1552C98.4679 64.4217 98.1448 64.5132 97.1155 64.6004C95.6025 64.7284 93.8459 64.3354 92.1003 63.4782C91.7835 63.3226 91.517 63.2028 91.5081 63.2119C91.4416 63.2795 89.8645 66.2669 89.8852 66.2862C89.8997 66.2997 90.2778 66.4482 90.7253 66.6161C92.8913 67.429 95.0062 67.8105 96.8791 67.726C99.2749 67.6181 100.712 67.0997 101.728 65.9768C102.377 65.2599 102.647 64.5082 102.593 63.5642C102.48 61.5442 101.173 60.61 97.0739 59.6187C94.6707 59.0376 94.3741 58.911 94.3741 58.4663C94.3741 57.8696 95.5876 57.5497 97.1017 57.7476C98.1036 57.8786 99.4365 58.2257 100.323 58.5867C100.488 58.6537 100.651 58.7085 100.686 58.7085C100.753 58.7085 102.321 55.8378 102.277 55.7966C102.262 55.7834 101.91 55.6324 101.493 55.4609C100.478 55.0439 99.5591 54.7648 98.5647 54.5717C97.8187 54.4268 97.6275 54.4102 96.5172 54.3937C95.8437 54.3837 95.1518 54.3962 94.9798 54.4214ZM83.2913 57.5483C84.0636 57.7172 84.7241 58.1838 85.0242 58.7726C85.3075 59.3283 85.5441 59.2767 82.7109 59.2767H80.2327L80.2687 59.1347C80.3386 58.8587 80.6425 58.3971 80.9032 58.1708C81.3507 57.7823 82.1272 57.4831 82.712 57.4738C82.8345 57.4719 83.0951 57.5054 83.2913 57.5483ZM63.201 61.8839C63.5225 61.927 63.9175 61.9875 64.0789 62.0182L64.3724 62.074L64.3573 63.0386L64.3421 64.0033L63.9612 64.1734C63.0936 64.561 61.6934 64.7531 60.8535 64.5997C59.8759 64.4212 59.087 63.8014 59.0829 63.2086C59.0786 62.5923 59.6198 62.0595 60.4792 61.8341C60.8498 61.7369 62.3056 61.7635 63.201 61.8839Z" fill="white"/>
</svg>
