<svg width="32" height="32" viewBox="0 0 32 32" fill="none" xmlns="http://www.w3.org/2000/svg">
<path d="M9.33464 23.9978C6.4346 23.9816 4.86405 23.853 3.83954 22.8285C2.66797 21.6569 2.66797 19.7713 2.66797 16.0001L2.66797 10.6667C2.66797 6.89551 2.66797 5.00989 3.83954 3.83832C5.01111 2.66675 6.89673 2.66675 10.668 2.66675L21.3346 2.66675C25.1059 2.66675 26.9915 2.66675 28.1631 3.83832C29.3346 5.00989 29.3346 6.89551 29.3346 10.6667V16.0001C29.3346 19.7713 29.3346 21.6569 28.1631 22.8285C27.1899 23.8017 25.7241 23.9665 23.0942 23.9944L22.0013 23.9978" stroke="white" stroke-width="2"/>
<path d="M12 8L20 8" stroke="white" stroke-width="2" stroke-linecap="round"/>
<path d="M9.33203 12.6667H22.6654" stroke="white" stroke-width="2" stroke-linecap="round"/>
<path d="M14.5226 18.5938C15.3749 17.8675 16.6285 17.8675 17.4808 18.5938C17.8461 18.9051 18.3002 19.0932 18.7785 19.1314C19.8948 19.2204 20.7813 20.1069 20.8703 21.2232C20.9085 21.7015 21.0966 22.1556 21.4079 22.5209C22.1342 23.3732 22.1342 24.6268 21.4079 25.4791C21.0966 25.8444 20.9085 26.2985 20.8703 26.7768C20.7813 27.8931 19.8948 28.7796 18.7785 28.8686C18.3002 28.9068 17.8461 29.0949 17.4808 29.4062C16.6285 30.1325 15.3749 30.1325 14.5226 29.4062C14.1573 29.0949 13.7032 28.9068 13.2249 28.8686C12.1086 28.7796 11.2222 27.8931 11.1331 26.7768C11.0949 26.2985 10.9068 25.8444 10.5955 25.4791C9.86919 24.6268 9.86919 23.3732 10.5955 22.5209C10.9068 22.1556 11.0949 21.7015 11.1331 21.2232C11.2222 20.1069 12.1086 19.2204 13.2249 19.1314C13.7032 19.0932 14.1573 18.9051 14.5226 18.5938Z" stroke="white" stroke-width="2"/>
<path d="M14 24.2667L15.1429 25.3334L18 22.6667" stroke="white" stroke-width="2" stroke-linecap="round" stroke-linejoin="round"/>
</svg>
