<svg width="32" height="32" viewBox="0 0 32 32" fill="none" xmlns="http://www.w3.org/2000/svg">
<path d="M2.66797 16.0001C2.66797 9.71469 2.66797 6.57199 4.62059 4.61937C6.57321 2.66675 9.71591 2.66675 16.0013 2.66675C22.2867 2.66675 25.4294 2.66675 27.382 4.61937C29.3346 6.57199 29.3346 9.71469 29.3346 16.0001C29.3346 22.2855 29.3346 25.4282 27.382 27.3808C25.4294 29.3334 22.2867 29.3334 16.0013 29.3334C9.71591 29.3334 6.57321 29.3334 4.62059 27.3808C2.66797 25.4282 2.66797 22.2855 2.66797 16.0001Z" stroke="white" stroke-width="2"/>
<path d="M8 21.0667L9.52381 22.6667L13.3333 18.6667" stroke="white" stroke-width="2" stroke-linecap="round" stroke-linejoin="round"/>
<path d="M8 11.7333L9.52381 13.3333L13.3333 9.33325" stroke="white" stroke-width="2" stroke-linecap="round" stroke-linejoin="round"/>
<path d="M17.332 12L23.9987 12" stroke="white" stroke-width="2" stroke-linecap="round"/>
<path d="M17.332 21.3333H23.9987" stroke="white" stroke-width="2" stroke-linecap="round"/>
</svg>
