<svg width="32" height="32" viewBox="0 0 32 32" fill="none" xmlns="http://www.w3.org/2000/svg">
<path d="M4.62059 27.3808C6.57321 29.3334 9.71591 29.3334 16.0013 29.3334C22.2867 29.3334 25.4294 29.3334 27.382 27.3808C29.3346 25.4282 29.3346 22.2855 29.3346 16.0001C29.3346 9.71469 29.3346 6.57199 27.382 4.61937C25.4294 2.66675 22.2867 2.66675 16.0013 2.66675C9.71591 2.66675 6.57321 2.66675 4.62059 4.61937C2.66797 6.57199 2.66797 9.71469 2.66797 16.0001C2.66797 22.2855 2.66797 25.4282 4.62059 27.3808Z" stroke="white" stroke-width="2"/>
<path d="M24 11.3334H18.6667M24 19.3334H18.6667M24 23.3334H18.6667M13.3333 11.3334H10.6667M10.6667 11.3334L8 11.3334M10.6667 11.3334L10.6667 8.66672M10.6667 11.3334L10.6667 14M12.6667 19.3334L10.6667 21.3334M10.6667 21.3334L8.66668 23.3334M10.6667 21.3334L8.66667 19.3334M10.6667 21.3334L12.6666 23.3334" stroke="white" stroke-width="2" stroke-linecap="round"/>
</svg>
