<svg width="25" height="25" viewBox="0 0 25 25" fill="none" xmlns="http://www.w3.org/2000/svg">
<path d="M8.87953 8.94507L8.66498 8.75002H8.37502H2C1.58579 8.75002 1.25 8.41423 1.25 8.00002V2C1.25 1.58579 1.58579 1.25 2 1.25H11C11.4142 1.25 11.75 1.58579 11.75 2V11.5546L8.87953 8.94507Z" stroke="white" stroke-width="1.5"/>
<mask id="path-2-inside-1_263_3361" fill="white">
<path d="M12.5 21.5C12.5 19.8431 13.8431 18.5 15.5 18.5H21.5C23.1569 18.5 24.5 19.8431 24.5 21.5V23.75C24.5 24.1642 24.1642 24.5 23.75 24.5H13.25C12.8358 24.5 12.5 24.1642 12.5 23.75V21.5Z"/>
</mask>
<path d="M12.5 21.5C12.5 19.8431 13.8431 18.5 15.5 18.5H21.5C23.1569 18.5 24.5 19.8431 24.5 21.5V23.75C24.5 24.1642 24.1642 24.5 23.75 24.5H13.25C12.8358 24.5 12.5 24.1642 12.5 23.75V21.5Z" stroke="white" stroke-width="3.00001" mask="url(#path-2-inside-1_263_3361)"/>
<circle cx="18.5" cy="14.75" r="2.25001" stroke="white" stroke-width="1.5"/>
</svg>
