<svg width="47" height="47" viewBox="0 0 47 47" fill="none" xmlns="http://www.w3.org/2000/svg">
<path d="M23.5 47C36.4787 47 47 36.4787 47 23.5C47 10.5213 36.4787 0 23.5 0C10.5213 0 0 10.5213 0 23.5C0 36.4787 10.5213 47 23.5 47Z" fill="white" fill-opacity="0.1"/>
<path fill-rule="evenodd" clip-rule="evenodd" d="M12.1625 22.6897C17.9721 20.1667 21.8397 18.4902 23.7818 17.6768C29.3092 15.3696 30.4712 14.9712 31.2181 14.9546C31.3841 14.9546 31.7493 14.9878 31.9983 15.187C32.1975 15.353 32.2473 15.5688 32.2805 15.7347C32.3137 15.9007 32.3468 16.2493 32.3137 16.5149C32.0149 19.6687 30.7201 27.3208 30.0562 30.8398C29.774 32.3337 29.2262 32.8317 28.6951 32.8815C27.5331 32.9811 26.6534 32.1179 25.5413 31.3876C23.7818 30.2422 22.8024 29.5285 21.0927 28.3998C19.1175 27.105 20.3956 26.3913 21.5243 25.2294C21.8231 24.9306 26.919 20.2829 27.0186 19.8679C27.0352 19.8181 27.0352 19.6189 26.919 19.5193C26.8028 19.4197 26.6368 19.4529 26.504 19.4861C26.3214 19.5193 23.5328 21.3784 18.1049 25.0468C17.3082 25.5945 16.5944 25.8601 15.9471 25.8435C15.2333 25.8269 13.8722 25.4451 12.8431 25.1132C11.5981 24.7148 10.6022 24.499 10.6852 23.8018C10.735 23.4367 11.233 23.0715 12.1625 22.6897Z" fill="white"/>
</svg>
