<svg width="120" height="120" viewBox="0 0 120 120" fill="none" xmlns="http://www.w3.org/2000/svg">
<path fill-rule="evenodd" clip-rule="evenodd" d="M62.1576 28.9597C55.8719 28.9597 49.9743 30.8221 45.0854 34.0814C45.0856 34.0815 45.0858 34.0817 45.086 34.0818C40.1199 37.3411 36.1624 42.0746 33.6793 47.584H56.4164C56.4163 47.5838 56.4162 47.5835 56.416 47.5832L56.4927 47.584H76.669C81.0923 47.584 85.1275 45.7215 87.9988 42.7727C82.4115 34.4694 72.9442 28.9597 62.1576 28.9597ZM57.6577 50.6878H73.8763C78.998 50.6878 83.1108 54.8783 83.1108 59.9999C83.1108 65.1216 78.998 69.3121 73.8763 69.3121H57.6593C57.6593 69.3122 57.6592 69.3123 57.6592 69.3124H32.5941C31.6629 66.3635 31.1973 63.2595 31.1973 60.0003C31.1973 56.741 31.6629 53.637 32.5941 50.6881H57.6577C57.6577 50.688 57.6577 50.6879 57.6577 50.6878ZM57.9615 68.2576C57.9308 68.3748 57.8902 68.5022 57.8475 68.6361L57.8475 68.6361L57.8474 68.6363C57.7822 68.8409 57.7122 69.0603 57.6658 69.2804C57.6965 69.1633 57.7371 69.0358 57.7798 68.9019L57.7799 68.9018L57.7799 68.9018C57.8451 68.6972 57.9151 68.4777 57.9615 68.2576ZM56.4929 72.4162H76.6692C81.0924 72.4162 85.1277 74.2787 87.9989 77.2275C82.4116 85.5308 72.9443 91.0405 62.1578 91.0405C55.8721 91.0405 49.9744 89.1781 45.0855 85.9188L45.0856 85.9188L45.0856 85.9188L45.0856 85.9187C45.0982 85.9101 45.1108 85.9015 45.1233 85.8928C40.0985 82.6344 36.1555 77.9113 33.7562 72.4163H56.4929C56.4929 72.4163 56.4929 72.4163 56.4929 72.4162Z" fill="white"/>
</svg>
