<svg width="120" height="120" viewBox="0 0 120 120" fill="none" xmlns="http://www.w3.org/2000/svg">
<g clip-path="url(#clip0_681_1747)">
<mask id="mask0_681_1747" style="mask-type:luminance" maskUnits="userSpaceOnUse" x="18" y="49" width="87" height="22">
<path d="M105 49H18V71H105V49Z" fill="white"/>
</mask>
<g mask="url(#mask0_681_1747)">
<path d="M90.5538 61.0748C90.8499 61.0844 91.1308 61.2019 91.3388 61.4032C91.5468 61.6044 91.6659 61.874 91.6719 62.1566C91.6719 62.7848 91.182 63.3249 90.5538 63.3249C90.392 63.3282 90.2312 63.3002 90.081 63.2427C89.9308 63.1851 89.7944 63.0992 89.6799 62.9901C89.5653 62.8809 89.4751 62.7508 89.4146 62.6076C89.3541 62.4643 89.3246 62.311 89.3279 62.1566C89.3412 61.8584 89.4776 61.5773 89.7073 61.3747C89.9369 61.1721 90.2412 61.0643 90.5538 61.0748Z" fill="white"/>
<path d="M93.3418 63.2521V56.6751H95.1038V57.3183C95.2792 57.0754 95.516 56.8784 95.7921 56.7456C96.0682 56.6127 96.375 56.5483 96.6841 56.5582C97.1594 56.5582 97.5269 56.6462 97.756 56.8095L97.1292 58.3875C96.8611 58.2308 96.5545 58.1442 96.2403 58.1362C95.7346 58.1362 95.3513 58.3699 95.1064 58.8372V63.2508L93.3418 63.2521Z" fill="white"/>
<path d="M105 56.6751V63.2521H103.238V62.448C102.686 63.0913 101.951 63.4129 101.032 63.4129C99.6073 63.4129 98.6118 62.492 98.6118 60.6941V56.6738H100.374V60.3424C100.374 61.3474 100.818 61.85 101.691 61.85C102.289 61.85 102.808 61.5874 103.238 61.0472V56.6751H105Z" fill="white"/>
<path d="M60.8463 54.0983H51.3318V58.2442H59.054V63.3413H51.3318V70.7086H45.3979V49H60.8463V54.0983Z" fill="white"/>
<path d="M72.0135 49C73.6767 48.9877 75.3306 49.2377 76.9084 49.74C78.36 50.1966 79.7026 50.9224 80.859 51.8758C81.9796 52.8164 82.8732 53.9776 83.4783 55.2793C84.1104 56.6194 84.4265 58.1211 84.4265 59.7846C84.4493 61.3229 84.126 62.8481 83.4783 64.2572C82.8684 65.5656 81.9759 66.7365 80.859 67.6933C79.7049 68.67 78.3633 69.4239 76.9084 69.9133C75.338 70.4488 73.6811 70.7162 72.0135 70.7035H64.0859V49H72.0135ZM70.0145 54.131V65.6077H71.9793C72.8374 65.6151 73.6905 65.4817 74.5012 65.2132C75.247 64.9716 75.9332 64.5868 76.5173 64.0825C77.0927 63.5697 77.5489 62.9473 77.8565 62.2558C78.5239 60.6563 78.5239 58.8738 77.8565 57.2744C77.5519 56.5995 77.0924 55.9985 76.512 55.5155C75.924 55.0406 75.2393 54.6869 74.5012 54.4765C73.6854 54.2408 72.8369 54.1244 71.9845 54.131H70.0145Z" fill="white"/>
<path d="M29.7333 71.0013C27.0502 71.0013 24.4482 70.1241 22.3608 68.5158C20.2734 66.9075 18.8269 64.6653 18.2623 62.1628C17.6976 59.6603 18.0491 57.0489 19.2579 54.7636C20.4668 52.4784 22.4601 50.6574 24.9056 49.6043L27.2247 54.4915C25.9502 55.0398 24.9111 55.9882 24.2808 57.1787C23.6505 58.3693 23.467 59.73 23.7609 61.0341C24.0548 62.3381 24.8083 63.5066 25.8959 64.3447C26.9834 65.1829 28.3392 65.6401 29.7373 65.6401C31.1353 65.6401 32.4912 65.1829 33.5787 64.3447C34.6663 63.5066 35.4198 62.3381 35.7137 61.0341C36.0076 59.73 35.8241 58.3693 35.1938 57.1787C34.5635 55.9882 33.5244 55.0398 32.2499 54.4915L34.5663 49.6043C37.0119 50.6575 39.0053 52.4785 40.2142 54.7639C41.4231 57.0493 41.7744 59.6609 41.2095 62.1634C40.6448 64.6659 39.198 66.9082 37.1104 68.5164C35.0228 70.1246 32.4205 71.0017 29.7373 71.0013H29.7333Z" fill="white"/>
</g>
</g>
<defs>
<clipPath id="clip0_681_1747">
<rect width="87" height="22" fill="white" transform="translate(18 49)"/>
</clipPath>
</defs>
</svg>
