<svg width="120" height="120" viewBox="0 0 120 120" fill="none" xmlns="http://www.w3.org/2000/svg">
<path fill-rule="evenodd" clip-rule="evenodd" d="M81.0068 81.0704C83.5218 79.9905 86.5205 79.5977 90.3895 79.6956C90.2807 78.9609 88.899 78.0885 87.8862 77.4491C87.5457 77.2341 87.247 77.0455 87.0523 76.8972C85.5044 75.7685 83.8601 74.5896 82.2158 73.559C81.6861 73.2305 80.9234 72.9563 80.1894 72.6925C79.7173 72.5228 79.2572 72.3574 78.8785 72.1845C78.4918 72.0246 77.965 71.8646 77.3963 71.6919C76.0447 71.2814 74.456 70.7989 73.9453 70.0736C72.6308 68.3389 71.7135 66.2417 70.7973 64.1472C70.7021 63.9296 70.607 63.712 70.5113 63.4948C70.0312 62.3802 69.4968 61.2437 68.9594 60.1007C68.3607 58.8272 67.7582 57.5457 67.2227 56.2778C66.9893 55.7609 66.8117 55.2722 66.6369 54.7911C66.4134 54.1758 66.1944 53.573 65.8686 52.9396C62.3376 46.0174 57.1148 40.2242 50.7788 36.1495C48.6989 34.8239 46.3777 33.5964 43.8141 32.762C43.0312 32.5237 42.164 32.4854 41.2883 32.4467C40.5408 32.4136 39.7871 32.3803 39.0744 32.2222H38.0586C37.4722 32.0568 36.9516 31.5794 36.4673 31.1354C36.2327 30.9203 36.0066 30.713 35.7858 30.5528C34.2863 29.522 32.7871 28.834 30.9974 28.0981C30.3691 27.8035 28.5794 27.1161 27.9506 27.6565C27.5634 27.7547 27.3702 27.9017 27.2734 28.2945C26.8865 28.8837 27.2253 29.7675 27.4669 30.3073C27.9464 31.3455 28.5527 32.1051 29.174 32.8836C29.4927 33.283 29.8154 33.6873 30.127 34.1367C30.2756 34.3496 30.4305 34.5672 30.5879 34.7885C31.3021 35.7923 32.0696 36.8708 32.5452 37.9168C33.216 39.3836 33.6942 40.9343 34.1706 42.4793C34.5871 43.8302 35.0024 45.1768 35.5439 46.4593C35.979 47.4907 36.6564 48.6685 37.2849 49.6014C37.4821 49.8743 37.7391 50.1202 37.9993 50.3692C38.4411 50.792 38.892 51.2235 39.0746 51.8106C39.545 52.6062 38.6815 54.8845 38.1568 56.2688C38.0339 56.5929 37.9296 56.868 37.8654 57.0636C36.6075 61.0892 36.8493 66.686 38.3004 70.1715C38.3525 70.2947 38.4041 70.4198 38.4561 70.5459C38.9847 71.8267 39.5519 73.2012 40.9605 73.5593C41.0044 73.5145 41.0085 73.5003 41.018 73.4934C41.0294 73.4852 41.0486 73.4877 41.1543 73.4606C41.2251 72.8962 41.2853 72.3361 41.3447 71.7839C41.5693 69.6943 41.7819 67.7174 42.5084 66.0477C42.8544 65.1856 43.4255 64.4896 43.982 63.8112C44.2812 63.4466 44.5762 63.087 44.8299 62.7095C45.1366 62.8963 45.2487 63.3201 45.3639 63.7557C45.4303 64.0065 45.4976 64.2613 45.6038 64.4768C45.6482 64.5843 45.6928 64.6925 45.7377 64.8013C46.3285 66.2336 46.9644 67.7754 47.6834 69.1895C49.2794 72.3316 51.0693 75.3752 53.1003 78.1247C53.7772 79.1067 54.7449 80.1869 55.6153 81.0701C55.7478 81.188 55.8861 81.2886 56.0223 81.3876C56.2834 81.5774 56.5368 81.7617 56.7275 82.0521H56.8245V82.1997C55.9062 81.8579 55.201 81.1227 54.5127 80.4052C54.1134 79.9889 53.7198 79.5785 53.2935 79.2543C51.1171 77.5849 48.5057 75.0808 47.0062 72.6755C46.5328 71.6407 46.0321 70.6334 45.5246 69.6122C45.358 69.2771 45.1907 68.9404 45.0233 68.6009V68.5024C44.8387 68.7525 44.8109 69.0025 44.7774 69.3034C44.7583 69.4749 44.7374 69.663 44.6845 69.8772C44.5054 70.5769 44.4166 71.3046 44.3309 72.0079C44.1158 73.7717 43.9194 75.3821 42.3633 76.0137C39.8967 77.0451 38.0586 74.3441 37.2849 73.1172C34.8186 69.0425 34.1412 62.1694 35.8822 56.6217C36.017 56.1947 36.1107 55.738 36.2042 55.2825C36.3794 54.4289 36.5536 53.5799 36.995 52.9396C36.8979 52.3496 36.5639 52.044 36.2374 51.7453C36.0749 51.5967 35.9143 51.4498 35.7858 51.2705C35.1086 50.3376 34.5284 49.2577 33.9963 48.2269C33.2233 46.6953 32.6187 44.9361 32.0328 43.2312C31.8486 42.6952 31.6663 42.1646 31.4811 41.6481C31.316 41.2173 31.2085 40.7863 31.1024 40.361C30.9909 39.9141 30.8809 39.4735 30.7074 39.0461C30.2499 38.0398 29.4921 37.0336 28.7886 36.0996C28.5997 35.8488 28.4148 35.6032 28.2406 35.3642C28.052 35.0895 27.8023 34.771 27.524 34.416C26.1604 32.677 24.1092 30.0609 25.1938 27.411C27.2251 22.3543 34.3352 26.1832 37.0915 27.9508C37.367 28.1306 37.6586 28.3917 37.9597 28.6613C38.3985 29.0542 38.8575 29.4652 39.3165 29.669C39.9211 29.6937 40.5258 29.7305 41.1305 29.7673C41.735 29.8042 42.3395 29.841 42.9437 29.8657C43.1418 29.9127 43.3388 29.959 43.5345 30.005C45.5851 30.487 47.5008 30.9372 49.1345 31.8782C57.4531 36.8369 62.87 41.8936 67.8515 50.2397C68.528 51.3629 68.9894 52.5458 69.4593 53.7505C69.7287 54.4411 70.0008 55.1387 70.3179 55.8364C71.5271 58.6836 72.8818 61.6781 74.2839 64.3786C74.46 64.7363 74.6248 65.1055 74.7899 65.4755C75.2139 66.4259 75.6402 67.3814 76.2671 68.1587C76.4923 68.4856 76.9965 68.66 77.4795 68.8271C77.722 68.911 77.9592 68.993 78.153 69.0916C78.7786 69.4187 79.4563 69.7156 80.1395 70.015C81.199 70.4792 82.2716 70.9492 83.1832 71.5463C85.9881 73.3136 88.6968 75.4243 91.1635 77.5849C91.662 78.0377 92.0751 78.5916 92.4877 79.1447C92.8357 79.6112 93.1833 80.0771 93.5814 80.4815V80.9231C92.8078 81.1686 92.0338 81.4141 91.2602 81.6105C90.4182 81.8303 89.6242 81.9164 88.8364 82.0018C88.0401 82.0882 87.2503 82.1738 86.4237 82.3961C86.3183 82.4267 86.2102 82.4583 86.1001 82.4905C85.1488 82.769 84.0399 83.0937 83.0865 83.1817C83.1346 83.2308 83.1832 83.2796 83.1832 83.2796C83.6493 84.6267 85.6315 85.7847 87.2561 86.7337C87.8224 87.0645 88.3452 87.37 88.7452 87.6492C90.6314 89.0237 92.3724 90.693 93.7749 92.6074C94.0154 92.8515 94.2562 93.0836 94.4968 93.3156C94.74 93.55 94.9831 93.7844 95.226 94.0312C95.3897 94.2689 95.4969 94.541 95.6023 94.8086C95.7147 95.094 95.8251 95.3743 95.9999 95.6024V95.7494C95.5766 95.5962 95.2856 95.2892 94.9971 94.9848C94.8239 94.8021 94.6516 94.6202 94.4521 94.4731C93.996 94.1576 93.5401 93.8149 93.0842 93.4721C92.4763 93.0152 91.8684 92.5582 91.2602 92.1657C90.3243 91.5657 89.3131 91.093 88.2969 90.618C87.3175 90.1602 86.3335 89.7002 85.4077 89.1219C84.3441 88.4345 83.328 87.6492 82.3125 86.8639C81.3935 86.1762 80.3786 84.8505 79.7976 83.8688C79.6512 83.6354 79.5591 83.3837 79.4704 83.1413C79.3539 82.823 79.2433 82.5209 79.0237 82.2979C79.096 81.6001 79.7637 81.4241 80.3993 81.2565C80.6134 81.2001 80.824 81.1446 81.0068 81.0704ZM39.0758 37.2789C39.6562 37.1319 40.2364 37.0331 41.0584 37.0331C41.2117 37.1888 41.403 37.3214 41.5962 37.4552C41.8906 37.6591 42.1893 37.866 42.3644 38.1627C42.4719 38.3154 42.5411 38.4681 42.6104 38.6208C42.697 38.8117 42.7836 39.0027 42.9448 39.1935C42.9448 40.3719 42.6065 41.1572 41.9291 41.6485C41.9291 41.6485 41.8807 41.6973 41.8326 41.7467C41.6392 41.3544 41.4581 40.962 41.2769 40.5697C41.0953 40.1764 40.9137 39.7831 40.7198 39.3899C40.5315 39.1222 40.3139 38.8769 40.0955 38.6306C39.7532 38.2448 39.4089 37.8567 39.1725 37.3771H39.0758V37.2789Z" fill="white"/>
</svg>
