<svg width="120" height="120" viewBox="0 0 120 120" fill="none" xmlns="http://www.w3.org/2000/svg">
<path d="M76.8203 64.2329H85.4308V62.294H79.7557C80.5385 59.1123 85.3329 58.4163 85.3329 54.8866C85.3329 52.9975 84.0609 51.6055 81.3702 51.6055C79.7068 51.6055 78.2391 52.1026 77.2606 52.5998L77.8477 54.3895C78.7283 53.942 79.7557 53.5443 81.0277 53.5443C82.0062 53.5443 82.9357 53.9918 82.9357 55.1352C82.9357 57.7203 77.3095 57.9192 76.8203 64.2329ZM85.6754 61.1506H91.2037V64.2329H93.4052V61.1506H95.2643V59.2615H93.4052V51.6055H91.7908L85.6754 59.6592V61.1506ZM88.1705 59.3609L91.3015 55.0855C91.3015 55.4335 91.2037 56.5272 91.2037 57.5215V59.3112H89.736C89.2957 59.3112 88.464 59.3609 88.1705 59.3609Z" fill="white"/>
<path d="M14.2994 62.3448V58.4174H15.2289C16.0606 58.4174 16.7455 58.5168 17.2348 58.8151C17.724 59.1134 18.0175 59.6105 18.0175 60.406C18.0175 61.7483 17.2348 62.3448 15.3757 62.3448H14.2994ZM12.0489 64.234H15.3268C18.996 64.234 20.3169 62.5934 20.3169 60.3065C20.3169 58.7654 19.6809 57.7214 18.5557 57.1248C17.6751 56.6277 16.5498 56.4785 15.18 56.4785H14.2994V53.4957H19.2406L19.8277 51.6562H12V64.234H12.0489ZM21.8335 64.234H23.9862L26.7748 60.1574C27.3129 59.4117 27.7043 58.666 27.9489 58.2682H27.9978C27.9489 58.8151 27.9 59.5111 27.9 60.2071V64.1842H30.1015V55.2357H27.9489L25.1603 59.3122C24.6711 60.058 24.2308 60.8037 23.9862 61.2014H23.9372C23.9862 60.6545 24.0351 59.9585 24.0351 59.2625V55.2854H21.8335V64.234ZM33.8686 64.234H36.1191V57.1248H38.7609L39.348 55.2357H31.1779V57.1248H33.8686V64.234ZM40.1308 68.758H42.3323V64.234C42.7726 64.3831 43.2129 64.4328 43.7022 64.4328C46.4908 64.4328 48.3009 62.494 48.3009 59.71C48.3009 56.8265 46.6375 54.9871 43.4575 54.9871C42.2345 54.9871 41.0603 55.2357 40.0819 55.534V68.758H40.1308ZM42.3323 62.2951V57.0254C42.6748 56.926 42.9683 56.8762 43.3597 56.8762C44.9742 56.8762 46.0015 57.7711 46.0015 59.71C46.0015 61.45 45.1699 62.5437 43.5065 62.5437C43.0662 62.5437 42.7237 62.4443 42.3323 62.2951ZM49.6219 64.234H51.7745L54.5631 60.1574C55.1012 59.4117 55.4926 58.666 55.7372 58.2682H55.7862C55.7372 58.8151 55.6883 59.5111 55.6883 60.2071V64.1842H57.8899V55.2357H55.7372L52.9486 59.3122C52.4594 60.058 52.0191 60.8037 51.7745 61.2014H51.7255C51.7745 60.6545 51.8234 59.9585 51.8234 59.2625V55.2854H49.6219V64.234ZM59.6511 64.234H61.9016V60.5054H63.2225C63.4671 60.5054 63.7117 60.754 64.0052 61.3505L65.1305 64.234H67.5277L65.9132 60.8037C65.6197 60.2071 65.3262 59.8591 64.8859 59.71V59.6602C65.6197 59.2128 65.7175 57.9202 66.1579 57.274C66.3046 57.0751 66.5003 56.9757 66.7939 56.9757C66.9406 56.9757 67.1363 56.9757 67.2831 57.0751V55.1363C67.0385 55.0368 66.5982 54.9871 66.3535 54.9871C65.5708 54.9871 65.0816 55.2854 64.7391 55.7825C64.0052 56.8763 64.0052 58.7654 62.9289 58.7654H61.9016V55.2357H59.6511V64.234ZM72.5179 64.4328C73.7409 64.4328 74.8662 64.0351 75.5511 63.538L74.9151 61.9968C74.2791 62.3448 73.692 62.5934 72.8603 62.5934C71.3437 62.5934 70.3652 61.5991 70.3652 59.7597C70.3652 58.1191 71.3437 56.8265 73.0071 56.8265C73.8877 56.8265 74.5237 57.0751 75.1597 57.5225V55.5837C74.6705 55.2854 73.8877 54.9871 72.7625 54.9871C70.1206 54.9871 68.0659 56.9757 68.0659 59.8094C68.0659 62.3945 69.6314 64.4328 72.5179 64.4328Z" fill="white"/>
<path d="M102.557 61.1493C104.954 61.1493 106.911 59.1609 106.911 56.725C106.911 54.2892 104.954 52.3008 102.557 52.3008C100.16 52.3008 98.2031 54.2892 98.2031 56.725C98.252 59.1609 100.16 61.1493 102.557 61.1493Z" stroke="white" stroke-width="1.7688"/>
<path d="M105.299 56.7249H102.902V54.2891H102.266V57.3711H105.299V56.7249Z" fill="white"/>
</svg>
