<svg width="120" height="120" viewBox="0 0 120 120" fill="none" xmlns="http://www.w3.org/2000/svg">
<path fill-rule="evenodd" clip-rule="evenodd" d="M106.184 63.3107V60.0878H104.7V60.2075C104.674 61.5155 104.457 62.4559 104.188 63.3107H106.184ZM108.823 63.3107H109.804L109.743 66.8926H107.312V65.3966H103.337L103.293 66.8926H100.846V63.3107H101.696C102.122 62.1054 102.33 60.9342 102.33 58.3866V58.0276H108.823V63.3107ZM59.545 57.5745C57.7656 57.5745 56.9235 56.8307 56.7151 55.5398L58.7203 55.2578C58.8159 55.7451 59.0589 56.0528 59.545 56.0528C60.0312 56.0528 60.2742 55.7451 60.3696 55.2578L62.3748 55.5398C62.1665 56.8307 61.3157 57.5745 59.545 57.5745ZM50.5262 63.362C51.4811 63.362 52.0886 62.626 52.0886 61.7206C52.0886 60.8323 51.4203 60.0792 50.5001 60.0792C49.5454 60.0792 48.9378 60.8154 48.9378 61.7206C48.9378 62.609 49.5974 63.362 50.5262 63.362ZM50.5262 57.8652C52.9132 57.8652 54.6406 59.6006 54.6406 61.7206C54.6406 63.8151 52.9045 65.5761 50.5001 65.5761C48.1044 65.5761 46.377 63.8408 46.377 61.7206C46.377 59.6263 48.1219 57.8652 50.5262 57.8652ZM95.785 63.3962C96.627 63.3962 97.304 62.7037 97.304 61.7036C97.304 60.7291 96.627 60.0281 95.785 60.0281C94.9257 60.0281 94.2486 60.7118 94.2486 61.7292C94.2486 62.7037 94.9257 63.3962 95.785 63.3962ZM97.2521 58.0276H99.8734V65.3966H97.2521V64.4136C96.7398 65.029 96.1062 65.5591 94.9865 65.5591C93.1983 65.5591 91.6619 64.1057 91.6619 61.7207C91.6619 59.3271 93.1983 57.8651 94.9691 57.8651C96.1062 57.8651 96.7659 58.3696 97.2521 58.9252V58.0276ZM58.2864 61.7378L60.7863 58.0276H63.2082V65.3966H60.6646V62.9944C60.6646 62.5328 60.6646 62.1053 60.6734 61.6864L58.1736 65.3966H55.7517V58.0276H58.2951V60.3956C58.2951 60.7632 58.2951 61.2933 58.2864 61.7378ZM84.1361 59.4467L84.1535 58.0276H90.5943V65.3966H87.9642V60.0878H86.4538V60.3187C86.3757 64.7725 85.3688 65.4906 83.7802 65.4906C83.5286 65.4906 83.0336 65.4478 82.7038 65.3966H79.5877L77.5219 62.2506V65.3966H74.9004V58.0276H77.5219V60.8657L79.5269 58.0276H82.5562L79.8828 61.3787L82.6257 65.3111L82.7473 63.0456C83.0336 63.0799 83.1032 63.0799 83.1725 63.0799C83.6414 63.0799 84.1274 62.7465 84.1361 59.4467ZM70.0481 63.0885C70.9683 63.0885 71.602 62.6952 72.1313 61.943L74.154 63.3962C73.1904 64.6785 71.9751 65.5761 69.8571 65.5761C67.0447 65.5761 64.8921 63.5159 64.8921 60.6093C64.8921 57.8994 67.0275 55.6682 69.9874 55.6682C71.8188 55.6682 73.1555 56.4546 74.1018 57.7883L72.1139 59.2158C71.5845 58.4893 70.9508 58.1472 70.1088 58.1472C68.6941 58.1472 67.7132 59.2415 67.7132 60.6093C67.7132 62.1139 68.7374 63.0885 70.0481 63.0885ZM42.2626 55.8306H43.99L45.8475 65.3966H43.2174L42.3668 60.7289L39.9971 65.7129H39.6932L37.3148 60.7718L36.4643 65.3966H33.8516L35.7091 55.8306H37.4276C37.4276 55.8306 38.9207 58.9935 39.216 59.6005C39.5111 60.2075 39.8495 60.9854 39.8495 60.9854C39.8495 60.9854 40.2835 59.9853 40.5005 59.5579C40.7176 59.1305 42.2626 55.8306 42.2626 55.8306Z" fill="white"/>
<path fill-rule="evenodd" clip-rule="evenodd" d="M13.6406 66.1782C16.0088 66.1782 17.7992 63.1416 19.4043 59.8265C20.1769 58.2193 20.8973 56.5353 21.6176 55.1076C22.4087 53.524 23.2202 52.4062 24.213 52.4062C25.0547 52.4062 25.8467 53.0756 26.6349 54.1244C28.2691 56.3019 29.6816 59.9896 29.6816 62.4081C29.6816 64.4342 28.6227 66.1782 26.4526 66.1782H13.6406Z" fill="white"/>
<path fill-rule="evenodd" clip-rule="evenodd" d="M19.4054 59.8255C17.7788 56.596 17.0424 54.2264 15.6037 54.2264C14.7097 54.2264 13.7029 55.1497 12.7915 56.6627C11.8151 58.2681 11.0469 60.5336 11.0469 62.9713C11.0469 64.8962 12.0035 66.1767 13.6421 66.1767C16.0095 66.1767 17.8004 63.1404 19.4054 59.8255Z" fill="white"/>
</svg>
