<svg width="144" height="42" viewBox="0 0 144 42" fill="none" xmlns="http://www.w3.org/2000/svg">
<path fill-rule="evenodd" clip-rule="evenodd" d="M48.5599 0.338718C41.4169 0.857031 35.5644 4.56637 33.2181 10.0623C32.3693 12.0505 32.0747 13.6298 32.1484 15.7968C32.1979 17.254 32.3263 18.1027 32.6753 19.2782L32.8475 19.8585L32.9058 18.4079C32.9662 16.9047 33.0815 16.2792 33.5087 15.1337C34.1412 13.4379 35.1693 11.9997 36.7103 10.655C39.2971 8.39772 42.5703 7.13166 46.8911 6.71704C48.201 6.5913 51.4703 6.66076 52.7289 6.84104C53.198 6.90819 53.6689 6.96447 53.7754 6.96613C53.8886 6.96778 54.6346 6.48404 55.5717 5.8011C56.4531 5.15871 57.3002 4.54689 57.4542 4.44145L57.7342 4.24981L56.5668 2.62127C55.9248 1.72564 55.3316 0.961224 55.2486 0.922598C55.0219 0.817161 53.4055 0.529863 52.4921 0.432716C51.2621 0.301832 49.6114 0.262376 48.5599 0.338718ZM46.3333 12.5775C42.947 12.8673 40.6526 13.7228 38.9066 15.3465C37.6326 16.5312 36.8648 17.8544 36.5204 19.4584C36.2949 20.5087 36.3697 22.4469 36.667 23.257C37.1316 24.5228 37.8974 25.5527 39.0863 26.5112C40.866 27.9457 43.4289 28.7958 47.5176 29.3075C51.6169 29.8206 53.5054 30.5479 54.2649 31.9057C54.7998 32.8622 54.5148 34.0948 53.5996 34.7826C52.641 35.5032 51.0105 35.9551 49.0753 36.0369C46.1891 36.1588 43.1548 35.3279 40.2808 33.6288L39.2481 33.0182L36.9152 35.0604L34.5822 37.1025L35.4596 37.7159C39.2858 40.3908 43.3757 41.7001 47.9053 41.7001C51.5733 41.7001 54.6794 40.9705 57.0867 39.5437C58.464 38.7274 59.3215 37.8802 59.9799 36.6852C61.4006 34.1066 61.1198 30.4321 59.3254 28.1206C57.8441 26.2123 55.2614 24.7711 51.9709 24.0169C50.6548 23.7152 49.7681 23.5785 47.8621 23.3834C43.9454 22.9824 42.6445 22.321 42.6409 20.7288C42.6383 19.5508 43.6393 18.7036 45.4387 18.3606C46.4636 18.1653 48.7466 18.164 49.7917 18.358C51.3902 18.6548 52.8045 19.1559 53.936 19.8264C54.235 20.0036 54.5124 20.1486 54.5526 20.1486C54.5927 20.1486 55.64 19.2604 56.8801 18.1749L59.1347 16.2012L58.5848 15.8238C56.4714 14.373 53.8018 13.3097 51.1519 12.8634C49.4751 12.5809 47.5965 12.4695 46.3333 12.5775ZM92.2638 13.9365L89.066 15.3414V28.2721V41.2027H92.2875H95.509V26.8627C95.509 18.9757 95.4984 12.5247 95.4853 12.5272C95.4723 12.5296 94.0227 13.1638 92.2638 13.9365ZM0 27.0699V41.2027H3.22153H6.44307V27.0699V12.9371H3.22153H0V27.0699ZM20.3715 20.3046C19.3373 20.5018 18.324 20.8813 17.455 21.397C17.0757 21.6222 16.7453 21.8064 16.7207 21.8064C16.6963 21.8064 16.6762 21.5453 16.6762 21.2262V20.6459H13.4546H10.2331V30.9243V41.2027H13.4546H16.6762L16.6778 35.0481C16.6796 28.3482 16.6907 28.1891 17.211 27.3526C17.3537 27.1234 17.7566 26.6996 18.1065 26.4108C18.7916 25.8455 19.3846 25.5942 20.4094 25.4353C21.9194 25.2011 23.77 25.9815 24.6076 27.2059C25.2116 28.0889 25.2038 27.9874 25.2038 34.9205V41.2027H28.3824H31.5611L31.5266 34.2192C31.493 27.407 31.4871 27.2178 31.2883 26.5063C30.4523 23.514 28.0413 21.1695 24.9981 20.3892C23.9934 20.1316 21.5161 20.0863 20.3715 20.3046ZM72.383 20.2754C71.3234 20.4199 70.2772 20.6564 69.0672 21.0248C67.8938 21.3822 65.7572 22.2158 65.7572 22.3162C65.7572 22.3556 66.3119 23.3577 66.9897 24.5431L68.2223 26.6983L68.897 26.4011C72.1937 24.9487 76.603 24.7952 78.3383 26.0726C78.7157 26.3505 79.0224 26.9125 79.0224 27.3267V27.6555L77.7669 27.4699C74.9904 27.0595 72.3466 27.0608 70.486 27.4737C67.2992 28.1809 64.8295 30.2183 64.0426 32.7893C63.7784 33.6524 63.7539 35.3969 63.9936 36.2707C64.2145 37.0756 64.8893 38.244 65.4898 38.8613C66.5348 39.9355 68.2038 40.8492 69.7544 41.1961C71.9836 41.6947 75.1433 41.5805 77.7432 40.9073C78.2122 40.7859 78.6706 40.6677 78.7618 40.6449C78.8979 40.6106 78.9276 40.6568 78.9276 40.9029V41.2027H82.0108H85.094L85.0646 33.7219L85.0353 26.241L84.7826 25.435C83.8869 22.5764 81.3101 20.8073 77.266 20.274C76.1033 20.1207 73.5118 20.1215 72.383 20.2754ZM108.237 20.2667C106.233 20.5987 104.278 21.4673 102.813 22.6767C101.096 24.095 99.967 25.9634 99.383 28.3547C99.1037 29.499 99.074 32.0306 99.326 33.2224C99.7988 35.4578 100.905 37.3728 102.569 38.8359C104.375 40.4235 106.504 41.2918 109.201 41.5404C112.605 41.8543 115.454 40.9517 117.781 38.8221C118.252 38.3906 118.622 37.9944 118.602 37.9416C118.569 37.8561 116.978 36.7314 115.053 35.4328L114.368 34.9706L113.876 35.347C113.256 35.8215 112.378 36.2023 111.549 36.3559C108.837 36.8587 106.322 35.5192 105.515 33.1416L105.382 32.7479H113.107H120.833L120.766 31.5253C120.652 29.4233 120.408 28.0068 119.935 26.6969C118.848 23.6868 116.141 21.31 112.801 20.4328C112.06 20.2382 111.75 20.2053 110.432 20.1816C109.426 20.1634 108.688 20.192 108.237 20.2667ZM131.029 20.2321C128.641 20.5624 126.767 21.3715 125.378 22.6728C124.127 23.8451 123.544 25.1753 123.543 26.8627C123.542 28.4543 123.889 29.2286 125.069 30.2657C126.462 31.4897 129.069 32.5229 132.272 33.1203C135.424 33.7082 136.619 34.0196 137.11 34.3806C137.729 34.8363 137.804 35.3185 137.34 35.8514C136.967 36.2791 136.417 36.4259 134.665 36.5657C132.089 36.7712 129.099 36.1405 126.128 34.765C125.589 34.5154 125.135 34.3231 125.12 34.3377C125.007 34.4462 122.323 39.24 122.358 39.2709C122.382 39.2926 123.026 39.5308 123.788 39.8003C127.475 41.1047 131.074 41.7169 134.262 41.5814C138.34 41.4081 140.786 40.5763 142.516 38.7745C143.62 37.6241 144.079 36.4179 143.989 34.903C143.795 31.6616 141.571 30.1626 134.594 28.572C130.503 27.6394 129.998 27.4363 129.998 26.7228C129.998 25.7651 132.064 25.252 134.641 25.5695C136.347 25.7796 138.615 26.3367 140.125 26.916C140.405 27.0234 140.683 27.1114 140.742 27.1114C140.856 27.1114 143.525 22.5048 143.449 22.4388C143.425 22.4176 142.825 22.1752 142.115 21.9001C140.388 21.231 138.824 20.7831 137.131 20.4733C135.862 20.2408 135.536 20.2141 133.646 20.1876C132.5 20.1715 131.322 20.1916 131.029 20.2321ZM111.134 25.2496C112.449 25.5207 113.573 26.2694 114.084 27.2141C114.566 28.1059 114.969 28.0232 110.146 28.0232H105.928L105.989 27.7952C106.108 27.3524 106.626 26.6117 107.069 26.2486C107.831 25.6251 109.153 25.145 110.148 25.1301C110.357 25.127 110.8 25.1808 111.134 25.2496ZM76.9378 32.2067C77.485 32.276 78.1575 32.3731 78.4322 32.4222L78.9318 32.5117L78.906 34.0596L78.8802 35.6076L78.2318 35.8807C76.7551 36.5026 74.3717 36.8108 72.9421 36.5647C71.2782 36.2783 69.9353 35.2838 69.9283 34.3324C69.921 33.3436 70.8422 32.4886 72.305 32.1269C72.9358 31.9709 75.4138 32.0136 76.9378 32.2067Z" fill="white"/>
</svg>
