<svg width="127" height="61" viewBox="0 0 127 61" fill="none" xmlns="http://www.w3.org/2000/svg">
<g clip-path="url(#clip0_119_1002)">
<path fill-rule="evenodd" clip-rule="evenodd" d="M30.2375 0.300049C24.26 0.300049 18.4169 2.06856 13.4468 5.3819C8.47681 8.69524 4.60314 13.4046 2.31568 18.9145C0.0282278 24.4244 -0.57027 30.4873 0.595865 36.3366C1.762 42.1859 4.6404 47.5588 8.86706 51.7758C13.0937 55.9929 18.4788 58.8648 24.3414 60.0283C30.2039 61.1918 36.2806 60.5947 41.803 58.3124C47.3254 56.0301 52.0455 52.1652 55.3664 47.2064C58.6873 42.2477 60.4598 36.4177 60.4598 30.4539C60.4598 22.4566 57.2756 14.7869 51.6079 9.13191C45.9401 3.47698 38.2529 0.300049 30.2375 0.300049ZM37.5959 41.0578V43.3497H31.3401H29.043V17.4664H31.3401V41.0578H37.5959ZM30.2375 55.6954C23.5278 55.6954 17.0929 53.036 12.3485 48.3023C7.60403 43.5686 4.93863 37.1483 4.93863 30.4539C4.93863 23.7594 7.60403 17.3391 12.3485 12.6054C17.0929 7.87174 23.5278 5.21238 30.2375 5.21238H31.3401V7.50429C30.9802 7.50429 30.6126 7.50429 30.2451 7.50429C25.7479 7.50904 21.351 8.83077 17.5997 11.3056C13.8484 13.7804 10.9077 17.2995 9.14227 21.4263C7.37686 25.5531 6.86441 30.1062 7.66846 34.521C8.47251 38.9357 10.5577 43.0178 13.6654 46.2611C16.7732 49.5045 20.7667 51.7663 25.1509 52.7661C29.535 53.766 34.1169 53.4598 38.3283 51.8856C42.5396 50.3115 46.1953 47.5386 48.8418 43.9108C51.4883 40.283 53.0093 35.9599 53.2162 31.4776V31.4088H37.6188V29.1169H55.5057C55.5057 29.5677 55.5057 30.0108 55.5057 30.4692C55.5077 33.7812 54.8556 37.0612 53.5866 40.1217C52.3177 43.1821 50.4568 45.9632 48.1102 48.3059C45.7636 50.6485 42.9774 52.5069 39.9107 53.7749C36.844 55.0428 33.557 55.6954 30.2375 55.6954ZM24.3569 20.9043C24.3584 21.6072 24.1508 22.2948 23.7605 22.88C23.3702 23.4652 22.8147 23.9217 22.1642 24.1917C21.5137 24.4618 20.7976 24.5332 20.1064 24.397C19.4152 24.2608 18.7801 23.9231 18.2814 23.4266C17.7827 22.9301 17.4428 22.2971 17.3048 21.6078C17.1668 20.9185 17.2369 20.2038 17.5061 19.5542C17.7754 18.9046 18.2317 18.3494 18.8174 17.9587C19.4031 17.568 20.0918 17.3595 20.7963 17.3595C21.7367 17.3635 22.6372 17.7385 23.3014 18.4026C23.9656 19.0668 24.3395 19.9661 24.3415 20.9043H24.3569Z" fill="white"/>
<path fill-rule="evenodd" clip-rule="evenodd" d="M75.4443 45.2519H97.0372V38.7429H84.0049H83.377V38.1165V15.4419H75.4443V45.2519Z" fill="white"/>
<path fill-rule="evenodd" clip-rule="evenodd" d="M123.133 17.5427C120.4 15.557 117.078 14.5429 113.699 14.6626C109.182 14.6626 105.414 16.0453 102.788 18.6581C100.047 21.3931 98.5996 25.4192 98.5996 30.3086C98.5996 35.5265 100.131 39.927 102.918 42.7078C104.027 43.7977 105.344 44.6542 106.791 45.2264C108.238 45.7986 109.785 46.0749 111.341 46.0387C118.653 46.0387 120.338 41.6612 120.338 41.6612V45.2519H126.938V28.4446H113.761V33.7159H119.825C119.825 33.7159 119.879 40.3472 113.638 40.3472C112.88 40.3582 112.127 40.2172 111.425 39.9324C110.723 39.6476 110.085 39.2249 109.549 38.6894C107.857 37.001 106.961 34.1514 106.961 30.4614C106.961 24.3497 109.396 20.6979 113.47 20.6979C114.63 20.6518 115.768 21.0228 116.677 21.7435C117.587 22.4642 118.206 23.4866 118.424 24.6247H126.846C126.41 21.1869 125.468 19.3992 123.163 17.5733L123.133 17.5427Z" fill="white"/>
</g>
<defs>
<clipPath id="clip0_119_1002">
<rect width="126.9" height="60.3" fill="white" transform="translate(0 0.300049)"/>
</clipPath>
</defs>
</svg>
