<svg width="120" height="120" viewBox="0 0 120 120" fill="none" xmlns="http://www.w3.org/2000/svg">
<path d="M87.525 48.6H67.582C67.1013 48.5998 66.6403 48.4072 66.3004 48.0644C65.9605 47.7216 65.7694 47.2568 65.7691 46.772V25.8113C65.7691 24.2591 64.5211 23 62.9827 23H55.8635C54.3241 23 53.0768 24.2591 53.0768 25.8113V46.645C53.0768 47.7259 52.2103 48.6045 51.1385 48.6092L44.603 48.6407C43.522 48.6466 42.6438 47.7621 42.6459 46.6729L42.6865 25.816C42.69 24.2615 41.4415 23 39.9 23H32.7867C31.2471 23 30 24.2591 30 25.8113V84.504C30 85.8829 31.1077 87 32.4738 87H87.525C88.8923 87 90 85.8829 90 84.504V51.096C90 49.7171 88.8923 48.6 87.525 48.6ZM78.173 70.6368C78.173 72.4438 76.7203 73.909 74.9285 73.909H69.3023C67.5103 73.909 66.0577 72.4438 66.0577 70.6368V64.9629C66.0577 63.1557 67.5103 61.6907 69.3023 61.6907H74.9285C76.7203 61.6907 78.173 63.1557 78.173 64.9629V70.6368Z" fill="white"/>
</svg>
