<svg width="80" height="108" viewBox="0 0 80 108" fill="none" xmlns="http://www.w3.org/2000/svg">
<path d="M40.0095 0C48.49 0 51.1548 5.27151 53.3905 10.5348C54.3296 12.7698 76.3675 65.0718 77.0302 66.6417C77.2065 67.0796 77.0873 67.7985 76.3103 68.0588C75.5285 68.3149 64.0782 72.1735 63.4442 72.3801C62.8102 72.5908 62.0999 72.2851 61.8711 71.7356C61.6327 71.1944 56.88 59.7921 56.3461 58.5196H23.6825C23.1677 59.7921 18.3578 71.2192 18.1432 71.7356C17.924 72.2603 17.2423 72.6156 16.5654 72.3801C15.8884 72.1487 4.39518 68.2901 3.70873 68.0588C3.05089 67.8357 2.75056 67.1871 2.97938 66.6417C3.78977 64.6835 25.494 13.2201 26.5999 10.5348C28.7546 5.35001 31.5099 0 40.0095 0ZM1.23466 93.586C0.548206 93.586 0 94.0817 0 94.6849V106.909C0 107.513 0.548206 108 1.23466 108H78.751C79.4518 108 80 107.513 80 106.909V94.6849C80 94.0817 79.4518 93.586 78.751 93.586H1.23466ZM39.9333 17.0787L28.8929 45.8118H51.1548L40.0763 17.0787H39.9333Z" fill="white"/>
</svg>
